<?xml version="1.0" standalone="no"?>
<!DOCTYPE svg PUBLIC "-//W3C//DTD SVG 1.1//EN" "http://www.w3.org/Graphics/SVG/1.1/DTD/svg11.dtd" >
<svg xmlns="http://www.w3.org/2000/svg" xmlns:xlink="http://www.w3.org/1999/xlink" version="1.1">
<metadata>
Created by FontForge 20201107 at Thu Aug  5 23:50:58 2021
 By 
(c) 2015-2021 Apple Inc. All rights reserved.
</metadata>
<defs>
<font id="SFProText-Medium" horiz-adv-x="0" >
  <font-face 
    font-family="SF Pro Text"
    font-weight="500"
    font-stretch="normal"
    units-per-em="2048"
    panose-1="0 0 0 0 0 0 0 0 0 0"
    ascent="1638"
    descent="-410"
    x-height="1086"
    cap-height="1443"
    bbox="-921 -603 5364 1963"
    underline-thickness="145"
    underline-position="-370"
    unicode-range="U+0020-1F16B"
  />
<missing-glyph horiz-adv-x="2048" 
d="M100 1704v246h1848v-246h-1848zM100 1265v246h1848v-246h-1848zM100 825v246h1848v-246h-1848zM100 385v246h1848v-246h-1848zM100 -55v246h1848v-246h-1848zM100 -494v246h1848v-246h-1848z" />
    <glyph glyph-name=".notdef" horiz-adv-x="2048" 
d="M100 1704v246h1848v-246h-1848zM100 1265v246h1848v-246h-1848zM100 825v246h1848v-246h-1848zM100 385v246h1848v-246h-1848zM100 -55v246h1848v-246h-1848zM100 -494v246h1848v-246h-1848z" />
    <glyph glyph-name="glyph1" 
 />
    <glyph glyph-name="nonmarkingreturn" horiz-adv-x="682" 
 />
    <glyph glyph-name="space" unicode=" " horiz-adv-x="559" 
 />
    <glyph glyph-name="exclam" unicode="!" horiz-adv-x="670" 
d="M234 478l-21 966h243l-20 -966h-202zM336 -22q-70 0 -112.5 41t-42.5 108q0 68 42.5 109t112.5 41q69 0 111 -41t42 -109q0 -67 -42 -108t-111 -41z" />
    <glyph glyph-name="quotedbl" unicode="&#x22;" horiz-adv-x="1045" 
d="M237 856l-24 587h219l-24 -587h-171zM637 856l-24 587h219l-24 -587h-171z" />
    <glyph glyph-name="numbersign" unicode="#" horiz-adv-x="1321" 
d="M355 0h-171l80 393h-232l33 169h234l67 335h-243l34 168h244l76 378h171l-77 -378h302l77 378h172l-77 -378h244l-32 -168h-247l-68 -335h254l-32 -169h-256l-80 -393h-171l80 393h-302zM463 557h312l70 344h-312z" />
    <glyph glyph-name="dollar" unicode="$" horiz-adv-x="1321" 
d="M605 -144v167q-127 10 -230 60t-165 136.5t-66 205.5v1l208 1v-2q13 -87 73 -147t180 -73v437l-39 10q-190 44 -290 133.5t-100 241.5v2q0 112 55 196t152 134.5t222 60.5v168h118v-168q124 -11 221 -63t154 -138t61 -199v-1l-207 -1v2q-10 93 -72 149t-157 69v-419
l45 -11q198 -46 302.5 -134t104.5 -247v-2q0 -122 -60 -208.5t-162.5 -135.5t-229.5 -58v-167h-118zM387 1043q0 -67 49.5 -116.5t168.5 -79.5v391q-107 -14 -162.5 -69.5t-55.5 -123.5v-2zM963 407q0 77 -51 126t-189 82v-411q127 10 183.5 66t56.5 135v2z" />
    <glyph glyph-name="percent" unicode="%" horiz-adv-x="1976" 
d="M444 672q-145 0 -228.5 106.5t-83.5 289.5v1q0 182 83.5 288t228.5 106t228.5 -106t83.5 -288v-1q0 -183 -83.5 -289.5t-228.5 -106.5zM593 0h-187l978 1443h187zM444 806q71 0 110.5 69t39.5 193v1q0 123 -39.5 191.5t-110.5 68.5t-110 -68.5t-39 -191.5v-1
q0 -124 39 -193t110 -69zM1532 -20q-146 0 -229 106.5t-83 288.5v1q0 183 83 289t229 106q145 0 228.5 -106t83.5 -289v-1q0 -182 -83.5 -288.5t-228.5 -106.5zM1532 114q71 0 110 69t39 192v1q0 124 -39 192.5t-110 68.5t-110 -68.5t-39 -192.5v-1q0 -123 39 -192t110 -69z
" />
    <glyph glyph-name="ampersand" unicode="&#x26;" horiz-adv-x="1481" 
d="M606 -27q-147 0 -258.5 51.5t-173.5 143.5t-62 213v2q0 255 283 398l57 29q-102 113 -142 187t-40 147v2q0 95 50 169t137 116t197 42t196 -42t135.5 -115.5t49.5 -168.5v-2q0 -106 -70 -194.5t-237 -179.5l326 -346q68 147 68 346v33h195v-41q0 -141 -30 -264.5
t-91 -223.5l258 -274v-1h-262l-119 130q-86 -74 -202.5 -115.5t-264.5 -41.5zM471 1135q0 -53 32.5 -105.5t116.5 -142.5q123 65 171 122t48 126v2q0 77 -51 126t-133 49q-80 0 -132 -49.5t-52 -125.5v-2zM326 398q0 -112 83 -181.5t218 -69.5q101 0 180.5 32.5t138.5 89.5
l-381 417l-46 -23q-193 -95 -193 -263v-2z" />
    <glyph glyph-name="quotesingle" unicode="'" horiz-adv-x="645" 
d="M237 856l-24 587h219l-24 -587h-171z" />
    <glyph glyph-name="parenleft" unicode="(" horiz-adv-x="817" 
d="M524 -362q-148 191 -218.5 424t-70.5 513q0 281 70 514t219 423h190q-55 -70 -102 -175t-82 -231.5t-54 -262.5t-19 -268t19 -268t54 -262.5t82 -231.5t102 -175h-190z" />
    <glyph glyph-name="parenright" unicode=")" horiz-adv-x="817" 
d="M293 -362h-190q55 70 102 175t81.5 231.5t54 262.5t19.5 268t-19.5 268t-54 262.5t-81.5 231.5t-102 175h190q148 -190 218 -423t70 -514q0 -280 -70 -513t-218 -424z" />
    <glyph glyph-name="asterisk" unicode="*" horiz-adv-x="975" 
d="M407 693l11 252l-204 -132l-81 127l228 121l-228 120l81 127l205 -132l-12 253h163l-12 -252l204 131l81 -126l-228 -121l228 -121l-81 -127l-204 131l12 -251h-163z" />
    <glyph glyph-name="plus" unicode="+" horiz-adv-x="1321" 
d="M119 482v199h442v444h198v-444h443v-199h-443v-444h-198v444h-442z" />
    <glyph glyph-name="comma" unicode="," horiz-adv-x="645" 
d="M118 -375l88 587h231l-166 -587h-153z" />
    <glyph glyph-name="uni2011" unicode="&#x2011;" horiz-adv-x="975" 
d="M153 482v199h669v-199h-669z" />
    <glyph glyph-name="uni2011" unicode="&#x2010;" horiz-adv-x="975" 
d="M153 482v199h669v-199h-669z" />
    <glyph glyph-name="uni2011" unicode="-" horiz-adv-x="975" 
d="M153 482v199h669v-199h-669z" />
    <glyph glyph-name="period" unicode="." horiz-adv-x="645" 
d="M323 -15q-62 0 -104.5 42t-42.5 103q0 62 42.5 104t104.5 42t104 -42t42 -104q0 -61 -42 -103t-104 -42z" />
    <glyph glyph-name="slash" unicode="/" horiz-adv-x="646" 
d="M645 1512l-441 -1874h-204l441 1874h204z" />
    <glyph glyph-name="zero" unicode="0" horiz-adv-x="1330" 
d="M665 -35q-167 0 -286 92t-183 262t-64 402v2q0 232 64 401.5t183 261.5t286 92q166 0 285.5 -92t183.5 -261.5t64 -401.5v-2q0 -232 -64 -402t-183.5 -262t-285.5 -92zM665 151q145 0 226 152.5t81 417.5v2q0 265 -81 416.5t-226 151.5q-146 0 -226.5 -151.5
t-80.5 -416.5v-2q0 -265 80.5 -417.5t226.5 -152.5z" />
    <glyph glyph-name="one" unicode="1" horiz-adv-x="985" 
d="M509 0v1212h-17l-363 -259v220l380 270h224v-1443h-224z" />
    <glyph glyph-name="two" unicode="2" horiz-adv-x="1265" 
d="M156 0v152l479 503q96 100 149 164.5t75 115.5t22 110v3q0 106 -68 175.5t-187 69.5q-121 0 -195.5 -73t-74.5 -191l-1 -3h-210l-2 2q0 132 63.5 233.5t175 159t256.5 57.5q135 0 240.5 -52.5t166 -145t60.5 -211.5v-3q0 -82 -30 -158.5t-103.5 -169t-204.5 -222.5
l-306 -305v-20h667v-191h-972z" />
    <glyph glyph-name="three" unicode="3" horiz-adv-x="1315" 
d="M664 -27q-154 0 -269.5 52.5t-182.5 144.5t-76 211l-1 12h214l1 -10q11 -98 95 -160.5t219 -62.5q132 0 213.5 67.5t81.5 173.5v2q0 122 -83 188t-227 66h-176v174h169q123 0 200 65.5t77 165.5v2q0 105 -67 163.5t-190 58.5q-120 0 -197.5 -59.5t-88.5 -161.5l-1 -10
h-210l1 11q11 121 75 212t172 141.5t249 50.5q144 0 250.5 -48t165.5 -133t59 -196v-2q0 -134 -86 -221t-218 -115v-5q159 -14 256.5 -106t97.5 -243v-2q0 -124 -67 -220t-185 -151t-271 -55z" />
    <glyph glyph-name="four" unicode="4" horiz-adv-x="1350" 
d="M818 0v287h-704v190q143 245 297.5 493t303.5 473h319v-966h199v-190h-199v-287h-216zM329 473h492v781h-13q-116 -175 -242 -376t-237 -391v-14z" />
    <glyph glyph-name="five" unicode="5" horiz-adv-x="1299" 
d="M656 -35q-142 0 -251 54t-174 147t-75 210l-1 13h210l1 -8q14 -95 94 -161.5t198 -66.5q134 0 218 86.5t84 221.5v2q0 134 -84.5 219t-215.5 85q-134 0 -220 -78q-42 -38 -66 -84h-193l72 838h839v-190h-663l-44 -460h17q46 73 126.5 113t180.5 40q135 0 240.5 -62
t165 -170t59.5 -247v-2q0 -148 -66 -260.5t-183 -176t-269 -63.5z" />
    <glyph glyph-name="six" unicode="6" horiz-adv-x="1339" 
d="M689 -35q-109 0 -209.5 40.5t-180 128t-126 227.5t-46.5 339v2q0 244 68 417.5t196 266t306 92.5q128 0 230.5 -46.5t170.5 -129.5t92 -192l2 -12h-222l-4 10q-30 83 -99 131.5t-171 48.5q-121 0 -197.5 -71t-114.5 -190.5t-43 -263.5q-1 -14 -1 -33h19q40 87 136.5 153
t243.5 66q137 0 244 -62.5t167.5 -171t60.5 -246.5v-2q0 -145 -67.5 -258.5t-185 -178.5t-269.5 -65zM384 467q0 -88 40 -159.5t109 -113t154 -41.5q84 0 153 41t109.5 111t40.5 156v2q0 133 -85 219t-216 86q-86 0 -155.5 -38.5t-109.5 -106.5t-40 -155v-1z" />
    <glyph glyph-name="seven" unicode="7" horiz-adv-x="1192" 
d="M217 0l636 1238v16h-756v189h983v-194l-628 -1249h-235z" />
    <glyph glyph-name="eight" unicode="8" horiz-adv-x="1349" 
d="M674 -27q-160 0 -283 53.5t-193 147.5t-70 216v2q0 137 89 237t231 131v5q-122 35 -195 120t-73 200v2q0 111 64 197t175.5 136t254.5 50q144 0 255.5 -50t175 -136t63.5 -197v-2q0 -115 -73 -200t-194 -120v-5q142 -31 231 -131t89 -237v-2q0 -122 -70 -216t-193 -147.5
t-284 -53.5zM674 840q121 0 196.5 63.5t75.5 162.5v2q0 99 -75.5 161.5t-196.5 62.5q-120 0 -196 -62.5t-76 -161.5v-2q0 -99 75.5 -162.5t196.5 -63.5zM674 153q139 0 227.5 71t88.5 180v2q0 111 -88 183t-228 72q-139 0 -227 -72t-88 -183v-2q0 -109 88.5 -180t226.5 -71z
" />
    <glyph glyph-name="nine" unicode="9" horiz-adv-x="1339" 
d="M650 1478q108 0 209 -40.5t180.5 -128t126 -227.5t46.5 -338v-2q0 -245 -68.5 -418.5t-196 -266t-305.5 -92.5q-128 0 -230.5 46.5t-170.5 129.5t-92 192l-3 12h223l3 -10q31 -83 100 -131.5t170 -48.5q122 0 198.5 71t114 190.5t43.5 263.5q1 14 1 33h-20
q-39 -87 -135.5 -153t-243.5 -66q-138 0 -244.5 62.5t-167.5 171t-61 246.5v2q0 145 67.5 258.5t185.5 178.5t270 65zM649 675q87 0 156 38.5t109.5 106.5t40.5 155v1q0 88 -40.5 159.5t-109 113t-153.5 41.5q-84 0 -153 -41t-110 -111t-41 -156v-2q0 -89 39 -157.5
t107 -108t155 -39.5z" />
    <glyph glyph-name="uniA789" unicode="&#xa789;" horiz-adv-x="645" 
d="M323 741q-62 0 -104.5 42.5t-42.5 102.5q0 62 42.5 104t104.5 42t104 -42t42 -104q0 -60 -42 -102.5t-104 -42.5zM323 -15q-62 0 -104.5 42.5t-42.5 102.5q0 62 42.5 104t104.5 42t104 -42t42 -104q0 -60 -42 -102.5t-104 -42.5z" />
    <glyph glyph-name="uniA789" unicode=":" horiz-adv-x="645" 
d="M323 741q-62 0 -104.5 42.5t-42.5 102.5q0 62 42.5 104t104.5 42t104 -42t42 -104q0 -60 -42 -102.5t-104 -42.5zM323 -15q-62 0 -104.5 42.5t-42.5 102.5q0 62 42.5 104t104.5 42t104 -42t42 -104q0 -60 -42 -102.5t-104 -42.5z" />
    <glyph glyph-name="semicolon" unicode=";" horiz-adv-x="645" 
d="M323 741q-62 0 -104.5 42.5t-42.5 102.5q0 62 42.5 104t104.5 42t104 -42t42 -104q0 -60 -42 -102.5t-104 -42.5zM118 -375l88 587h231l-166 -587h-153z" />
    <glyph glyph-name="less" unicode="&#x3c;" horiz-adv-x="1321" 
d="M144 468v226l1033 421v-201l-857 -330l857 -329v-207z" />
    <glyph glyph-name="equal" unicode="=" horiz-adv-x="1321" 
d="M132 754v199h1057v-199h-1057zM132 211v199h1057v-199h-1057z" />
    <glyph glyph-name="greater" unicode="&#x3e;" horiz-adv-x="1321" 
d="M1177 694v-226l-1033 -420v200l857 330l-857 330v207z" />
    <glyph glyph-name="question" unicode="?" horiz-adv-x="1083" 
d="M392 448l-1 80q-4 106 43 179t150 134q91 55 127.5 105.5t36.5 127.5v2q0 84 -62 139.5t-164 55.5q-103 0 -166 -58t-69 -157h-2l-206 -1v2q5 113 57.5 203t152 142.5t244.5 52.5q132 0 231.5 -48.5t155 -132t55.5 -189.5v-2q0 -116 -55.5 -199.5t-154.5 -142.5
q-97 -57 -131.5 -106t-34.5 -126v-61h-207zM508 -22q-69 0 -112 41t-43 108q0 68 43 109t112 41t111.5 -41t42.5 -109q0 -67 -42.5 -108t-111.5 -41z" />
    <glyph glyph-name="at" unicode="@" horiz-adv-x="1887" 
d="M987 -228q-259 0 -450 102.5t-295.5 289.5t-104.5 441v2q0 247 105.5 434.5t293 293t434.5 105.5q238 0 419 -93.5t283 -260t102 -383.5v-2q0 -242 -103 -384.5t-279 -142.5q-89 0 -150.5 43t-75.5 115l-1 6h-17q-65 -157 -246 -157q-104 0 -182 53t-121.5 148t-43.5 222
v2q0 121 43.5 213.5t121 144.5t179.5 52q79 0 141.5 -37.5t91.5 -103.5h17v121h170v-568q0 -111 106 -111q88 0 140.5 103t52.5 276v2q0 181 -83 316.5t-231 211.5t-345 76q-194 0 -344.5 -90t-236 -248t-85.5 -363v-2q0 -209 86.5 -363.5t243.5 -239.5t371 -85
q94 0 180.5 12t131.5 32v-139q-135 -44 -319 -44zM934 337q95 0 151 71t56 191v2q0 120 -55.5 191t-149.5 71q-93 0 -145 -69.5t-52 -192.5v-2q0 -122 52 -192t143 -70z" />
    <glyph glyph-name="A" unicode="A" horiz-adv-x="1423" 
d="M70 0l521 1443h242l521 -1443h-236l-130 390h-552l-131 -390h-235zM703 1190l-207 -620h432l-208 620h-17z" />
    <glyph glyph-name="B" unicode="B" horiz-adv-x="1373" 
d="M181 0v1443h580q203 0 318.5 -96.5t115.5 -262.5v-2q0 -75 -33.5 -141t-91 -111t-128.5 -57v-17q146 -16 235.5 -111t89.5 -236v-2q0 -190 -131 -298.5t-362 -108.5h-593zM709 1260h-304v-431h266q301 0 301 214v2q0 102 -69 158.5t-194 56.5zM716 658h-311v-475h324
q309 0 309 238v2q0 235 -322 235z" />
    <glyph glyph-name="C" unicode="C" horiz-adv-x="1485" 
d="M773 -35q-200 0 -346.5 92t-225.5 261t-79 402v2q0 233 79 402.5t225 261.5t346 92q159 0 288 -62t211 -172t101 -254l-1 -5h-222v3q-32 133 -133 212.5t-244 79.5q-194 0 -307.5 -150.5t-113.5 -407.5v-2q0 -257 113.5 -407t308.5 -150q144 0 244.5 71.5t130.5 193.5
l2 4h222v-6q-21 -139 -102 -242.5t-208.5 -161t-288.5 -57.5z" />
    <glyph glyph-name="D" unicode="D" horiz-adv-x="1503" 
d="M181 0v1443h521q321 0 500 -188.5t179 -528.5v-2q0 -344 -178 -534t-501 -190h-521zM405 193h272q227 0 351.5 138.5t124.5 389.5v2q0 249 -126 388t-350 139h-272v-1057z" />
    <glyph glyph-name="E" unicode="E" horiz-adv-x="1239" 
d="M181 0v1443h916v-193h-692v-422h655v-186h-655v-449h692v-193h-916z" />
    <glyph glyph-name="F" unicode="F" horiz-adv-x="1191" 
d="M181 0v1443h901v-193h-677v-457h620v-189h-620v-604h-224z" />
    <glyph glyph-name="G" unicode="G" horiz-adv-x="1539" 
d="M789 -35q-204 0 -354 92.5t-231.5 262t-81.5 401.5v2q0 229 82 398.5t231.5 263t351.5 93.5q164 0 292.5 -58t211.5 -162.5t109 -244.5l2 -10h-224l-3 10q-39 128 -139.5 197.5t-248.5 69.5q-133 0 -231 -68.5t-151.5 -193t-53.5 -294.5v-2q0 -258 119 -408.5t322 -150.5
q118 0 207.5 46.5t140 130t51.5 194.5v32h-371v181h592v-179q0 -183 -77 -318.5t-217 -210t-329 -74.5z" />
    <glyph glyph-name="H" unicode="H" horiz-adv-x="1550" 
d="M181 0v1443h224v-610h741v610h223v-1443h-223v639h-741v-639h-224z" />
    <glyph glyph-name="I" unicode="I" horiz-adv-x="585" 
d="M181 0v1443h224v-1443h-224z" />
    <glyph glyph-name="J" unicode="J" horiz-adv-x="1148" 
d="M518 -35q-200 0 -313 110t-122 283l-1 12h221l1 -9q6 -82 58.5 -139t153.5 -57q111 0 169.5 65t58.5 188v1025h224v-1027q0 -213 -118.5 -332t-331.5 -119z" />
    <glyph glyph-name="uni212A" unicode="&#x212a;" horiz-adv-x="1386" 
d="M181 0v1443h224v-682h16l597 682h265l-558 -626l606 -817h-280l-484 665l-162 -184v-481h-224z" />
    <glyph glyph-name="uni212A" unicode="K" horiz-adv-x="1386" 
d="M181 0v1443h224v-682h16l597 682h265l-558 -626l606 -817h-280l-484 665l-162 -184v-481h-224z" />
    <glyph glyph-name="L" unicode="L" horiz-adv-x="1183" 
d="M181 0v1443h224v-1250h676v-193h-900z" />
    <glyph glyph-name="M" unicode="M" horiz-adv-x="1814" 
d="M181 0v1443h258l460 -1151h16l460 1151h258v-1443h-204v1059h-15l-424 -1059h-166l-423 1059h-16v-1059h-204z" />
    <glyph glyph-name="N" unicode="N" horiz-adv-x="1539" 
d="M181 0v1443h202l742 -1050h15v1050h218v-1443h-202l-741 1048h-16v-1048h-218z" />
    <glyph glyph-name="O" unicode="O" horiz-adv-x="1591" 
d="M796 -35q-210 0 -361 92.5t-232 262.5t-81 401v2q0 232 82 401.5t233.5 261.5t358.5 92t358 -92t233 -261.5t82 -401.5v-2q0 -231 -81.5 -401t-232.5 -262.5t-359 -92.5zM796 163q137 0 236.5 69t153.5 194.5t54 294.5v2q0 170 -54 295t-154 193.5t-236 68.5
q-137 0 -237 -68.5t-154 -193.5t-54 -295v-2q0 -169 53 -294.5t153 -194.5t239 -69z" />
    <glyph glyph-name="P" unicode="P" horiz-adv-x="1329" 
d="M181 0v1443h562q141 0 249 -59.5t169 -166t61 -247.5v-2q0 -141 -61 -248t-169 -167t-249 -60h-338v-493h-224zM687 1254h-282v-573h282q146 0 226.5 75t80.5 211v2q0 135 -80.5 210t-226.5 75z" />
    <glyph glyph-name="Q" unicode="Q" horiz-adv-x="1591" 
d="M796 -35q-210 0 -361 92.5t-232 262.5t-81 401v2q0 232 82 401.5t233.5 261.5t358.5 92t358 -92t233 -261.5t82 -401.5v-2q0 -206 -65 -363.5t-185 -254.5l190 -259h-231l-122 166q-118 -45 -260 -45zM796 163q71 0 133 20l-186 252h231l115 -156q72 73 111.5 185.5
t39.5 256.5v2q0 170 -54 295t-154 193.5t-236 68.5q-137 0 -237 -68.5t-154 -193.5t-54 -295v-2q0 -169 53 -294.5t153 -194.5t239 -69z" />
    <glyph glyph-name="R" unicode="R" horiz-adv-x="1368" 
d="M181 0v1443h569q222 0 351 -119.5t129 -320.5v-2q0 -146 -74 -256.5t-206 -154.5l324 -590h-259l-294 555h-316v-555h-224zM405 737h323q129 0 200.5 67.5t71.5 190.5v2q0 120 -74.5 189t-204.5 69h-316v-518z" />
    <glyph glyph-name="S" unicode="S" horiz-adv-x="1333" 
d="M669 -35q-163 0 -284 51.5t-191 143.5t-80 213l-1 13h220l1 -11q9 -98 104 -156.5t240 -58.5q138 0 226.5 63t88.5 163v1q0 83 -63 138t-206 86l-158 34q-219 47 -319 149t-100 262v1q0 124 67 219t185 148.5t271 53.5t267 -52.5t180.5 -142.5t74.5 -202l1 -14h-217
l-2 13q-15 89 -95.5 146.5t-211.5 56.5q-127 0 -210.5 -56.5t-83.5 -158.5v-1q0 -80 61.5 -133.5t201.5 -83.5l157 -35q227 -49 327 -144.5t100 -256.5v-1q0 -138 -68 -238.5t-191.5 -155t-291.5 -54.5z" />
    <glyph glyph-name="T" unicode="T" horiz-adv-x="1317" 
d="M547 0v1250h-454v193h1131v-193h-453v-1250h-224z" />
    <glyph glyph-name="U" unicode="U" horiz-adv-x="1527" 
d="M764 -35q-181 0 -312 67t-202 186.5t-71 278.5v946h224v-929q0 -157 94.5 -254t266.5 -97q173 0 266.5 97t93.5 254v929h224v-946q0 -159 -70.5 -278.5t-201 -186.5t-312.5 -67z" />
    <glyph glyph-name="V" unicode="V" horiz-adv-x="1415" 
d="M584 0l-514 1443h243l386 -1173h17l386 1173h243l-514 -1443h-247z" />
    <glyph glyph-name="W" unicode="W" horiz-adv-x="2013" 
d="M478 0l-389 1443h233l265 -1122h14l301 1122h208l303 -1122h14l264 1122h233l-390 -1443h-211l-310 1079h-14l-309 -1079h-212z" />
    <glyph glyph-name="X" unicode="X" horiz-adv-x="1427" 
d="M88 0l480 726v3l-475 714h267l357 -559h10l358 559h252l-489 -721v-4l480 -718h-262l-360 551h-8l-362 -551h-248z" />
    <glyph glyph-name="Y" unicode="Y" horiz-adv-x="1381" 
d="M578 0v591l-508 852h249l363 -629h17l363 629h249l-509 -852v-591h-224z" />
    <glyph glyph-name="Z" unicode="Z" horiz-adv-x="1365" 
d="M141 0v153l784 1080v17h-760v193h1041v-153l-780 -1080v-17h799v-193h-1084z" />
    <glyph glyph-name="bracketleft" unicode="[" horiz-adv-x="817" 
d="M262 -362v1874h477v-165h-268v-1544h268v-165h-477z" />
    <glyph glyph-name="backslash" unicode="\" horiz-adv-x="646" 
d="M204 1512l441 -1874h-204l-441 1874h204z" />
    <glyph glyph-name="bracketright" unicode="]" horiz-adv-x="817" 
d="M555 -362h-478v165h269v1544h-269v165h478v-1874z" />
    <glyph glyph-name="asciicircum" unicode="^" horiz-adv-x="1321" 
d="M336 799h-220l445 644h198l446 -644h-220l-325 482z" />
    <glyph glyph-name="underscore" unicode="_" horiz-adv-x="1227" 
d="M0 -298v198h1227v-198h-1227z" />
    <glyph glyph-name="grave" unicode="`" horiz-adv-x="1024" 
d="M543 1236l-233 344h231l174 -344h-172z" />
    <glyph glyph-name="a" unicode="a" horiz-adv-x="1158" 
d="M454 -18q-104 0 -185 39.5t-128 112.5t-47 171v2q0 146 105.5 228.5t299.5 94.5l294 17v96q0 185 -222 185q-184 0 -225 -121l-1 -4h-209l1 7q20 134 139.5 215.5t304.5 81.5q205 0 316 -96.5t111 -267.5v-743h-215v154h-17q-48 -83 -131 -127.5t-191 -44.5zM310 314
q0 -75 57.5 -117t144.5 -42q121 0 201 70.5t80 175.5v93l-265 -17q-112 -7 -165 -47.5t-53 -113.5v-2z" />
    <glyph glyph-name="b" unicode="b" horiz-adv-x="1285" 
d="M733 -18q-114 0 -200 50t-134 139h-16v-171h-217v1512h217v-598h16q44 88 133 139.5t201 51.5q138 0 239 -68.5t156 -194.5t55 -298v-2q0 -171 -55.5 -296.5t-156.5 -194.5t-238 -69zM672 167q136 0 213 100t77 275v2q0 175 -77 275t-213 100t-214.5 -100.5t-78.5 -274.5
v-2q0 -174 78.5 -274.5t214.5 -100.5z" />
    <glyph glyph-name="c" unicode="c" horiz-adv-x="1167" 
d="M613 -21q-238 0 -374.5 151.5t-136.5 415.5v2q0 258 136 408.5t374 150.5q205 0 324 -103.5t142 -261.5v-5l-208 -1l-1 3q-18 80 -83 133.5t-173 53.5q-136 0 -213 -101t-77 -277v-2q0 -180 78 -283t212 -103q202 0 255 179l2 5h208l-2 -9q-29 -158 -145 -257t-318 -99z
" />
    <glyph glyph-name="d" unicode="d" horiz-adv-x="1285" 
d="M552 -18q-137 0 -238 69t-156.5 194.5t-55.5 296.5v2q0 172 55 298t156 194.5t239 68.5q112 0 201.5 -51.5t132.5 -139.5h17v598h216v-1512h-216v171h-17q-47 -89 -133.5 -139t-200.5 -50zM614 167q135 0 213.5 100.5t78.5 274.5v2q0 174 -78.5 274.5t-213.5 100.5
q-136 0 -213.5 -100t-77.5 -275v-2q0 -175 77 -275t214 -100z" />
    <glyph glyph-name="e" unicode="e" horiz-adv-x="1192" 
d="M612 -21q-159 0 -273 69t-175.5 194.5t-61.5 297.5v1q0 170 61.5 297t173.5 198t264 71q151 0 260.5 -68.5t169 -191t59.5 -285.5v-76h-770q3 -156 83 -242.5t214 -86.5q104 0 166.5 41.5t81.5 83.5l4 8l209 1l-2 -9q-18 -72 -74.5 -141.5t-153.5 -115.5t-236 -46z
M602 929q-111 0 -188 -74t-91 -214h552q-13 146 -87.5 217t-185.5 71z" />
    <glyph glyph-name="f" unicode="f" horiz-adv-x="775" 
d="M233 0v915h-179v171h179v114q0 322 336 322q71 0 128 -10v-159q-28 5 -83 5q-90 0 -128.5 -43t-38.5 -125v-104h241v-171h-239v-915h-216z" />
    <glyph glyph-name="g" unicode="g" horiz-adv-x="1274" 
d="M615 -383q-207 0 -329.5 83t-142.5 219l2 2h219l1 -2q13 -56 78 -92t175 -36q134 0 209.5 60.5t75.5 171.5v214h-16q-49 -89 -136 -136.5t-199 -47.5q-140 0 -241 66.5t-155.5 184t-54.5 270.5v2q0 155 55 274.5t157 187t243 67.5q114 0 200 -52.5t133 -144.5h13v178h216
v-1064q0 -186 -136 -295.5t-367 -109.5zM612 232q138 0 216.5 95.5t78.5 247.5v2q0 151 -79 247.5t-216 96.5q-139 0 -214 -96.5t-75 -247.5v-2q0 -152 75 -247.5t214 -95.5z" />
    <glyph glyph-name="h" unicode="h" horiz-adv-x="1237" 
d="M166 0v1512h217v-591h16q40 87 118 136.5t197 49.5q182 0 279.5 -105t97.5 -299v-703h-216v652q0 269 -234 269q-119 0 -188.5 -76.5t-69.5 -207.5v-637h-217z" />
    <glyph glyph-name="i" unicode="i" horiz-adv-x="536" 
d="M269 1280q-56 0 -96 39.5t-40 95.5t40 96t96 40t96 -40t40 -96t-40 -95.5t-96 -39.5zM160 0v1086h216v-1086h-216z" />
    <glyph glyph-name="j" unicode="j" horiz-adv-x="535" 
d="M267 1280q-56 0 -96 39.5t-40 95.5t40 96t96 40t96 -40t40 -96t-40 -95.5t-96 -39.5zM23 -372q-12 0 -25 0.5t-23 0.5v178h30q83 0 118.5 32.5t35.5 114.5v1132h216v-1133q0 -167 -87.5 -246t-264.5 -79z" />
    <glyph glyph-name="k" unicode="k" horiz-adv-x="1155" 
d="M166 0v1512h217v-884h16l431 458h254l-453 -458l483 -628h-264l-374 488l-93 -93v-395h-217z" />
    <glyph glyph-name="l" unicode="l" horiz-adv-x="549" 
d="M166 0v1512h217v-1512h-217z" />
    <glyph glyph-name="m" unicode="m" horiz-adv-x="1828" 
d="M156 0v1086h217v-167h16q36 90 113 139t183 49q111 0 188 -53t113 -141h17q41 88 129.5 141t201.5 53q164 0 255.5 -94t91.5 -264v-749h-216v697q0 224 -210 224q-104 0 -166.5 -68t-62.5 -166v-687h-216v719q0 93 -56.5 147.5t-152.5 54.5q-98 0 -163 -73.5t-65 -180.5
v-667h-217z" />
    <glyph glyph-name="n" unicode="n" horiz-adv-x="1227" 
d="M156 0v1086h217v-165h16q40 87 118 136.5t197 49.5q182 0 279.5 -105t97.5 -299v-703h-216v652q0 269 -234 269q-119 0 -188.5 -76.5t-69.5 -207.5v-637h-217z" />
    <glyph glyph-name="o" unicode="o" horiz-adv-x="1231" 
d="M616 -21q-239 0 -376.5 150.5t-137.5 412.5v2q0 262 138 412.5t376 150.5t375.5 -150.5t137.5 -412.5v-2q0 -262 -137 -412.5t-376 -150.5zM616 160q140 0 216 101t76 281v2q0 181 -76.5 281.5t-215.5 100.5q-140 0 -216 -100.5t-76 -281.5v-2q0 -180 76 -281t216 -101z
" />
    <glyph glyph-name="p" unicode="p" horiz-adv-x="1277" 
d="M156 -362v1448h217v-171h16q48 89 134 139.5t200 50.5q137 0 238 -69t156.5 -195t55.5 -297v-2q0 -172 -55 -297.5t-156 -194t-239 -68.5q-112 0 -201 51.5t-133 138.5h-16v-534h-217zM662 167q136 0 213 100t77 275v2q0 175 -77 275t-213 100t-214.5 -100.5
t-78.5 -274.5v-2q0 -174 78.5 -274.5t214.5 -100.5z" />
    <glyph glyph-name="q" unicode="q" horiz-adv-x="1276" 
d="M905 -362v526h-17q-43 -86 -130.5 -134t-204.5 -48q-137 0 -238 69t-156.5 194.5t-55.5 296.5v2q0 172 55 298t156.5 194.5t240.5 68.5q110 0 199 -53.5t138 -145.5h13v180h216v-1448h-216zM616 167q135 0 214 101t79 274v2q0 173 -79.5 274t-214.5 101
q-136 0 -213.5 -100t-77.5 -275v-2q0 -175 77.5 -275t214.5 -100z" />
    <glyph glyph-name="r" unicode="r" horiz-adv-x="820" 
d="M156 0v1086h217v-164h16q30 87 103 135t182 48q26 0 52.5 -3t42.5 -7v-200q-29 6 -58 9.5t-59 3.5q-125 0 -202 -70.5t-77 -188.5v-649h-217z" />
    <glyph glyph-name="s" unicode="s" horiz-adv-x="1104" 
d="M551 -21q-196 0 -315 84t-134 221v1h217l1 -1q20 -62 79 -99.5t156 -37.5q100 0 163.5 41.5t63.5 108.5v2q0 51 -41.5 86t-135.5 57l-173 40q-153 35 -226.5 107.5t-73.5 191.5v1q0 94 54 167.5t149.5 115.5t218.5 42q186 0 298.5 -84t127.5 -217v-1h-207v2
q-16 57 -72 95t-148 38q-89 0 -147 -40.5t-58 -105.5v-2q0 -51 40 -84t132 -55l172 -39q157 -37 233 -107t76 -188v-2q0 -101 -59 -177t-160.5 -118.5t-230.5 -42.5z" />
    <glyph glyph-name="t" unicode="t" horiz-adv-x="780" 
d="M566 -7q-179 0 -258 68t-79 225v629h-170v171h170v274h221v-274h233v-171h-233v-577q0 -87 35 -126t116 -39q25 0 42 1t40 3v-173q-26 -4 -56 -7.5t-61 -3.5z" />
    <glyph glyph-name="u" unicode="u" horiz-adv-x="1227" 
d="M518 -21q-184 0 -278 105.5t-94 298.5v703h217v-652q0 -135 53 -202t172 -67q130 0 198.5 76.5t68.5 207.5v637h216v-1086h-216v164h-17q-39 -87 -120.5 -136t-199.5 -49z" />
    <glyph glyph-name="v" unicode="v" horiz-adv-x="1140" 
d="M455 0l-393 1086h230l271 -866h17l270 866h228l-392 -1086h-231z" />
    <glyph glyph-name="w" unicode="w" horiz-adv-x="1640" 
d="M365 0l-300 1086h218l195 -838h16l224 838h206l224 -838h17l194 838h215l-299 -1086h-223l-225 810h-17l-224 -810h-221z" />
    <glyph glyph-name="x" unicode="x" horiz-adv-x="1115" 
d="M72 0l361 541l-364 545h251l234 -388h17l232 388h240l-359 -536l363 -550h-247l-238 392h-16l-238 -392h-236z" />
    <glyph glyph-name="y" unicode="y" horiz-adv-x="1152" 
d="M262 -382q-45 0 -87 5v171q16 -3 35.5 -3.5t37.5 -0.5q76 0 123 35.5t71 117.5l16 56l-394 1087h234l272 -868h19l271 868h228l-404 -1128q-46 -130 -102 -204t-133 -105t-187 -31z" />
    <glyph glyph-name="z" unicode="z" horiz-adv-x="1124" 
d="M131 0v141l600 757v17h-596v171h852v-149l-587 -749v-17h593v-171h-862z" />
    <glyph glyph-name="braceleft" unicode="{" horiz-adv-x="817" 
d="M677 -362q-193 0 -283.5 86.5t-90.5 269.5v262q0 117 -50 163t-176 47v222q126 0 176 46.5t50 162.5v260q0 183 90.5 269t283.5 86h62v-167h-41q-102 0 -146 -49.5t-44 -164.5v-301q0 -215 -234 -240v-27q234 -24 234 -239v-305q0 -115 44 -164.5t146 -49.5h41v-167h-62z
" />
    <glyph glyph-name="bar" unicode="|" horiz-adv-x="560" 
d="M181 -362v1805h198v-1805h-198z" />
    <glyph glyph-name="braceright" unicode="}" horiz-adv-x="817" 
d="M139 -362h-62v167h42q101 0 145 49.5t44 164.5v305q0 215 235 239v27q-235 25 -235 240v301q0 115 -43.5 164.5t-145.5 49.5h-42v167h62q194 0 284 -86t90 -269v-260q0 -116 50.5 -162.5t175.5 -46.5v-222q-125 -1 -175.5 -47t-50.5 -163v-262q0 -183 -90.5 -269.5
t-283.5 -86.5z" />
    <glyph glyph-name="asciitilde" unicode="~" horiz-adv-x="1321" 
d="M900 411q-68 0 -131 24t-123.5 55.5t-119.5 56t-118 24.5q-92 0 -160 -34.5t-116 -88.5v192q47 51 118 85.5t171 34.5q67 0 130.5 -24t124 -55.5t119.5 -56t118 -24.5q92 0 160 34.5t116 88.5v-192q-48 -51 -119 -85.5t-170 -34.5z" />
    <glyph glyph-name="uni00A0" unicode="&#xa0;" horiz-adv-x="559" 
 />
    <glyph glyph-name="exclamdown" unicode="&#xa1;" horiz-adv-x="670" 
d="M335 1108q69 0 111.5 -41t42.5 -108t-42.5 -108.5t-111.5 -41.5q-70 0 -112 41.5t-42 108.5t42 108t112 41zM437 608l20 -966h-243l20 966h203z" />
    <glyph glyph-name="cent" unicode="&#xa2;" horiz-adv-x="1321" 
d="M628 0v171q-207 21 -330.5 165.5t-123.5 384.5v2q0 236 123.5 383t330.5 167v169h118v-169q126 -11 217 -65.5t143.5 -138.5t61.5 -182l-2 -1l-203 -1l-1 2q-15 79 -69 135t-147 70v-740q181 24 215 199l2 1l205 1l1 -2q-17 -159 -131.5 -262.5t-291.5 -118.5v-170h-118z
M392 721q0 -161 64 -253t172 -113v734q-109 -21 -172.5 -114.5t-63.5 -251.5v-2z" />
    <glyph glyph-name="sterling" unicode="&#xa3;" horiz-adv-x="1321" 
d="M117 30v179q136 29 216.5 114t80.5 202q0 35 -6 67t-15 63h-276v140h222q-19 48 -33.5 98t-14.5 108q0 196 141 308.5t387 112.5q90 0 172.5 -14.5t135.5 -38.5v-186q-43 22 -124 37t-163 15q-152 0 -238.5 -64.5t-86.5 -179.5q0 -55 13.5 -103t31.5 -93h468v-140h-416
q7 -28 12 -58t5 -63q0 -202 -192 -306v-13h759v-185h-1079z" />
    <glyph glyph-name="currency" unicode="&#xa4;" horiz-adv-x="1321" 
d="M1078 722v-1q0 -126 -67 -229l199 -199l-122 -121l-198 198q-103 -67 -229 -67h-2q-126 0 -229 67l-198 -198l-122 121l199 199q-67 103 -67 229v1q0 126 67 229l-199 199l122 121l198 -198q103 67 229 67h2q126 0 229 -67l198 198l122 -121l-199 -199q67 -103 67 -229z
M923 722q0 74 -35 133.5t-94.5 94.5t-133.5 35h-2q-73 0 -132.5 -35t-94.5 -94.5t-35 -133.5v-2q0 -74 35 -133.5t94.5 -94.5t132.5 -35h2q74 0 133.5 35t94.5 94.5t35 133.5v2z" />
    <glyph glyph-name="yen" unicode="&#xa5;" horiz-adv-x="1321" 
d="M210 287v118h340v154h-340v118h283l-438 736h244l358 -638h8l358 638h243l-438 -736h282v-118h-339v-154h339v-118h-339v-257h-221v257h-340z" />
    <glyph glyph-name="brokenbar" unicode="&#xa6;" horiz-adv-x="560" 
d="M379 1444v-722h-198v722h198zM181 -362v722h198v-722h-198z" />
    <glyph glyph-name="section" unicode="&#xa7;" horiz-adv-x="1279" 
d="M642 -264q-122 0 -217.5 39.5t-153.5 109.5t-67 162l-1 11h211l1 -6q12 -68 77 -109t158 -41q99 0 160.5 45t61.5 117v2q0 57 -46.5 94t-146.5 63l-158 43q-170 46 -248 121t-78 184v2q0 96 63 169.5t165 105.5v14q-220 94 -220 278v3q0 100 55 174.5t152.5 116
t227.5 41.5q178 0 293.5 -81t135.5 -217l2 -12h-209l-1 6q-11 63 -72 100.5t-152 37.5q-96 0 -156.5 -43.5t-60.5 -113.5v-3q0 -56 43.5 -93t138.5 -63l159 -43q171 -46 249.5 -118.5t78.5 -179.5v-2q0 -102 -63.5 -176t-167.5 -106v-14q227 -94 227 -278v-2
q0 -100 -56 -176t-155.5 -119t-229.5 -43zM576 439l96 -26q94 14 148.5 64.5t54.5 126.5v2q0 124 -172 170l-96 27q-94 -15 -148 -65t-54 -127v-2q0 -63 44 -104.5t127 -65.5z" />
    <glyph glyph-name="dieresis" unicode="&#xa8;" horiz-adv-x="1024" 
d="M283 1288q-51 0 -88 36.5t-37 88.5q0 51 37 87.5t88 36.5t88 -36.5t37 -87.5q0 -52 -37 -88.5t-88 -36.5zM742 1288q-51 0 -88 36.5t-37 88.5q0 51 37 87.5t88 36.5t88 -36.5t37 -87.5q0 -52 -37 -88.5t-88 -36.5z" />
    <glyph glyph-name="copyright" unicode="&#xa9;" horiz-adv-x="1835" 
d="M1713 725v-7q0 -166 -61 -310t-169 -252t-252 -169t-310 -61h-7q-167 0 -310.5 61t-252 169t-169 252t-60.5 310v7q0 166 60.5 310t169 252t252 169t310.5 61h7q166 0 310 -61t252 -169t169 -252t61 -310zM1565 725q0 135 -49.5 252t-137.5 205t-205 137.5t-252 49.5h-7
q-135 0 -252 -49.5t-205.5 -137.5t-137.5 -205t-49 -252v-7q0 -135 49 -252t137.5 -205t205.5 -137.5t252 -49.5h7q135 0 252 49.5t205 137.5t137.5 205t49.5 252v7zM931 346q-165 0 -260 100.5t-95 274.5v1q0 174 95 274.5t259 100.5q135 0 226 -76t102 -193v-7h-156v3
q-12 57 -58.5 93.5t-113.5 36.5q-88 0 -138.5 -62t-50.5 -170v-1q0 -107 50.5 -169.5t139.5 -62.5q67 0 112.5 34t57.5 90l1 5h156v-7q-12 -118 -101.5 -191.5t-225.5 -73.5z" />
    <glyph glyph-name="ordfeminine" unicode="&#xaa;" horiz-adv-x="830" 
d="M319 755q-102 0 -168 55.5t-66 147.5v1q0 91 70 143t199 59l185 10v57q0 99 -136 99q-114 0 -139 -67l-1 -2h-151l1 6q12 87 92 140t206 53q137 0 211 -60.5t74 -168.5v-462h-157v92h-12q-62 -103 -208 -103zM242 967q0 -41 35 -64.5t89 -23.5q74 0 123.5 38.5t49.5 96.5
v53l-163 -10q-134 -8 -134 -89v-1z" />
    <glyph glyph-name="guillemotleft" unicode="&#xab;" horiz-adv-x="1382" 
d="M519 147l-348 414v8l350 415h228l-349 -411v-15l349 -411h-230zM981 147l-348 414v8l350 415h228l-349 -411v-15l349 -411h-230z" />
    <glyph glyph-name="logicalnot" unicode="&#xac;" horiz-adv-x="1321" 
d="M132 482v199h1057v-643h-199v444h-858z" />
    <glyph glyph-name="registered" unicode="&#xae;" horiz-adv-x="1436" 
d="M1314 886v-7q0 -125 -45.5 -232.5t-126.5 -188.5t-188.5 -126.5t-231.5 -45.5h-7q-125 0 -232.5 45.5t-188.5 126.5t-126.5 188.5t-45.5 232.5v7q0 124 45.5 231.5t126.5 188.5t188.5 126.5t232.5 45.5h7q124 0 231.5 -45.5t188.5 -126.5t126.5 -188.5t45.5 -231.5z
M1173 886q0 126 -60 228.5t-162.5 162.5t-228.5 60h-7q-127 0 -229.5 -60t-162.5 -162.5t-60 -228.5v-7q0 -127 60 -229.5t162.5 -162.5t229.5 -60h7q126 0 228.5 60t162.5 162.5t60 229.5v7zM473 582v600h272q115 0 176 -53t61 -148v-1q0 -54 -28.5 -100.5t-81.5 -68.5
l129 -229h-173l-111 204h-90v-204h-154zM627 899h100q46 0 71.5 21.5t25.5 57.5v1q0 35 -26 57t-71 22h-100v-159z" />
    <glyph glyph-name="macron" unicode="&#xaf;" horiz-adv-x="1024" 
d="M172 1337v150h680v-150h-680z" />
    <glyph glyph-name="degree" unicode="&#xb0;" horiz-adv-x="975" 
d="M488 709q-102 0 -181.5 47t-125 126.5t-45.5 176.5v2q0 97 45.5 176.5t125 126.5t181.5 47q101 0 180.5 -47t125.5 -126.5t46 -176.5v-2q0 -97 -46 -176.5t-125.5 -126.5t-180.5 -47zM488 875q79 0 127.5 54t48.5 130v2q0 77 -49 130.5t-127 53.5q-80 0 -128.5 -53.5
t-48.5 -130.5v-2q0 -76 48 -130t129 -54z" />
    <glyph glyph-name="plusminus" unicode="&#xb1;" horiz-adv-x="1321" 
d="M563 228v359h-398v199h398v358h195v-358h398v-199h-398v-359h-195zM165 19v171h991v-171h-991z" />
    <glyph glyph-name="uni00B2" unicode="&#xb2;" horiz-adv-x="731" 
d="M88 766v115l256 230q83 77 111.5 115t28.5 75v2q0 45 -33 73.5t-90 28.5q-59 0 -96 -31.5t-37 -82.5v-4l-149 1v3q0 110 80.5 178t209.5 68q120 0 197 -61t77 -159v-2q0 -64 -41 -126.5t-149 -155.5l-149 -125v-6h351v-136h-567z" />
    <glyph glyph-name="uni00B3" unicode="&#xb3;" horiz-adv-x="759" 
d="M382 748q-134 0 -216 63.5t-90 166.5l-1 7h154l1 -6q6 -41 46 -67.5t106 -26.5q64 0 103 28.5t39 74.5v1q0 50 -41 76.5t-114 26.5h-91v120h89q63 0 101 26.5t38 69.5v1q0 44 -33 69.5t-93 25.5q-59 0 -96.5 -26.5t-42.5 -70.5v-5h-148v7q9 102 86 163.5t201 61.5
q127 0 203 -56t76 -146v-1q0 -71 -48 -115t-118 -57v-4q88 -8 141 -53.5t53 -121.5v-1q0 -104 -84 -167.5t-221 -63.5z" />
    <glyph glyph-name="acute" unicode="&#xb4;" horiz-adv-x="1024" 
d="M482 1236h-172l174 344h231z" />
    <glyph glyph-name="uni03BC" unicode="&#x3bc;" horiz-adv-x="1296" 
d="M156 -362v1448h217v-651q0 -271 226 -271q118 0 188 77t70 207v638h217v-794q0 -72 21.5 -98t74.5 -26q24 0 50 5v-171q-45 -12 -99 -12q-112 0 -168.5 39.5t-75.5 134.5l-2 13h-17q-35 -97 -98 -147.5t-170 -50.5q-145 0 -201 113h-16v-454h-217z" />
    <glyph glyph-name="uni03BC" unicode="&#xb5;" horiz-adv-x="1296" 
d="M156 -362v1448h217v-651q0 -271 226 -271q118 0 188 77t70 207v638h217v-794q0 -72 21.5 -98t74.5 -26q24 0 50 5v-171q-45 -12 -99 -12q-112 0 -168.5 39.5t-75.5 134.5l-2 13h-17q-35 -97 -98 -147.5t-170 -50.5q-145 0 -201 113h-16v-454h-217z" />
    <glyph glyph-name="paragraph" unicode="&#xb6;" horiz-adv-x="1279" 
d="M569 -233v831h-19q-129 0 -232 54t-163.5 148t-60.5 213v2q0 124 60 220.5t163.5 152t233.5 55.5h203v-1676h-185zM913 -233v1676h185v-1676h-185z" />
    <glyph glyph-name="periodcentered" unicode="&#xb7;" horiz-adv-x="645" 
d="M323 436q-62 0 -104.5 42.5t-42.5 103.5t42.5 103t104.5 42t104 -42t42 -103t-42 -103.5t-104 -42.5z" />
    <glyph glyph-name="cedilla" unicode="&#xb8;" horiz-adv-x="1024" 
d="M470 -494q-84 0 -159 18v123q13 -3 47.5 -8t76.5 -5q45 0 84.5 16t39.5 58v2q0 45 -37.5 61.5t-112.5 16.5h-38v93l98 143h141v-24l-71 -99q96 -2 155 -52t59 -133v-2q0 -110 -84 -159t-199 -49z" />
    <glyph glyph-name="uni00B9" unicode="&#xb9;" horiz-adv-x="569" 
d="M273 766v592h-10l-195 -126v152l205 133h161v-751h-161z" />
    <glyph glyph-name="ordmasculine" unicode="&#xba;" horiz-adv-x="883" 
d="M441 752q-159 0 -250 94t-91 258v1q0 164 91.5 257.5t249.5 93.5q159 0 250.5 -93.5t91.5 -257.5v-1q0 -165 -91 -258.5t-251 -93.5zM441 884q86 0 132.5 58t46.5 162v1q0 103 -47 161.5t-132 58.5t-131.5 -58.5t-46.5 -161.5v-1q0 -104 46 -162t132 -58z" />
    <glyph glyph-name="guillemotright" unicode="&#xbb;" horiz-adv-x="1382" 
d="M863 984l348 -415v-8l-350 -414h-228l350 411v14l-350 412h230zM401 984l348 -415v-8l-349 -414h-229l350 411v14l-350 412h230z" />
    <glyph glyph-name="onequarter" unicode="&#xbc;" horiz-adv-x="1678" 
d="M273 692v592h-10l-195 -126v152l205 133h161v-751h-161zM416 0h-187l978 1443h187zM1353 0v133h-388v133q75 126 155.5 248t159.5 237h226v-482h104v-136h-104v-133h-153zM1110 264h246v360h-9q-59 -82 -120.5 -172.5t-116.5 -178.5v-9z" />
    <glyph glyph-name="onehalf" unicode="&#xbd;" horiz-adv-x="1749" 
d="M273 692v592h-10l-195 -126v152l205 133h161v-751h-161zM416 0h-187l978 1443h187zM1106 0v115l256 230q83 77 111.5 115t28.5 75v2q0 45 -33 73.5t-90 28.5q-59 0 -96 -31.5t-37 -82.5v-4l-149 1v3q0 110 80.5 178t209.5 68q120 0 197 -61t77 -159v-2q0 -64 -41 -126.5
t-149 -155.5l-149 -125v-6h351v-136h-567z" />
    <glyph glyph-name="threequarters" unicode="&#xbe;" horiz-adv-x="1879" 
d="M382 674q-134 0 -216 63.5t-90 166.5l-1 7h154l1 -6q6 -41 46 -67.5t106 -26.5q64 0 103 28.5t39 74.5v1q0 50 -41 76.5t-114 26.5h-91v120h89q63 0 101 26.5t38 69.5v1q0 44 -33 69.5t-93 25.5q-59 0 -96.5 -26.5t-42.5 -70.5v-5h-148v7q9 102 86 163.5t201 61.5
q127 0 203 -56t76 -146v-1q0 -71 -48 -115t-118 -57v-4q88 -8 141 -53.5t53 -121.5v-1q0 -104 -84 -167.5t-221 -63.5zM606 0h-187l978 1443h187zM1554 0v133h-388v133q75 126 155.5 248t159.5 237h226v-482h104v-136h-104v-133h-153zM1311 264h246v360h-9
q-59 -82 -120.5 -172.5t-116.5 -178.5v-9z" />
    <glyph glyph-name="questiondown" unicode="&#xbf;" horiz-adv-x="1083" 
d="M575 1108q69 0 111.5 -41t42.5 -108t-42.5 -108.5t-111.5 -41.5t-111.5 41.5t-42.5 108.5t42.5 108t111.5 41zM691 638l1 -80q4 -106 -43 -178.5t-150 -134.5q-91 -54 -127.5 -105t-36.5 -127v-2q0 -85 61.5 -140.5t163.5 -55.5q104 0 166.5 58t68.5 157h2l207 1v-2
q-5 -113 -57.5 -203t-152 -142t-244.5 -52q-132 0 -232 48t-155.5 131.5t-55.5 190.5v2q0 115 56 198.5t155 142.5q97 57 131.5 106t34.5 126v61h207z" />
    <glyph glyph-name="Agrave" unicode="&#xc0;" horiz-adv-x="1423" 
d="M70 0l521 1443h242l521 -1443h-236l-130 390h-552l-131 -390h-235zM703 1190l-207 -620h432l-208 620h-17zM645 1587l-226 329h226l167 -329h-167z" />
    <glyph glyph-name="Aacute" unicode="&#xc1;" horiz-adv-x="1423" 
d="M70 0l521 1443h242l521 -1443h-236l-130 390h-552l-131 -390h-235zM703 1190l-207 -620h432l-208 620h-17zM785 1587h-167l167 329h226z" />
    <glyph glyph-name="Acircumflex" unicode="&#xc2;" horiz-adv-x="1423" 
d="M70 0l521 1443h242l521 -1443h-236l-130 390h-552l-131 -390h-235zM703 1190l-207 -620h432l-208 620h-17zM357 1587l237 328h236l237 -328h-203l-144 208h-16l-144 -208h-203z" />
    <glyph glyph-name="Atilde" unicode="&#xc3;" horiz-adv-x="1423" 
d="M70 0l521 1443h242l521 -1443h-236l-130 390h-552l-131 -390h-235zM703 1190l-207 -620h432l-208 620h-17zM856 1593q-54 0 -95 22t-81 60l-14 12q-26 25 -43.5 33.5t-37.5 8.5q-72 0 -72 -135v-3h-150v8q0 127 54 202t150 75q53 0 94.5 -22.5t81.5 -59.5l14 -13
q26 -25 43.5 -33.5t37.5 -8.5q72 0 72 135v3h150v-8q0 -127 -54 -201.5t-150 -74.5z" />
    <glyph glyph-name="Adieresis" unicode="&#xc4;" horiz-adv-x="1423" 
d="M70 0l521 1443h242l521 -1443h-236l-130 390h-552l-131 -390h-235zM703 1190l-207 -620h432l-208 620h-17zM492 1633q-51 0 -87 36t-36 87q0 50 36 86t87 36q50 0 86 -36t36 -86q0 -51 -36 -87t-86 -36zM933 1633q-51 0 -87 36t-36 87q0 50 36 86t87 36q50 0 86 -36
t36 -86q0 -51 -36 -87t-86 -36z" />
    <glyph glyph-name="uni212B" unicode="&#x212b;" horiz-adv-x="1423" 
d="M70 0l521 1443h242l521 -1443h-236l-130 390h-552l-131 -390h-235zM703 1190l-207 -620h432l-208 620h-17zM715 1544q-89 0 -152 60t-63 147v1q0 87 63 147t152 60t152 -60t63 -147v-1q0 -87 -63 -147t-152 -60zM715 1650q44 0 75 29.5t31 71.5v1q0 43 -31 72t-75 29
t-74.5 -29t-30.5 -72v-1q0 -42 30.5 -71.5t74.5 -29.5z" />
    <glyph glyph-name="uni212B" unicode="&#xc5;" horiz-adv-x="1423" 
d="M70 0l521 1443h242l521 -1443h-236l-130 390h-552l-131 -390h-235zM703 1190l-207 -620h432l-208 620h-17zM715 1544q-89 0 -152 60t-63 147v1q0 87 63 147t152 60t152 -60t63 -147v-1q0 -87 -63 -147t-152 -60zM715 1650q44 0 75 29.5t31 71.5v1q0 43 -31 72t-75 29
t-74.5 -29t-30.5 -72v-1q0 -42 30.5 -71.5t74.5 -29.5z" />
    <glyph glyph-name="AE" unicode="&#xc6;" horiz-adv-x="1999" 
d="M70 0l631 1443h1156v-193h-655v-430h618v-186h-618v-441h655v-193h-870v428h-506l-187 -428h-224zM847 1263l-287 -656h427v656h-140z" />
    <glyph glyph-name="Ccedilla" unicode="&#xc7;" horiz-adv-x="1485" 
d="M773 -35q-200 0 -346.5 92t-225.5 261t-79 402v2q0 233 79 402.5t225 261.5t346 92q159 0 288 -62t211 -172t101 -254l-1 -5h-222v3q-32 133 -133 212.5t-244 79.5q-194 0 -307.5 -150.5t-113.5 -407.5v-2q0 -257 113.5 -407t308.5 -150q144 0 244.5 71.5t130.5 193.5
l2 4h222v-6q-21 -139 -102 -242.5t-208.5 -161t-288.5 -57.5zM731 -494q-81 0 -159 18v123q13 -3 47.5 -8t76.5 -5q45 0 84.5 16t39.5 58v2q0 45 -37.5 61.5t-112.5 16.5h-38v93l98 143h141v-24l-71 -99q96 -2 155 -52t59 -133v-2q0 -110 -84 -159t-199 -49z" />
    <glyph glyph-name="Egrave" unicode="&#xc8;" horiz-adv-x="1239" 
d="M181 0v1443h916v-193h-692v-422h655v-186h-655v-449h692v-193h-916zM572 1587l-226 329h226l167 -329h-167z" />
    <glyph glyph-name="Eacute" unicode="&#xc9;" horiz-adv-x="1239" 
d="M181 0v1443h916v-193h-692v-422h655v-186h-655v-449h692v-193h-916zM712 1587h-167l167 329h226z" />
    <glyph glyph-name="Ecircumflex" unicode="&#xca;" horiz-adv-x="1239" 
d="M181 0v1443h916v-193h-692v-422h655v-186h-655v-449h692v-193h-916zM284 1587l237 328h236l237 -328h-203l-144 208h-16l-144 -208h-203z" />
    <glyph glyph-name="Edieresis" unicode="&#xcb;" horiz-adv-x="1239" 
d="M181 0v1443h916v-193h-692v-422h655v-186h-655v-449h692v-193h-916zM419 1633q-51 0 -87 36t-36 87q0 50 36 86t87 36q50 0 86 -36t36 -86q0 -51 -36 -87t-86 -36zM860 1633q-51 0 -87 36t-36 87q0 50 36 86t87 36q50 0 86 -36t36 -86q0 -51 -36 -87t-86 -36z" />
    <glyph glyph-name="Igrave" unicode="&#xcc;" horiz-adv-x="585" 
d="M181 0v1443h224v-1443h-224zM226 1587l-226 329h226l167 -329h-167z" />
    <glyph glyph-name="Iacute" unicode="&#xcd;" horiz-adv-x="585" 
d="M181 0v1443h224v-1443h-224zM366 1587h-167l167 329h226z" />
    <glyph glyph-name="Icircumflex" unicode="&#xce;" horiz-adv-x="585" 
d="M181 0v1443h224v-1443h-224zM-62 1587l237 328h236l237 -328h-203l-144 208h-16l-144 -208h-203z" />
    <glyph glyph-name="Idieresis" unicode="&#xcf;" horiz-adv-x="585" 
d="M181 0v1443h224v-1443h-224zM73 1633q-51 0 -87 36t-36 87q0 50 36 86t87 36q50 0 86 -36t36 -86q0 -51 -36 -87t-86 -36zM514 1633q-51 0 -87 36t-36 87q0 50 36 86t87 36q50 0 86 -36t36 -86q0 -51 -36 -87t-86 -36z" />
    <glyph glyph-name="Dcroat" unicode="&#x110;" horiz-adv-x="1563" 
d="M241 0v636h-181v172h181v635h521q321 0 500 -188.5t179 -528.5v-2q0 -344 -178.5 -534t-500.5 -190h-521zM465 193h272q227 0 351.5 138.5t124.5 389.5v2q0 249 -126 388t-350 139h-272v-442h313v-172h-313v-443z" />
    <glyph glyph-name="Dcroat" unicode="&#xd0;" horiz-adv-x="1563" 
d="M241 0v636h-181v172h181v635h521q321 0 500 -188.5t179 -528.5v-2q0 -344 -178.5 -534t-500.5 -190h-521zM465 193h272q227 0 351.5 138.5t124.5 389.5v2q0 249 -126 388t-350 139h-272v-442h313v-172h-313v-443z" />
    <glyph glyph-name="Ntilde" unicode="&#xd1;" horiz-adv-x="1539" 
d="M181 0v1443h202l742 -1050h15v1050h218v-1443h-202l-741 1048h-16v-1048h-218zM914 1593q-54 0 -95 22t-81 60l-14 12q-26 25 -43.5 33.5t-37.5 8.5q-72 0 -72 -135v-3h-150v8q0 127 54 202t150 75q53 0 94.5 -22.5t81.5 -59.5l14 -13q26 -25 43.5 -33.5t37.5 -8.5
q72 0 72 135v3h150v-8q0 -127 -54 -201.5t-150 -74.5z" />
    <glyph glyph-name="Ograve" unicode="&#xd2;" horiz-adv-x="1591" 
d="M796 -35q-210 0 -361 92.5t-232 262.5t-81 401v2q0 232 82 401.5t233.5 261.5t358.5 92t358 -92t233 -261.5t82 -401.5v-2q0 -231 -81.5 -401t-232.5 -262.5t-359 -92.5zM796 163q137 0 236.5 69t153.5 194.5t54 294.5v2q0 170 -54 295t-154 193.5t-236 68.5
q-137 0 -237 -68.5t-154 -193.5t-54 -295v-2q0 -169 53 -294.5t153 -194.5t239 -69zM729 1587l-226 329h226l167 -329h-167z" />
    <glyph glyph-name="Oacute" unicode="&#xd3;" horiz-adv-x="1591" 
d="M796 -35q-210 0 -361 92.5t-232 262.5t-81 401v2q0 232 82 401.5t233.5 261.5t358.5 92t358 -92t233 -261.5t82 -401.5v-2q0 -231 -81.5 -401t-232.5 -262.5t-359 -92.5zM796 163q137 0 236.5 69t153.5 194.5t54 294.5v2q0 170 -54 295t-154 193.5t-236 68.5
q-137 0 -237 -68.5t-154 -193.5t-54 -295v-2q0 -169 53 -294.5t153 -194.5t239 -69zM869 1587h-167l167 329h226z" />
    <glyph glyph-name="Ocircumflex" unicode="&#xd4;" horiz-adv-x="1591" 
d="M796 -35q-210 0 -361 92.5t-232 262.5t-81 401v2q0 232 82 401.5t233.5 261.5t358.5 92t358 -92t233 -261.5t82 -401.5v-2q0 -231 -81.5 -401t-232.5 -262.5t-359 -92.5zM796 163q137 0 236.5 69t153.5 194.5t54 294.5v2q0 170 -54 295t-154 193.5t-236 68.5
q-137 0 -237 -68.5t-154 -193.5t-54 -295v-2q0 -169 53 -294.5t153 -194.5t239 -69zM441 1587l237 328h236l237 -328h-203l-144 208h-16l-144 -208h-203z" />
    <glyph glyph-name="Otilde" unicode="&#xd5;" horiz-adv-x="1591" 
d="M796 -35q-210 0 -361 92.5t-232 262.5t-81 401v2q0 232 82 401.5t233.5 261.5t358.5 92t358 -92t233 -261.5t82 -401.5v-2q0 -231 -81.5 -401t-232.5 -262.5t-359 -92.5zM796 163q137 0 236.5 69t153.5 194.5t54 294.5v2q0 170 -54 295t-154 193.5t-236 68.5
q-137 0 -237 -68.5t-154 -193.5t-54 -295v-2q0 -169 53 -294.5t153 -194.5t239 -69zM940 1593q-54 0 -95 22t-81 60l-14 12q-26 25 -43.5 33.5t-37.5 8.5q-72 0 -72 -135v-3h-150v8q0 127 54 202t150 75q53 0 94.5 -22.5t81.5 -59.5l14 -13q26 -25 43.5 -33.5t37.5 -8.5
q72 0 72 135v3h150v-8q0 -127 -54 -201.5t-150 -74.5z" />
    <glyph glyph-name="Odieresis" unicode="&#xd6;" horiz-adv-x="1591" 
d="M796 -35q-210 0 -361 92.5t-232 262.5t-81 401v2q0 232 82 401.5t233.5 261.5t358.5 92t358 -92t233 -261.5t82 -401.5v-2q0 -231 -81.5 -401t-232.5 -262.5t-359 -92.5zM796 163q137 0 236.5 69t153.5 194.5t54 294.5v2q0 170 -54 295t-154 193.5t-236 68.5
q-137 0 -237 -68.5t-154 -193.5t-54 -295v-2q0 -169 53 -294.5t153 -194.5t239 -69zM576 1633q-51 0 -87 36t-36 87q0 50 36 86t87 36q50 0 86 -36t36 -86q0 -51 -36 -87t-86 -36zM1017 1633q-51 0 -87 36t-36 87q0 50 36 86t87 36q50 0 86 -36t36 -86q0 -51 -36 -87
t-86 -36z" />
    <glyph glyph-name="multiply" unicode="&#xd7;" horiz-adv-x="1321" 
d="M165 956l131 132l364 -373l364 373l132 -132l-365 -375l365 -374l-132 -133l-364 373l-364 -373l-131 133l365 374z" />
    <glyph glyph-name="Oslash" unicode="&#xd8;" horiz-adv-x="1584" 
d="M792 -35q-129 0 -236 36t-189 104l-139 -163l-118 102l151 175q-139 197 -139 502v2q0 232 81.5 401.5t232 261.5t356.5 92q128 0 235 -36t190 -104l140 163l117 -101l-151 -177q67 -95 103 -221.5t36 -278.5v-2q0 -231 -81 -401t-231 -262.5t-358 -92.5zM337 721
q0 -193 70 -330l674 788q-116 105 -289 105q-140 0 -242 -68.5t-157.5 -194.5t-55.5 -297v-3zM792 160q140 0 242 69t157.5 195.5t55.5 296.5v3q0 192 -71 328l-673 -788q116 -104 289 -104z" />
    <glyph glyph-name="Ugrave" unicode="&#xd9;" horiz-adv-x="1527" 
d="M764 -35q-181 0 -312 67t-202 186.5t-71 278.5v946h224v-929q0 -157 94.5 -254t266.5 -97q173 0 266.5 97t93.5 254v929h224v-946q0 -159 -70.5 -278.5t-201 -186.5t-312.5 -67zM696 1587l-226 329h226l167 -329h-167z" />
    <glyph glyph-name="Uacute" unicode="&#xda;" horiz-adv-x="1527" 
d="M764 -35q-181 0 -312 67t-202 186.5t-71 278.5v946h224v-929q0 -157 94.5 -254t266.5 -97q173 0 266.5 97t93.5 254v929h224v-946q0 -159 -70.5 -278.5t-201 -186.5t-312.5 -67zM836 1587h-167l167 329h226z" />
    <glyph glyph-name="Ucircumflex" unicode="&#xdb;" horiz-adv-x="1527" 
d="M764 -35q-181 0 -312 67t-202 186.5t-71 278.5v946h224v-929q0 -157 94.5 -254t266.5 -97q173 0 266.5 97t93.5 254v929h224v-946q0 -159 -70.5 -278.5t-201 -186.5t-312.5 -67zM408 1587l237 328h236l237 -328h-203l-144 208h-16l-144 -208h-203z" />
    <glyph glyph-name="Udieresis" unicode="&#xdc;" horiz-adv-x="1527" 
d="M764 -35q-181 0 -312 67t-202 186.5t-71 278.5v946h224v-929q0 -157 94.5 -254t266.5 -97q173 0 266.5 97t93.5 254v929h224v-946q0 -159 -70.5 -278.5t-201 -186.5t-312.5 -67zM543 1633q-51 0 -87 36t-36 87q0 50 36 86t87 36q50 0 86 -36t36 -86q0 -51 -36 -87
t-86 -36zM984 1633q-51 0 -87 36t-36 87q0 50 36 86t87 36q50 0 86 -36t36 -86q0 -51 -36 -87t-86 -36z" />
    <glyph glyph-name="Yacute" unicode="&#xdd;" horiz-adv-x="1381" 
d="M578 0v591l-508 852h249l363 -629h17l363 629h249l-509 -852v-591h-224zM763 1587h-167l167 329h226z" />
    <glyph glyph-name="Thorn" unicode="&#xde;" horiz-adv-x="1315" 
d="M181 0v1443h224v-255h350q119 0 219.5 -51t161 -147t60.5 -231v-2q0 -135 -62 -231.5t-163.5 -148t-222.5 -51.5h-343v-326h-224zM692 1000h-287v-486h286q121 0 198.5 60.5t77.5 182.5v2q0 121 -77.5 181t-197.5 60z" />
    <glyph glyph-name="germandbls" unicode="&#xdf;" horiz-adv-x="1318" 
d="M749 -19q-94 0 -158 16v181q60 -16 132 -16q135 0 202.5 72.5t67.5 184.5v2q0 115 -80 191t-231 76h-66v173h51q102 0 161.5 68.5t59.5 187.5v2q0 96 -58 164t-165 68q-112 0 -175 -69.5t-63 -193.5v-1088h-214v1107q0 199 123.5 312.5t324.5 113.5q130 0 229.5 -50.5
t156 -140.5t56.5 -209v-2q0 -118 -63.5 -207.5t-153.5 -118.5v-18q145 -14 236.5 -111t91.5 -262v-2q0 -122 -57.5 -220t-162 -154.5t-245.5 -56.5z" />
    <glyph glyph-name="agrave" unicode="&#xe0;" horiz-adv-x="1158" 
d="M454 -18q-104 0 -185 39.5t-128 112.5t-47 171v2q0 146 105.5 228.5t299.5 94.5l294 17v96q0 185 -222 185q-184 0 -225 -121l-1 -4h-209l1 7q20 134 139.5 215.5t304.5 81.5q205 0 316 -96.5t111 -267.5v-743h-215v154h-17q-48 -83 -131 -127.5t-191 -44.5zM310 314
q0 -75 57.5 -117t144.5 -42q121 0 201 70.5t80 175.5v93l-265 -17q-112 -7 -165 -47.5t-53 -113.5v-2zM508 1236l-236 344h232l175 -344h-171z" />
    <glyph glyph-name="aacute" unicode="&#xe1;" horiz-adv-x="1158" 
d="M454 -18q-104 0 -185 39.5t-128 112.5t-47 171v2q0 146 105.5 228.5t299.5 94.5l294 17v96q0 185 -222 185q-184 0 -225 -121l-1 -4h-209l1 7q20 134 139.5 215.5t304.5 81.5q205 0 316 -96.5t111 -267.5v-743h-215v154h-17q-48 -83 -131 -127.5t-191 -44.5zM310 314
q0 -75 57.5 -117t144.5 -42q121 0 201 70.5t80 175.5v93l-265 -17q-112 -7 -165 -47.5t-53 -113.5v-2zM654 1236h-171l175 344h232z" />
    <glyph glyph-name="acircumflex" unicode="&#xe2;" horiz-adv-x="1158" 
d="M454 -18q-104 0 -185 39.5t-128 112.5t-47 171v2q0 146 105.5 228.5t299.5 94.5l294 17v96q0 185 -222 185q-184 0 -225 -121l-1 -4h-209l1 7q20 134 139.5 215.5t304.5 81.5q205 0 316 -96.5t111 -267.5v-743h-215v154h-17q-48 -83 -131 -127.5t-191 -44.5zM310 314
q0 -75 57.5 -117t144.5 -42q121 0 201 70.5t80 175.5v93l-265 -17q-112 -7 -165 -47.5t-53 -113.5v-2zM213 1236l248 344h240l248 -344h-207l-153 221h-16l-153 -221h-207z" />
    <glyph glyph-name="atilde" unicode="&#xe3;" horiz-adv-x="1158" 
d="M454 -18q-104 0 -185 39.5t-128 112.5t-47 171v2q0 146 105.5 228.5t299.5 94.5l294 17v96q0 185 -222 185q-184 0 -225 -121l-1 -4h-209l1 7q20 134 139.5 215.5t304.5 81.5q205 0 316 -96.5t111 -267.5v-743h-215v154h-17q-48 -83 -131 -127.5t-191 -44.5zM310 314
q0 -75 57.5 -117t144.5 -42q121 0 201 70.5t80 175.5v93l-265 -17q-112 -7 -165 -47.5t-53 -113.5v-2zM732 1242q-57 0 -99.5 24t-85.5 64l-14 12q-27 27 -46 36.5t-39 9.5q-76 0 -76 -145v-4h-154v10q0 132 56 209.5t156 77.5q57 0 99.5 -23.5t84.5 -63.5l14 -13
q28 -27 47 -36t39 -9q76 0 76 144v4h154v-10q0 -132 -56 -209.5t-156 -77.5z" />
    <glyph glyph-name="adieresis" unicode="&#xe4;" horiz-adv-x="1158" 
d="M454 -18q-104 0 -185 39.5t-128 112.5t-47 171v2q0 146 105.5 228.5t299.5 94.5l294 17v96q0 185 -222 185q-184 0 -225 -121l-1 -4h-209l1 7q20 134 139.5 215.5t304.5 81.5q205 0 316 -96.5t111 -267.5v-743h-215v154h-17q-48 -83 -131 -127.5t-191 -44.5zM310 314
q0 -75 57.5 -117t144.5 -42q121 0 201 70.5t80 175.5v93l-265 -17q-112 -7 -165 -47.5t-53 -113.5v-2zM352 1288q-52 0 -89 36.5t-37 88.5q0 51 37 87.5t89 36.5q51 0 87.5 -36.5t36.5 -87.5q0 -52 -36.5 -88.5t-87.5 -36.5zM810 1288q-51 0 -88 36.5t-37 88.5q0 51 37 87.5
t88 36.5q52 0 89 -36.5t37 -87.5q0 -52 -37 -88.5t-89 -36.5z" />
    <glyph glyph-name="aring" unicode="&#xe5;" horiz-adv-x="1158" 
d="M454 -18q-104 0 -185 39.5t-128 112.5t-47 171v2q0 146 105.5 228.5t299.5 94.5l294 17v96q0 185 -222 185q-184 0 -225 -121l-1 -4h-209l1 7q20 134 139.5 215.5t304.5 81.5q205 0 316 -96.5t111 -267.5v-743h-215v154h-17q-48 -83 -131 -127.5t-191 -44.5zM310 314
q0 -75 57.5 -117t144.5 -42q121 0 201 70.5t80 175.5v93l-265 -17q-112 -7 -165 -47.5t-53 -113.5v-2zM581 1237q-65 0 -118.5 30.5t-85.5 82.5t-32 115v1q0 95 69 161t167 66t167 -66t69 -161v-1q0 -63 -32 -115t-85.5 -82.5t-118.5 -30.5zM581 1348q50 0 85 34t35 83v1
q0 49 -35 82.5t-85 33.5t-85 -33.5t-35 -82.5v-1q0 -49 35 -83t85 -34z" />
    <glyph glyph-name="ae" unicode="&#xe6;" horiz-adv-x="1865" 
d="M486 -21q-176 0 -284 89t-108 237v2q0 146 105.5 228.5t299.5 94.5l295 18v47q0 113 -57.5 173.5t-166.5 60.5q-91 0 -149.5 -32t-76.5 -92v-2h-208v2q11 92 69.5 160t153 105.5t211.5 37.5q130 0 218.5 -50t132.5 -127h17q50 77 145.5 127t210.5 50q219 0 344 -143
t125 -394v-76h-760v-21q5 -146 87 -232t219 -86q79 0 141.5 34t92.5 101h208q-36 -145 -157 -228.5t-284 -83.5q-140 0 -247.5 61.5t-153.5 159.5h-17q-55 -103 -160 -162t-246 -59zM1003 650h543q-4 128 -76 204.5t-189 76.5t-193 -76.5t-85 -204.5zM520 153
q81 0 142.5 34.5t96.5 91.5t35 127v89l-266 -18q-218 -15 -218 -162v-2q0 -75 58.5 -117.5t151.5 -42.5z" />
    <glyph glyph-name="ccedilla" unicode="&#xe7;" horiz-adv-x="1167" 
d="M613 -21q-238 0 -374.5 151.5t-136.5 415.5v2q0 258 136 408.5t374 150.5q205 0 324 -103.5t142 -261.5v-5l-208 -1l-1 3q-18 80 -83 133.5t-173 53.5q-136 0 -213 -101t-77 -277v-2q0 -180 78 -283t212 -103q202 0 255 179l2 5h208l-2 -9q-29 -158 -145 -257t-318 -99z
M575 -494q-81 0 -159 18v123q13 -3 47.5 -8t76.5 -5q45 0 84.5 16t39.5 58v2q0 45 -37.5 61.5t-112.5 16.5h-38v93l98 143h141v-24l-71 -99q96 -2 155 -52t59 -133v-2q0 -110 -84 -159t-199 -49z" />
    <glyph glyph-name="egrave" unicode="&#xe8;" horiz-adv-x="1192" 
d="M612 -21q-159 0 -273 69t-175.5 194.5t-61.5 297.5v1q0 170 61.5 297t173.5 198t264 71q151 0 260.5 -68.5t169 -191t59.5 -285.5v-76h-770q3 -156 83 -242.5t214 -86.5q104 0 166.5 41.5t81.5 83.5l4 8l209 1l-2 -9q-18 -72 -74.5 -141.5t-153.5 -115.5t-236 -46z
M602 929q-111 0 -188 -74t-91 -214h552q-13 146 -87.5 217t-185.5 71zM532 1236l-236 344h232l175 -344h-171z" />
    <glyph glyph-name="eacute" unicode="&#xe9;" horiz-adv-x="1192" 
d="M612 -21q-159 0 -273 69t-175.5 194.5t-61.5 297.5v1q0 170 61.5 297t173.5 198t264 71q151 0 260.5 -68.5t169 -191t59.5 -285.5v-76h-770q3 -156 83 -242.5t214 -86.5q104 0 166.5 41.5t81.5 83.5l4 8l209 1l-2 -9q-18 -72 -74.5 -141.5t-153.5 -115.5t-236 -46z
M602 929q-111 0 -188 -74t-91 -214h552q-13 146 -87.5 217t-185.5 71zM678 1236h-171l175 344h232z" />
    <glyph glyph-name="ecircumflex" unicode="&#xea;" horiz-adv-x="1192" 
d="M612 -21q-159 0 -273 69t-175.5 194.5t-61.5 297.5v1q0 170 61.5 297t173.5 198t264 71q151 0 260.5 -68.5t169 -191t59.5 -285.5v-76h-770q3 -156 83 -242.5t214 -86.5q104 0 166.5 41.5t81.5 83.5l4 8l209 1l-2 -9q-18 -72 -74.5 -141.5t-153.5 -115.5t-236 -46z
M602 929q-111 0 -188 -74t-91 -214h552q-13 146 -87.5 217t-185.5 71zM237 1236l248 344h240l248 -344h-207l-153 221h-16l-153 -221h-207z" />
    <glyph glyph-name="edieresis" unicode="&#xeb;" horiz-adv-x="1192" 
d="M612 -21q-159 0 -273 69t-175.5 194.5t-61.5 297.5v1q0 170 61.5 297t173.5 198t264 71q151 0 260.5 -68.5t169 -191t59.5 -285.5v-76h-770q3 -156 83 -242.5t214 -86.5q104 0 166.5 41.5t81.5 83.5l4 8l209 1l-2 -9q-18 -72 -74.5 -141.5t-153.5 -115.5t-236 -46z
M602 929q-111 0 -188 -74t-91 -214h552q-13 146 -87.5 217t-185.5 71zM376 1288q-52 0 -89 36.5t-37 88.5q0 51 37 87.5t89 36.5q51 0 87.5 -36.5t36.5 -87.5q0 -52 -36.5 -88.5t-87.5 -36.5zM834 1288q-51 0 -88 36.5t-37 88.5q0 51 37 87.5t88 36.5q52 0 89 -36.5
t37 -87.5q0 -52 -37 -88.5t-89 -36.5z" />
    <glyph glyph-name="igrave" unicode="&#xec;" horiz-adv-x="536" 
d="M160 0v1086h216v-1086h-216zM196 1236l-236 344h232l175 -344h-171z" />
    <glyph glyph-name="iacute" unicode="&#xed;" horiz-adv-x="536" 
d="M160 0v1086h216v-1086h-216zM342 1236h-171l175 344h232z" />
    <glyph glyph-name="icircumflex" unicode="&#xee;" horiz-adv-x="536" 
d="M160 0v1086h216v-1086h-216zM-99 1236l248 344h240l248 -344h-207l-153 221h-16l-153 -221h-207z" />
    <glyph glyph-name="idieresis" unicode="&#xef;" horiz-adv-x="536" 
d="M160 0v1086h216v-1086h-216zM40 1288q-52 0 -89 36.5t-37 88.5q0 51 37 87.5t89 36.5q51 0 87.5 -36.5t36.5 -87.5q0 -52 -36.5 -88.5t-87.5 -36.5zM498 1288q-51 0 -88 36.5t-37 88.5q0 51 37 87.5t88 36.5q52 0 89 -36.5t37 -87.5q0 -52 -37 -88.5t-89 -36.5z" />
    <glyph glyph-name="eth" unicode="&#xf0;" horiz-adv-x="1221" 
d="M614 -21q-155 0 -270 65t-177.5 184t-62.5 281v2q0 158 57.5 277.5t160 186.5t237.5 67q94 0 179.5 -47t123.5 -119h16l-8 17q-48 111 -115.5 196.5t-167.5 158.5l-263 -159l-68 93l223 135q-94 55 -223 111l57 113q170 -60 305 -139l227 139l70 -94l-190 -115
q394 -285 394 -763v-2q0 -180 -62 -312t-175.5 -204t-267.5 -72zM617 160q129 0 206 95.5t77 257.5v2q0 166 -76.5 263.5t-207.5 97.5q-132 0 -211 -98.5t-79 -263.5v-2q0 -161 78.5 -256.5t212.5 -95.5z" />
    <glyph glyph-name="ntilde" unicode="&#xf1;" horiz-adv-x="1227" 
d="M156 0v1086h217v-165h16q40 87 118 136.5t197 49.5q182 0 279.5 -105t97.5 -299v-703h-216v652q0 269 -234 269q-119 0 -188.5 -76.5t-69.5 -207.5v-637h-217zM773 1242q-57 0 -99.5 24t-85.5 64l-14 12q-27 27 -46 36.5t-39 9.5q-76 0 -76 -145v-4h-154v10
q0 132 56 209.5t156 77.5q57 0 99.5 -23.5t84.5 -63.5l14 -13q28 -27 47 -36t39 -9q76 0 76 144v4h154v-10q0 -132 -56 -209.5t-156 -77.5z" />
    <glyph glyph-name="ograve" unicode="&#xf2;" horiz-adv-x="1231" 
d="M616 -21q-239 0 -376.5 150.5t-137.5 412.5v2q0 262 138 412.5t376 150.5t375.5 -150.5t137.5 -412.5v-2q0 -262 -137 -412.5t-376 -150.5zM616 160q140 0 216 101t76 281v2q0 181 -76.5 281.5t-215.5 100.5q-140 0 -216 -100.5t-76 -281.5v-2q0 -180 76 -281t216 -101z
M543 1236l-236 344h232l175 -344h-171z" />
    <glyph glyph-name="oacute" unicode="&#xf3;" horiz-adv-x="1231" 
d="M616 -21q-239 0 -376.5 150.5t-137.5 412.5v2q0 262 138 412.5t376 150.5t375.5 -150.5t137.5 -412.5v-2q0 -262 -137 -412.5t-376 -150.5zM616 160q140 0 216 101t76 281v2q0 181 -76.5 281.5t-215.5 100.5q-140 0 -216 -100.5t-76 -281.5v-2q0 -180 76 -281t216 -101z
M689 1236h-171l175 344h232z" />
    <glyph glyph-name="ocircumflex" unicode="&#xf4;" horiz-adv-x="1231" 
d="M616 -21q-239 0 -376.5 150.5t-137.5 412.5v2q0 262 138 412.5t376 150.5t375.5 -150.5t137.5 -412.5v-2q0 -262 -137 -412.5t-376 -150.5zM616 160q140 0 216 101t76 281v2q0 181 -76.5 281.5t-215.5 100.5q-140 0 -216 -100.5t-76 -281.5v-2q0 -180 76 -281t216 -101z
M248 1236l248 344h240l248 -344h-207l-153 221h-16l-153 -221h-207z" />
    <glyph glyph-name="otilde" unicode="&#xf5;" horiz-adv-x="1231" 
d="M616 -21q-239 0 -376.5 150.5t-137.5 412.5v2q0 262 138 412.5t376 150.5t375.5 -150.5t137.5 -412.5v-2q0 -262 -137 -412.5t-376 -150.5zM616 160q140 0 216 101t76 281v2q0 181 -76.5 281.5t-215.5 100.5q-140 0 -216 -100.5t-76 -281.5v-2q0 -180 76 -281t216 -101z
M767 1242q-57 0 -99.5 24t-85.5 64l-14 12q-27 27 -46 36.5t-39 9.5q-76 0 -76 -145v-4h-154v10q0 132 56 209.5t156 77.5q57 0 99.5 -23.5t84.5 -63.5l14 -13q28 -27 47 -36t39 -9q76 0 76 144v4h154v-10q0 -132 -56 -209.5t-156 -77.5z" />
    <glyph glyph-name="odieresis" unicode="&#xf6;" horiz-adv-x="1231" 
d="M616 -21q-239 0 -376.5 150.5t-137.5 412.5v2q0 262 138 412.5t376 150.5t375.5 -150.5t137.5 -412.5v-2q0 -262 -137 -412.5t-376 -150.5zM616 160q140 0 216 101t76 281v2q0 181 -76.5 281.5t-215.5 100.5q-140 0 -216 -100.5t-76 -281.5v-2q0 -180 76 -281t216 -101z
M387 1288q-52 0 -89 36.5t-37 88.5q0 51 37 87.5t89 36.5q51 0 87.5 -36.5t36.5 -87.5q0 -52 -36.5 -88.5t-87.5 -36.5zM845 1288q-51 0 -88 36.5t-37 88.5q0 51 37 87.5t88 36.5q52 0 89 -36.5t37 -87.5q0 -52 -37 -88.5t-89 -36.5z" />
    <glyph glyph-name="divide" unicode="&#xf7;" horiz-adv-x="1321" 
d="M661 846q-56 0 -94 38.5t-38 93.5q0 56 38 94t94 38q57 0 95 -38t38 -94q0 -55 -38 -93.5t-95 -38.5zM99 485v193h1123v-193h-1123zM660 53q-55 0 -93.5 38.5t-38.5 93.5q0 56 38.5 94t93.5 38q57 0 95 -38t38 -94q0 -55 -38 -93.5t-95 -38.5z" />
    <glyph glyph-name="oslash" unicode="&#xf8;" horiz-adv-x="1231" 
d="M615 -20q-186 0 -313 94l-113 -131l-106 93l121 140q-99 144 -99 366v2q0 261 137 411.5t373 150.5q185 0 312 -95l114 133l107 -93l-123 -142q100 -144 100 -365v-2q0 -262 -136.5 -412t-373.5 -150zM318 541q0 -114 31 -197l450 520q-73 63 -184 63q-142 0 -219.5 -101
t-77.5 -283v-2zM615 157q142 0 220 101.5t78 282.5v2q0 115 -32 199l-451 -521q73 -64 185 -64z" />
    <glyph glyph-name="ugrave" unicode="&#xf9;" horiz-adv-x="1227" 
d="M518 -21q-184 0 -278 105.5t-94 298.5v703h217v-652q0 -135 53 -202t172 -67q130 0 198.5 76.5t68.5 207.5v637h216v-1086h-216v164h-17q-39 -87 -120.5 -136t-199.5 -49zM534 1236l-236 344h232l175 -344h-171z" />
    <glyph glyph-name="uacute" unicode="&#xfa;" horiz-adv-x="1227" 
d="M518 -21q-184 0 -278 105.5t-94 298.5v703h217v-652q0 -135 53 -202t172 -67q130 0 198.5 76.5t68.5 207.5v637h216v-1086h-216v164h-17q-39 -87 -120.5 -136t-199.5 -49zM680 1236h-171l175 344h232z" />
    <glyph glyph-name="ucircumflex" unicode="&#xfb;" horiz-adv-x="1227" 
d="M518 -21q-184 0 -278 105.5t-94 298.5v703h217v-652q0 -135 53 -202t172 -67q130 0 198.5 76.5t68.5 207.5v637h216v-1086h-216v164h-17q-39 -87 -120.5 -136t-199.5 -49zM239 1236l248 344h240l248 -344h-207l-153 221h-16l-153 -221h-207z" />
    <glyph glyph-name="udieresis" unicode="&#xfc;" horiz-adv-x="1227" 
d="M518 -21q-184 0 -278 105.5t-94 298.5v703h217v-652q0 -135 53 -202t172 -67q130 0 198.5 76.5t68.5 207.5v637h216v-1086h-216v164h-17q-39 -87 -120.5 -136t-199.5 -49zM378 1288q-52 0 -89 36.5t-37 88.5q0 51 37 87.5t89 36.5q51 0 87.5 -36.5t36.5 -87.5
q0 -52 -36.5 -88.5t-87.5 -36.5zM836 1288q-51 0 -88 36.5t-37 88.5q0 51 37 87.5t88 36.5q52 0 89 -36.5t37 -87.5q0 -52 -37 -88.5t-89 -36.5z" />
    <glyph glyph-name="yacute" unicode="&#xfd;" horiz-adv-x="1152" 
d="M262 -382q-45 0 -87 5v171q16 -3 35.5 -3.5t37.5 -0.5q76 0 123 35.5t71 117.5l16 56l-394 1087h234l272 -868h19l271 868h228l-404 -1128q-46 -130 -102 -204t-133 -105t-187 -31zM647 1236h-171l175 344h232z" />
    <glyph glyph-name="thorn" unicode="&#xfe;" horiz-adv-x="1277" 
d="M156 -362v1874h217v-597h16q48 89 134 139.5t200 50.5q137 0 238 -69t156.5 -195t55.5 -297v-2q0 -172 -55 -297.5t-156 -194t-239 -68.5q-112 0 -201 51.5t-133 138.5h-16v-534h-217zM662 167q136 0 213 100t77 275v2q0 175 -77 275t-213 100t-214.5 -100.5
t-78.5 -274.5v-2q0 -174 78.5 -274.5t214.5 -100.5z" />
    <glyph glyph-name="ydieresis" unicode="&#xff;" horiz-adv-x="1152" 
d="M262 -382q-45 0 -87 5v171q16 -3 35.5 -3.5t37.5 -0.5q76 0 123 35.5t71 117.5l16 56l-394 1087h234l272 -868h19l271 868h228l-404 -1128q-46 -130 -102 -204t-133 -105t-187 -31zM345 1288q-52 0 -89 36.5t-37 88.5q0 51 37 87.5t89 36.5q51 0 87.5 -36.5t36.5 -87.5
q0 -52 -36.5 -88.5t-87.5 -36.5zM803 1288q-51 0 -88 36.5t-37 88.5q0 51 37 87.5t88 36.5q52 0 89 -36.5t37 -87.5q0 -52 -37 -88.5t-89 -36.5z" />
    <glyph glyph-name="Amacron" unicode="&#x100;" horiz-adv-x="1423" 
d="M70 0l521 1443h242l521 -1443h-236l-130 390h-552l-131 -390h-235zM703 1190l-207 -620h432l-208 620h-17zM386 1681v148h652v-148h-652z" />
    <glyph glyph-name="amacron" unicode="&#x101;" horiz-adv-x="1158" 
d="M454 -18q-104 0 -185 39.5t-128 112.5t-47 171v2q0 146 105.5 228.5t299.5 94.5l294 17v96q0 185 -222 185q-184 0 -225 -121l-1 -4h-209l1 7q20 134 139.5 215.5t304.5 81.5q205 0 316 -96.5t111 -267.5v-743h-215v154h-17q-48 -83 -131 -127.5t-191 -44.5zM310 314
q0 -75 57.5 -117t144.5 -42q121 0 201 70.5t80 175.5v93l-265 -17q-112 -7 -165 -47.5t-53 -113.5v-2zM241 1337v150h680v-150h-680z" />
    <glyph glyph-name="Abreve" unicode="&#x102;" horiz-adv-x="1423" 
d="M70 0l521 1443h242l521 -1443h-236l-130 390h-552l-131 -390h-235zM703 1190l-207 -620h432l-208 620h-17zM711 1586q-167 0 -258 91.5t-91 236.5v2h163v-3q1 -81 46.5 -131t139.5 -50q95 0 140.5 50t46.5 131v3h164v-2q0 -145 -91.5 -236.5t-259.5 -91.5z" />
    <glyph glyph-name="abreve" unicode="&#x103;" horiz-adv-x="1158" 
d="M454 -18q-104 0 -185 39.5t-128 112.5t-47 171v2q0 146 105.5 228.5t299.5 94.5l294 17v96q0 185 -222 185q-184 0 -225 -121l-1 -4h-209l1 7q20 134 139.5 215.5t304.5 81.5q205 0 316 -96.5t111 -267.5v-743h-215v154h-17q-48 -83 -131 -127.5t-191 -44.5zM310 314
q0 -75 57.5 -117t144.5 -42q121 0 201 70.5t80 175.5v93l-265 -17q-112 -7 -165 -47.5t-53 -113.5v-2zM581 1235q-176 0 -270 96t-94 247v2h166v-3q1 -86 49.5 -139.5t148.5 -53.5t148.5 53.5t49.5 139.5v3h166v-2q0 -151 -94 -247t-270 -96z" />
    <glyph glyph-name="Aogonek" unicode="&#x104;" horiz-adv-x="1423" 
d="M70 0l521 1443h242l521 -1443h-236l-130 390h-552l-131 -390h-235zM703 1190l-207 -620h432l-208 620h-17zM1245 -494q-67 0 -125.5 24t-95 73.5t-36.5 126.5v2q0 76 51 152t163 141h56v-25h95q-72 -45 -117 -101t-45 -127v-2q0 -59 33 -92t82 -33q34 0 69 9v-128
q-60 -20 -130 -20z" />
    <glyph glyph-name="aogonek" unicode="&#x105;" horiz-adv-x="1158" 
d="M454 -18q-104 0 -185 39.5t-128 112.5t-47 171v2q0 146 105.5 228.5t299.5 94.5l294 17v96q0 185 -222 185q-184 0 -225 -121l-1 -4h-209l1 7q20 134 139.5 215.5t304.5 81.5q205 0 316 -96.5t111 -267.5v-743h-215v154h-17q-48 -83 -131 -127.5t-191 -44.5zM310 314
q0 -75 57.5 -117t144.5 -42q121 0 201 70.5t80 175.5v93l-265 -17q-112 -7 -165 -47.5t-53 -113.5v-2zM899 -494q-67 0 -125.5 24t-95 73.5t-36.5 126.5v2q0 76 51 152t163 141h56v-25h95q-72 -45 -117 -101t-45 -127v-2q0 -59 33 -92t82 -33q34 0 69 9v-128
q-60 -20 -130 -20z" />
    <glyph glyph-name="Cacute" unicode="&#x106;" horiz-adv-x="1485" 
d="M773 -35q-200 0 -346.5 92t-225.5 261t-79 402v2q0 233 79 402.5t225 261.5t346 92q159 0 288 -62t211 -172t101 -254l-1 -5h-222v3q-32 133 -133 212.5t-244 79.5q-194 0 -307.5 -150.5t-113.5 -407.5v-2q0 -257 113.5 -407t308.5 -150q144 0 244.5 71.5t130.5 193.5
l2 4h222v-6q-21 -139 -102 -242.5t-208.5 -161t-288.5 -57.5zM846 1587h-167l167 329h226z" />
    <glyph glyph-name="cacute" unicode="&#x107;" horiz-adv-x="1167" 
d="M613 -21q-238 0 -374.5 151.5t-136.5 415.5v2q0 258 136 408.5t374 150.5q205 0 324 -103.5t142 -261.5v-5l-208 -1l-1 3q-18 80 -83 133.5t-173 53.5q-136 0 -213 -101t-77 -277v-2q0 -180 78 -283t212 -103q202 0 255 179l2 5h208l-2 -9q-29 -158 -145 -257t-318 -99z
M684 1236h-171l175 344h232z" />
    <glyph glyph-name="Ccircumflex" unicode="&#x108;" horiz-adv-x="1485" 
d="M773 -35q-200 0 -346.5 92t-225.5 261t-79 402v2q0 233 79 402.5t225 261.5t346 92q159 0 288 -62t211 -172t101 -254l-1 -5h-222v3q-32 133 -133 212.5t-244 79.5q-194 0 -307.5 -150.5t-113.5 -407.5v-2q0 -257 113.5 -407t308.5 -150q144 0 244.5 71.5t130.5 193.5
l2 4h222v-6q-21 -139 -102 -242.5t-208.5 -161t-288.5 -57.5zM418 1587l237 328h236l237 -328h-203l-144 208h-16l-144 -208h-203z" />
    <glyph glyph-name="ccircumflex" unicode="&#x109;" horiz-adv-x="1167" 
d="M613 -21q-238 0 -374.5 151.5t-136.5 415.5v2q0 258 136 408.5t374 150.5q205 0 324 -103.5t142 -261.5v-5l-208 -1l-1 3q-18 80 -83 133.5t-173 53.5q-136 0 -213 -101t-77 -277v-2q0 -180 78 -283t212 -103q202 0 255 179l2 5h208l-2 -9q-29 -158 -145 -257t-318 -99z
M243 1236l248 344h240l248 -344h-207l-153 221h-16l-153 -221h-207z" />
    <glyph glyph-name="Cdotaccent" unicode="&#x10a;" horiz-adv-x="1485" 
d="M773 -35q-200 0 -346.5 92t-225.5 261t-79 402v2q0 233 79 402.5t225 261.5t346 92q159 0 288 -62t211 -172t101 -254l-1 -5h-222v3q-32 133 -133 212.5t-244 79.5q-194 0 -307.5 -150.5t-113.5 -407.5v-2q0 -257 113.5 -407t308.5 -150q144 0 244.5 71.5t130.5 193.5
l2 4h222v-6q-21 -139 -102 -242.5t-208.5 -161t-288.5 -57.5zM773 1628q-54 0 -91.5 37.5t-37.5 90.5q0 54 37.5 91.5t91.5 37.5q53 0 91 -37.5t38 -91.5q0 -53 -38 -90.5t-91 -37.5z" />
    <glyph glyph-name="cdotaccent" unicode="&#x10b;" horiz-adv-x="1167" 
d="M613 -21q-238 0 -374.5 151.5t-136.5 415.5v2q0 258 136 408.5t374 150.5q205 0 324 -103.5t142 -261.5v-5l-208 -1l-1 3q-18 80 -83 133.5t-173 53.5q-136 0 -213 -101t-77 -277v-2q0 -180 78 -283t212 -103q202 0 255 179l2 5h208l-2 -9q-29 -158 -145 -257t-318 -99z
M611 1280q-56 0 -96 39.5t-40 95.5t40 96t96 40t96 -40t40 -96t-40 -95.5t-96 -39.5z" />
    <glyph glyph-name="Ccaron" unicode="&#x10c;" horiz-adv-x="1485" 
d="M773 -35q-200 0 -346.5 92t-225.5 261t-79 402v2q0 233 79 402.5t225 261.5t346 92q159 0 288 -62t211 -172t101 -254l-1 -5h-222v3q-32 133 -133 212.5t-244 79.5q-194 0 -307.5 -150.5t-113.5 -407.5v-2q0 -257 113.5 -407t308.5 -150q144 0 244.5 71.5t130.5 193.5
l2 4h222v-6q-21 -139 -102 -242.5t-208.5 -161t-288.5 -57.5zM1128 1915l-237 -328h-236l-237 328h203l144 -208h16l144 208h203z" />
    <glyph glyph-name="ccaron" unicode="&#x10d;" horiz-adv-x="1167" 
d="M613 -21q-238 0 -374.5 151.5t-136.5 415.5v2q0 258 136 408.5t374 150.5q205 0 324 -103.5t142 -261.5v-5l-208 -1l-1 3q-18 80 -83 133.5t-173 53.5q-136 0 -213 -101t-77 -277v-2q0 -180 78 -283t212 -103q202 0 255 179l2 5h208l-2 -9q-29 -158 -145 -257t-318 -99z
M979 1580l-248 -344h-240l-248 344h207l153 -221h16l153 221h207z" />
    <glyph glyph-name="Dcaron" unicode="&#x10e;" horiz-adv-x="1503" 
d="M181 0v1443h521q321 0 500 -188.5t179 -528.5v-2q0 -344 -178 -534t-501 -190h-521zM405 193h272q227 0 351.5 138.5t124.5 389.5v2q0 249 -126 388t-350 139h-272v-1057zM1075 1915l-237 -328h-236l-237 328h203l144 -208h16l144 208h203z" />
    <glyph glyph-name="dcaron" unicode="&#x10f;" horiz-adv-x="1493" 
d="M1213 1236l79 344h201l-147 -344h-133zM552 -18q-137 0 -238 69t-156.5 194.5t-55.5 296.5v2q0 172 55 298t156 194.5t239 68.5q112 0 201.5 -51.5t132.5 -139.5h17v598h216v-1512h-216v171h-17q-47 -89 -133.5 -139t-200.5 -50zM614 167q135 0 213.5 100.5t78.5 274.5v2
q0 174 -78.5 274.5t-213.5 100.5q-136 0 -213.5 -100t-77.5 -275v-2q0 -175 77 -275t214 -100z" />
    <glyph glyph-name="dcroat" unicode="&#x111;" horiz-adv-x="1340" 
d="M552 -18q-137 0 -238 69t-156.5 194.5t-55.5 296.5v2q0 172 55 298t156 194.5t239 68.5q112 0 201.5 -51.5t132.5 -139.5h17v316h-300v148h300v134h216v-134h166v-148h-166v-1230h-216v171h-17q-47 -89 -133.5 -139t-200.5 -50zM614 167q135 0 213.5 100.5t78.5 274.5v2
q0 174 -78.5 274.5t-213.5 100.5q-136 0 -213.5 -100t-77.5 -275v-2q0 -175 77 -275t214 -100z" />
    <glyph glyph-name="Emacron" unicode="&#x112;" horiz-adv-x="1239" 
d="M181 0v1443h916v-193h-692v-422h655v-186h-655v-449h692v-193h-916zM313 1681v148h652v-148h-652z" />
    <glyph glyph-name="emacron" unicode="&#x113;" horiz-adv-x="1192" 
d="M612 -21q-159 0 -273 69t-175.5 194.5t-61.5 297.5v1q0 170 61.5 297t173.5 198t264 71q151 0 260.5 -68.5t169 -191t59.5 -285.5v-76h-770q3 -156 83 -242.5t214 -86.5q104 0 166.5 41.5t81.5 83.5l4 8l209 1l-2 -9q-18 -72 -74.5 -141.5t-153.5 -115.5t-236 -46z
M602 929q-111 0 -188 -74t-91 -214h552q-13 146 -87.5 217t-185.5 71zM265 1337v150h680v-150h-680z" />
    <glyph glyph-name="Ebreve" unicode="&#x114;" horiz-adv-x="1239" 
d="M181 0v1443h916v-193h-692v-422h655v-186h-655v-449h692v-193h-916zM638 1586q-167 0 -258 91.5t-91 236.5v2h163v-3q1 -81 46.5 -131t139.5 -50q95 0 140.5 50t46.5 131v3h164v-2q0 -145 -91.5 -236.5t-259.5 -91.5z" />
    <glyph glyph-name="ebreve" unicode="&#x115;" horiz-adv-x="1192" 
d="M612 -21q-159 0 -273 69t-175.5 194.5t-61.5 297.5v1q0 170 61.5 297t173.5 198t264 71q151 0 260.5 -68.5t169 -191t59.5 -285.5v-76h-770q3 -156 83 -242.5t214 -86.5q104 0 166.5 41.5t81.5 83.5l4 8l209 1l-2 -9q-18 -72 -74.5 -141.5t-153.5 -115.5t-236 -46z
M602 929q-111 0 -188 -74t-91 -214h552q-13 146 -87.5 217t-185.5 71zM605 1235q-176 0 -270 96t-94 247v2h166v-3q1 -86 49.5 -139.5t148.5 -53.5t148.5 53.5t49.5 139.5v3h166v-2q0 -151 -94 -247t-270 -96z" />
    <glyph glyph-name="Edotaccent" unicode="&#x116;" horiz-adv-x="1239" 
d="M181 0v1443h916v-193h-692v-422h655v-186h-655v-449h692v-193h-916zM639 1628q-54 0 -91.5 37.5t-37.5 90.5q0 54 37.5 91.5t91.5 37.5q53 0 91 -37.5t38 -91.5q0 -53 -38 -90.5t-91 -37.5z" />
    <glyph glyph-name="edotaccent" unicode="&#x117;" horiz-adv-x="1192" 
d="M612 -21q-159 0 -273 69t-175.5 194.5t-61.5 297.5v1q0 170 61.5 297t173.5 198t264 71q151 0 260.5 -68.5t169 -191t59.5 -285.5v-76h-770q3 -156 83 -242.5t214 -86.5q104 0 166.5 41.5t81.5 83.5l4 8l209 1l-2 -9q-18 -72 -74.5 -141.5t-153.5 -115.5t-236 -46z
M602 929q-111 0 -188 -74t-91 -214h552q-13 146 -87.5 217t-185.5 71zM605 1280q-56 0 -96 39.5t-40 95.5t40 96t96 40t96 -40t40 -96t-40 -95.5t-96 -39.5z" />
    <glyph glyph-name="Eogonek" unicode="&#x118;" horiz-adv-x="1239" 
d="M181 0v1443h916v-193h-692v-422h655v-186h-655v-449h692v-193h-916zM989 -494q-67 0 -125.5 24t-95 73.5t-36.5 126.5v2q0 76 51 152t163 141h56v-25h95q-72 -45 -117 -101t-45 -127v-2q0 -59 33 -92t82 -33q34 0 69 9v-128q-60 -20 -130 -20z" />
    <glyph glyph-name="eogonek" unicode="&#x119;" horiz-adv-x="1192" 
d="M605 -21q-234 0 -368.5 150t-134.5 411v2q0 173 61.5 300t174 196.5t266.5 69.5q228 0 357 -146.5t129 -401.5v-74h-769v-10q0 -148 80.5 -235t209.5 -87q198 0 260 137h205q-18 -74 -52.5 -126.5t-75.5 -95t-78.5 -85t-62 -93.5t-24.5 -122v-2q0 -59 31.5 -92.5
t77.5 -33.5q17 0 36.5 2t38.5 8v-125q-58 -20 -136 -20q-100 0 -175 54.5t-75 169.5v2q0 65 35 131t111 126q-58 -10 -122 -10zM603 932q-119 0 -196 -79.5t-86 -211.5h550q-4 133 -76.5 212t-191.5 79z" />
    <glyph glyph-name="Ecaron" unicode="&#x11a;" horiz-adv-x="1239" 
d="M181 0v1443h916v-193h-692v-422h655v-186h-655v-449h692v-193h-916zM994 1915l-237 -328h-236l-237 328h203l144 -208h16l144 208h203z" />
    <glyph glyph-name="ecaron" unicode="&#x11b;" horiz-adv-x="1192" 
d="M612 -21q-159 0 -273 69t-175.5 194.5t-61.5 297.5v1q0 170 61.5 297t173.5 198t264 71q151 0 260.5 -68.5t169 -191t59.5 -285.5v-76h-770q3 -156 83 -242.5t214 -86.5q104 0 166.5 41.5t81.5 83.5l4 8l209 1l-2 -9q-18 -72 -74.5 -141.5t-153.5 -115.5t-236 -46z
M602 929q-111 0 -188 -74t-91 -214h552q-13 146 -87.5 217t-185.5 71zM973 1580l-248 -344h-240l-248 344h207l153 -221h16l153 221h207z" />
    <glyph glyph-name="Gcircumflex" unicode="&#x11c;" horiz-adv-x="1539" 
d="M789 -35q-204 0 -354 92.5t-231.5 262t-81.5 401.5v2q0 229 82 398.5t231.5 263t351.5 93.5q164 0 292.5 -58t211.5 -162.5t109 -244.5l2 -10h-224l-3 10q-39 128 -139.5 197.5t-248.5 69.5q-133 0 -231 -68.5t-151.5 -193t-53.5 -294.5v-2q0 -258 119 -408.5t322 -150.5
q118 0 207.5 46.5t140 130t51.5 194.5v32h-371v181h592v-179q0 -183 -77 -318.5t-217 -210t-329 -74.5zM437 1587l237 328h236l237 -328h-203l-144 208h-16l-144 -208h-203z" />
    <glyph glyph-name="gcircumflex" unicode="&#x11d;" horiz-adv-x="1274" 
d="M615 -383q-207 0 -329.5 83t-142.5 219l2 2h219l1 -2q13 -56 78 -92t175 -36q134 0 209.5 60.5t75.5 171.5v214h-16q-49 -89 -136 -136.5t-199 -47.5q-140 0 -241 66.5t-155.5 184t-54.5 270.5v2q0 155 55 274.5t157 187t243 67.5q114 0 200 -52.5t133 -144.5h13v178h216
v-1064q0 -186 -136 -295.5t-367 -109.5zM612 232q138 0 216.5 95.5t78.5 247.5v2q0 151 -79 247.5t-216 96.5q-139 0 -214 -96.5t-75 -247.5v-2q0 -152 75 -247.5t214 -95.5zM256 1236l248 344h240l248 -344h-207l-153 221h-16l-153 -221h-207z" />
    <glyph glyph-name="Gbreve" unicode="&#x11e;" horiz-adv-x="1539" 
d="M789 -35q-204 0 -354 92.5t-231.5 262t-81.5 401.5v2q0 229 82 398.5t231.5 263t351.5 93.5q164 0 292.5 -58t211.5 -162.5t109 -244.5l2 -10h-224l-3 10q-39 128 -139.5 197.5t-248.5 69.5q-133 0 -231 -68.5t-151.5 -193t-53.5 -294.5v-2q0 -258 119 -408.5t322 -150.5
q118 0 207.5 46.5t140 130t51.5 194.5v32h-371v181h592v-179q0 -183 -77 -318.5t-217 -210t-329 -74.5zM791 1586q-167 0 -258 91.5t-91 236.5v2h163v-3q1 -81 46.5 -131t139.5 -50q95 0 140.5 50t46.5 131v3h164v-2q0 -145 -91.5 -236.5t-259.5 -91.5z" />
    <glyph glyph-name="gbreve" unicode="&#x11f;" horiz-adv-x="1274" 
d="M615 -383q-207 0 -329.5 83t-142.5 219l2 2h219l1 -2q13 -56 78 -92t175 -36q134 0 209.5 60.5t75.5 171.5v214h-16q-49 -89 -136 -136.5t-199 -47.5q-140 0 -241 66.5t-155.5 184t-54.5 270.5v2q0 155 55 274.5t157 187t243 67.5q114 0 200 -52.5t133 -144.5h13v178h216
v-1064q0 -186 -136 -295.5t-367 -109.5zM612 232q138 0 216.5 95.5t78.5 247.5v2q0 151 -79 247.5t-216 96.5q-139 0 -214 -96.5t-75 -247.5v-2q0 -152 75 -247.5t214 -95.5zM624 1235q-176 0 -270 96t-94 247v2h166v-3q1 -86 49.5 -139.5t148.5 -53.5t148.5 53.5
t49.5 139.5v3h166v-2q0 -151 -94 -247t-270 -96z" />
    <glyph glyph-name="Gdotaccent" unicode="&#x120;" horiz-adv-x="1539" 
d="M789 -35q-204 0 -354 92.5t-231.5 262t-81.5 401.5v2q0 229 82 398.5t231.5 263t351.5 93.5q164 0 292.5 -58t211.5 -162.5t109 -244.5l2 -10h-224l-3 10q-39 128 -139.5 197.5t-248.5 69.5q-133 0 -231 -68.5t-151.5 -193t-53.5 -294.5v-2q0 -258 119 -408.5t322 -150.5
q118 0 207.5 46.5t140 130t51.5 194.5v32h-371v181h592v-179q0 -183 -77 -318.5t-217 -210t-329 -74.5zM792 1628q-54 0 -91.5 37.5t-37.5 90.5q0 54 37.5 91.5t91.5 37.5q53 0 91 -37.5t38 -91.5q0 -53 -38 -90.5t-91 -37.5z" />
    <glyph glyph-name="gdotaccent" unicode="&#x121;" horiz-adv-x="1274" 
d="M615 -383q-207 0 -329.5 83t-142.5 219l2 2h219l1 -2q13 -56 78 -92t175 -36q134 0 209.5 60.5t75.5 171.5v214h-16q-49 -89 -136 -136.5t-199 -47.5q-140 0 -241 66.5t-155.5 184t-54.5 270.5v2q0 155 55 274.5t157 187t243 67.5q114 0 200 -52.5t133 -144.5h13v178h216
v-1064q0 -186 -136 -295.5t-367 -109.5zM612 232q138 0 216.5 95.5t78.5 247.5v2q0 151 -79 247.5t-216 96.5q-139 0 -214 -96.5t-75 -247.5v-2q0 -152 75 -247.5t214 -95.5zM624 1280q-56 0 -96 39.5t-40 95.5t40 96t96 40t96 -40t40 -96t-40 -95.5t-96 -39.5z" />
    <glyph glyph-name="uni0122" unicode="&#x122;" horiz-adv-x="1539" 
d="M789 -35q-204 0 -354 92.5t-231.5 262t-81.5 401.5v2q0 229 82 398.5t231.5 263t351.5 93.5q164 0 292.5 -58t211.5 -162.5t109 -244.5l2 -10h-224l-3 10q-39 128 -139.5 197.5t-248.5 69.5q-133 0 -231 -68.5t-151.5 -193t-53.5 -294.5v-2q0 -258 119 -408.5t322 -150.5
q118 0 207.5 46.5t140 130t51.5 194.5v32h-371v181h592v-179q0 -183 -77 -318.5t-217 -210t-329 -74.5zM588 -494l87 345h215l-161 -345h-141z" />
    <glyph glyph-name="uni0123" unicode="&#x123;" horiz-adv-x="1274" 
d="M615 -383q-207 0 -329.5 83t-142.5 219l2 2h219l1 -2q13 -56 78 -92t175 -36q134 0 209.5 60.5t75.5 171.5v214h-16q-49 -89 -136 -136.5t-199 -47.5q-140 0 -241 66.5t-155.5 184t-54.5 270.5v2q0 155 55 274.5t157 187t243 67.5q114 0 200 -52.5t133 -144.5h13v178h216
v-1064q0 -186 -136 -295.5t-367 -109.5zM612 232q138 0 216.5 95.5t78.5 247.5v2q0 151 -79 247.5t-216 96.5q-139 0 -214 -96.5t-75 -247.5v-2q0 -152 75 -247.5t214 -95.5zM828 1580l-87 -345h-215l161 345h141z" />
    <glyph glyph-name="Hcircumflex" unicode="&#x124;" horiz-adv-x="1550" 
d="M181 0v1443h224v-610h741v610h223v-1443h-223v639h-741v-639h-224zM420 1587l237 328h236l237 -328h-203l-144 208h-16l-144 -208h-203z" />
    <glyph glyph-name="hcircumflex" unicode="&#x125;" horiz-adv-x="1237" 
d="M166 0v1512h217v-591h16q40 87 118 136.5t197 49.5q182 0 279.5 -105t97.5 -299v-703h-216v652q0 269 -234 269q-119 0 -188.5 -76.5t-69.5 -207.5v-637h-217zM-43.7939 1656.14l212.829 294.547h211.93l212.829 -294.547h-182.296l-129.314 186.786h-14.3672
l-129.314 -186.786h-182.296z" />
    <glyph glyph-name="Hbar" unicode="&#x126;" horiz-adv-x="1669" 
d="M241 0v1059h-181v172h181v212h223v-212h741v212h224v-212h181v-172h-181v-1059h-224v639h-741v-639h-223zM464 833h741v226h-741v-226z" />
    <glyph glyph-name="hbar" unicode="&#x127;" horiz-adv-x="1292" 
d="M221 0v1230h-166v148h166v134h217v-134h298v-148h-298v-309h16q40 87 118 136.5t197 49.5q182 0 279.5 -105t97.5 -299v-703h-216v652q0 269 -234 269q-119 0 -188.5 -76.5t-69.5 -207.5v-637h-217z" />
    <glyph glyph-name="Itilde" unicode="&#x128;" horiz-adv-x="585" 
d="M181 0v1443h224v-1443h-224zM437 1593q-54 0 -95 22t-81 60l-14 12q-26 25 -43.5 33.5t-37.5 8.5q-72 0 -72 -135v-3h-150v8q0 127 54 202t150 75q53 0 94.5 -22.5t81.5 -59.5l14 -13q26 -25 43.5 -33.5t37.5 -8.5q72 0 72 135v3h150v-8q0 -127 -54 -201.5t-150 -74.5z
" />
    <glyph glyph-name="itilde" unicode="&#x129;" horiz-adv-x="536" 
d="M160 0v1086h216v-1086h-216zM420 1242q-57 0 -99.5 24t-85.5 64l-14 12q-27 27 -46 36.5t-39 9.5q-76 0 -76 -145v-4h-154v10q0 132 56 209.5t156 77.5q57 0 99.5 -23.5t84.5 -63.5l14 -13q28 -27 47 -36t39 -9q76 0 76 144v4h154v-10q0 -132 -56 -209.5t-156 -77.5z" />
    <glyph glyph-name="Imacron" unicode="&#x12a;" horiz-adv-x="585" 
d="M181 0v1443h224v-1443h-224zM-33 1681v148h652v-148h-652z" />
    <glyph glyph-name="imacron" unicode="&#x12b;" horiz-adv-x="536" 
d="M160 0v1086h216v-1086h-216zM7.13086 1337v150h523.738v-150h-523.738z" />
    <glyph glyph-name="Ibreve" unicode="&#x12c;" horiz-adv-x="585" 
d="M181 0v1443h224v-1443h-224zM292 1586q-167 0 -258 91.5t-91 236.5v2h163v-3q1 -81 46.5 -131t139.5 -50q95 0 140.5 50t46.5 131v3h164v-2q0 -145 -91.5 -236.5t-259.5 -91.5z" />
    <glyph glyph-name="ibreve" unicode="&#x12d;" horiz-adv-x="536" 
d="M160 0v1086h216v-1086h-216zM269 1235q-176 0 -270 96t-94 247v2h166v-3q1 -86 49.5 -139.5t148.5 -53.5t148.5 53.5t49.5 139.5v3h166v-2q0 -151 -94 -247t-270 -96z" />
    <glyph glyph-name="Iogonek" unicode="&#x12e;" horiz-adv-x="585" 
d="M181 0v1443h224v-1443h-224zM296 -494q-67 0 -125.5 24t-95 73.5t-36.5 126.5v2q0 76 51 152t163 141h56v-25h95q-72 -45 -117 -101t-45 -127v-2q0 -59 33 -92t82 -33q34 0 69 9v-128q-60 -20 -130 -20z" />
    <glyph glyph-name="iogonek" unicode="&#x12f;" horiz-adv-x="536" 
d="M269 1280q-56 0 -96 39.5t-40 95.5t40 96t96 40t96 -40t40 -96t-40 -95.5t-96 -39.5zM160 0v1086h216v-1086h-216zM268 -494q-67 0 -125.5 24t-95 73.5t-36.5 126.5v2q0 76 51 152t163 141h56v-25h95q-72 -45 -117 -101t-45 -127v-2q0 -59 33 -92t82 -33q34 0 69 9v-128
q-60 -20 -130 -20z" />
    <glyph glyph-name="Idotaccent" unicode="&#x130;" horiz-adv-x="585" 
d="M181 0v1443h224v-1443h-224zM293 1628q-54 0 -91.5 37.5t-37.5 90.5q0 54 37.5 91.5t91.5 37.5q53 0 91 -37.5t38 -91.5q0 -53 -38 -90.5t-91 -37.5z" />
    <glyph glyph-name="dotlessi" unicode="&#x131;" horiz-adv-x="536" 
d="M160 0v1086h216v-1086h-216z" />
    <glyph glyph-name="IJ" unicode="&#x132;" horiz-adv-x="1734" 
d="M181 0v1443h224v-1443h-224zM1103 -35q-200 0 -313 110t-122 283l-1 12h221l1 -9q6 -82 58.5 -139t153.5 -57q111 0 169.5 65t58.5 188v1025h224v-1027q0 -213 -118.5 -332t-331.5 -119z" />
    <glyph glyph-name="ij" unicode="&#x133;" horiz-adv-x="1070" 
d="M269 1280q-56 0 -96 39.5t-40 95.5t40 96t96 40t96 -40t40 -96t-40 -95.5t-96 -39.5zM160 0v1086h216v-1086h-216zM803 1280q-56 0 -96 39.5t-40 95.5t40 96t96 40t96 -40t40 -96t-40 -95.5t-96 -39.5zM559 -372q-12 0 -25 0.5t-23 0.5v178h30q83 0 118.5 32.5
t35.5 114.5v1132h216v-1133q0 -167 -87.5 -246t-264.5 -79z" />
    <glyph glyph-name="Jcircumflex" unicode="&#x134;" horiz-adv-x="1148" 
d="M518 -35q-200 0 -313 110t-122 283l-1 12h221l1 -9q6 -82 58.5 -139t153.5 -57q111 0 169.5 65t58.5 188v1025h224v-1027q0 -213 -118.5 -332t-331.5 -119zM501 1587l237 328h236l237 -328h-203l-144 208h-16l-144 -208h-203z" />
    <glyph glyph-name="jcircumflex" unicode="&#x135;" horiz-adv-x="535" 
d="M23 -372q-12 0 -25 0.5t-23 0.5v178h30q83 0 118.5 32.5t35.5 114.5v1132h216v-1133q0 -167 -87.5 -246t-264.5 -79zM-101 1236l248 344h240l248 -344h-207l-153 221h-16l-153 -221h-207z" />
    <glyph glyph-name="uni0136" unicode="&#x136;" horiz-adv-x="1386" 
d="M181 0v1443h224v-682h16l597 682h265l-558 -626l606 -817h-280l-484 665l-162 -184v-481h-224zM464 -494l87 345h215l-161 -345h-141z" />
    <glyph glyph-name="uni0137" unicode="&#x137;" horiz-adv-x="1155" 
d="M166 0v1512h217v-884h16l431 458h254l-453 -458l483 -628h-264l-374 488l-93 -93v-395h-217zM416 -494l87 345h215l-161 -345h-141z" />
    <glyph glyph-name="uni043A" unicode="&#x43a;" horiz-adv-x="1158" 
d="M437 480h-55v-480h-217v1086h217v-444h54l385 444h253l-461 -506l481 -580h-268z" />
    <glyph glyph-name="uni043A" unicode="&#x138;" horiz-adv-x="1158" 
d="M437 480h-55v-480h-217v1086h217v-444h54l385 444h253l-461 -506l481 -580h-268z" />
    <glyph glyph-name="Lacute" unicode="&#x139;" horiz-adv-x="1183" 
d="M181 0v1443h224v-1250h676v-193h-900zM366 1587h-167l167 329h226z" />
    <glyph glyph-name="lacute" unicode="&#x13a;" horiz-adv-x="549" 
d="M166 0v1512h217v-1512h-217zM339.555 1642.55h-149.968l149.968 295.445h202.95z" />
    <glyph glyph-name="uni013B" unicode="&#x13b;" horiz-adv-x="1183" 
d="M181 0v1443h224v-1250h676v-193h-900zM425 -494l87 345h215l-161 -345h-141z" />
    <glyph glyph-name="uni013C" unicode="&#x13c;" horiz-adv-x="549" 
d="M166 0v1512h217v-1512h-217zM70 -494l87 345h215l-161 -345h-141z" />
    <glyph glyph-name="Lcaron" unicode="&#x13d;" horiz-adv-x="1183" 
d="M181 0v1443h224v-1250h676v-193h-900zM612 1029l71 414h210l-143 -414h-138z" />
    <glyph glyph-name="lcaron" unicode="&#x13e;" horiz-adv-x="757" 
d="M477 1236l78 344h202l-147 -344h-133zM166 0v1512h217v-1512h-217z" />
    <glyph glyph-name="Ldot" unicode="&#x13f;" horiz-adv-x="1183" 
d="M181 0v1443h224v-1250h676v-193h-900zM1030 756v-2q0 -61 -42 -103t-103 -42h-2q-61 0 -103.5 42t-42.5 103v2q0 61 42.5 103.5t103.5 42.5h2q61 0 103 -42.5t42 -103.5z" />
    <glyph glyph-name="ldot" unicode="&#x140;" horiz-adv-x="813" 
d="M166 0v1512h217v-1512h-217zM813 707v-2q0 -55 -38 -93t-93 -38h-2q-55 0 -93 38t-38 93v2q0 55 38 93t93 38h2q55 0 93 -38t38 -93z" />
    <glyph glyph-name="Lslash" unicode="&#x141;" horiz-adv-x="1175" 
d="M173 0v542l-113 -56v184l113 57v716h224v-604l394 197v-185l-394 -197v-461h676v-193h-900z" />
    <glyph glyph-name="lslash" unicode="&#x142;" horiz-adv-x="681" 
d="M234 0v641l-179 -89v169l179 89v702h216v-594l176 88v-169l-176 -88v-749h-216z" />
    <glyph glyph-name="Nacute" unicode="&#x143;" horiz-adv-x="1539" 
d="M181 0v1443h202l742 -1050h15v1050h218v-1443h-202l-741 1048h-16v-1048h-218zM843 1587h-167l167 329h226z" />
    <glyph glyph-name="nacute" unicode="&#x144;" horiz-adv-x="1227" 
d="M156 0v1086h217v-165h16q40 87 118 136.5t197 49.5q182 0 279.5 -105t97.5 -299v-703h-216v652q0 269 -234 269q-119 0 -188.5 -76.5t-69.5 -207.5v-637h-217zM695 1236h-171l175 344h232z" />
    <glyph glyph-name="uni0145" unicode="&#x145;" horiz-adv-x="1539" 
d="M181 0v1443h202l742 -1050h15v1050h218v-1443h-202l-741 1048h-16v-1048h-218zM566 -494l87 345h215l-161 -345h-141z" />
    <glyph glyph-name="uni0146" unicode="&#x146;" horiz-adv-x="1227" 
d="M156 0v1086h217v-165h16q40 87 118 136.5t197 49.5q182 0 279.5 -105t97.5 -299v-703h-216v652q0 269 -234 269q-119 0 -188.5 -76.5t-69.5 -207.5v-637h-217zM418 -494l87 345h215l-161 -345h-141z" />
    <glyph glyph-name="Ncaron" unicode="&#x147;" horiz-adv-x="1539" 
d="M181 0v1443h202l742 -1050h15v1050h218v-1443h-202l-741 1048h-16v-1048h-218zM1125 1915l-237 -328h-236l-237 328h203l144 -208h16l144 208h203z" />
    <glyph glyph-name="ncaron" unicode="&#x148;" horiz-adv-x="1227" 
d="M156 0v1086h217v-165h16q40 87 118 136.5t197 49.5q182 0 279.5 -105t97.5 -299v-703h-216v652q0 269 -234 269q-119 0 -188.5 -76.5t-69.5 -207.5v-637h-217zM990 1580l-248 -344h-240l-248 344h207l153 -221h16l153 221h207z" />
    <glyph glyph-name="Eng" unicode="&#x14a;" horiz-adv-x="1539" 
d="M399 0h-218v1443h203l740 -1049h16v1049h218v-1502q0 -313 -317 -313q-53 0 -89 5v167q24 -2 49 -2q133 0 133 138v93l-719 1019h-16v-1048z" />
    <glyph glyph-name="eng" unicode="&#x14b;" horiz-adv-x="1227" 
d="M156 0v1086h217v-165h16q40 87 118 136.5t197 49.5q182 0 279.5 -105t97.5 -299v-768q0 -313 -319 -313q-53 0 -88 6v167q20 -3 51 -3q140 0 140 138v722q0 269 -234 269q-119 0 -188.5 -76.5t-69.5 -207.5v-637h-217z" />
    <glyph glyph-name="Omacron" unicode="&#x14c;" horiz-adv-x="1591" 
d="M796 -35q-210 0 -361 92.5t-232 262.5t-81 401v2q0 232 82 401.5t233.5 261.5t358.5 92t358 -92t233 -261.5t82 -401.5v-2q0 -231 -81.5 -401t-232.5 -262.5t-359 -92.5zM796 163q137 0 236.5 69t153.5 194.5t54 294.5v2q0 170 -54 295t-154 193.5t-236 68.5
q-137 0 -237 -68.5t-154 -193.5t-54 -295v-2q0 -169 53 -294.5t153 -194.5t239 -69zM470 1681v148h652v-148h-652z" />
    <glyph glyph-name="omacron" unicode="&#x14d;" horiz-adv-x="1231" 
d="M616 -21q-239 0 -376.5 150.5t-137.5 412.5v2q0 262 138 412.5t376 150.5t375.5 -150.5t137.5 -412.5v-2q0 -262 -137 -412.5t-376 -150.5zM616 160q140 0 216 101t76 281v2q0 181 -76.5 281.5t-215.5 100.5q-140 0 -216 -100.5t-76 -281.5v-2q0 -180 76 -281t216 -101z
M276 1337v150h680v-150h-680z" />
    <glyph glyph-name="Obreve" unicode="&#x14e;" horiz-adv-x="1591" 
d="M796 -35q-210 0 -361 92.5t-232 262.5t-81 401v2q0 232 82 401.5t233.5 261.5t358.5 92t358 -92t233 -261.5t82 -401.5v-2q0 -231 -81.5 -401t-232.5 -262.5t-359 -92.5zM796 163q137 0 236.5 69t153.5 194.5t54 294.5v2q0 170 -54 295t-154 193.5t-236 68.5
q-137 0 -237 -68.5t-154 -193.5t-54 -295v-2q0 -169 53 -294.5t153 -194.5t239 -69zM795 1586q-167 0 -258 91.5t-91 236.5v2h163v-3q1 -81 46.5 -131t139.5 -50q95 0 140.5 50t46.5 131v3h164v-2q0 -145 -91.5 -236.5t-259.5 -91.5z" />
    <glyph glyph-name="obreve" unicode="&#x14f;" horiz-adv-x="1231" 
d="M616 -21q-239 0 -376.5 150.5t-137.5 412.5v2q0 262 138 412.5t376 150.5t375.5 -150.5t137.5 -412.5v-2q0 -262 -137 -412.5t-376 -150.5zM616 160q140 0 216 101t76 281v2q0 181 -76.5 281.5t-215.5 100.5q-140 0 -216 -100.5t-76 -281.5v-2q0 -180 76 -281t216 -101z
M616 1235q-176 0 -270 96t-94 247v2h166v-3q1 -86 49.5 -139.5t148.5 -53.5t148.5 53.5t49.5 139.5v3h166v-2q0 -151 -94 -247t-270 -96z" />
    <glyph glyph-name="Ohungarumlaut" unicode="&#x150;" horiz-adv-x="1591" 
d="M796 -35q-210 0 -361 92.5t-232 262.5t-81 401v2q0 232 82 401.5t233.5 261.5t358.5 92t358 -92t233 -261.5t82 -401.5v-2q0 -231 -81.5 -401t-232.5 -262.5t-359 -92.5zM796 163q137 0 236.5 69t153.5 194.5t54 294.5v2q0 170 -54 295t-154 193.5t-236 68.5
q-137 0 -237 -68.5t-154 -193.5t-54 -295v-2q0 -169 53 -294.5t153 -194.5t239 -69zM676 1587h-167l144 329h226zM1056 1587h-167l167 329h226z" />
    <glyph glyph-name="ohungarumlaut" unicode="&#x151;" horiz-adv-x="1231" 
d="M616 -21q-239 0 -376.5 150.5t-137.5 412.5v2q0 262 138 412.5t376 150.5t375.5 -150.5t137.5 -412.5v-2q0 -262 -137 -412.5t-376 -150.5zM616 160q140 0 216 101t76 281v2q0 181 -76.5 281.5t-215.5 100.5q-140 0 -216 -100.5t-76 -281.5v-2q0 -180 76 -281t216 -101z
M485 1236h-171l152 344h231zM881 1236h-171l176 344h231z" />
    <glyph glyph-name="OE" unicode="&#x152;" horiz-adv-x="2317" 
d="M774 -35q-202 0 -348 91.5t-225 261t-79 403.5v2q0 233 79 402.5t225 261t348 91.5q101 0 196 -34t170 -94.5t116 -139.5h17v233h902v-193h-707v-422h670v-186h-670v-449h707v-193h-902v242h-17q-41 -83 -115 -145.5t-169 -97t-198 -34.5zM805 163q202 0 318.5 150.5
t116.5 407.5v2q0 257 -116.5 407t-318.5 150q-140 0 -242 -68t-157 -193t-55 -296v-2q0 -258 121.5 -408t332.5 -150z" />
    <glyph glyph-name="oe" unicode="&#x153;" horiz-adv-x="1997" 
d="M611 -21q-237 0 -373 151t-136 412v2q0 262 136 413t373 151q133 0 237 -57.5t160 -161.5h17q56 103 158.5 161t230.5 58q222 0 351 -147t129 -400v-72h-768l1 -20q6 -142 84.5 -227.5t213.5 -85.5q90 0 154.5 34t94.5 101h208q-36 -144 -159 -228t-300 -84
q-138 0 -241.5 56.5t-157.5 158.5h-17q-47 -99 -154 -157t-242 -58zM1126 640h550q-4 133 -76.5 212t-191.5 79t-196 -79t-86 -212zM616 160q139 0 215.5 100t76.5 282v2q0 182 -76.5 282.5t-215.5 100.5t-215.5 -100.5t-76.5 -282.5v-2q0 -182 76 -282t216 -100z" />
    <glyph glyph-name="Racute" unicode="&#x154;" horiz-adv-x="1368" 
d="M181 0v1443h569q222 0 351 -119.5t129 -320.5v-2q0 -146 -74 -256.5t-206 -154.5l324 -590h-259l-294 555h-316v-555h-224zM405 737h323q129 0 200.5 67.5t71.5 190.5v2q0 120 -74.5 189t-204.5 69h-316v-518zM722 1587h-167l167 329h226z" />
    <glyph glyph-name="racute" unicode="&#x155;" horiz-adv-x="820" 
d="M156 0v1086h217v-164h16q30 87 103 135t182 48q26 0 52.5 -3t42.5 -7v-200q-29 6 -58 9.5t-59 3.5q-125 0 -202 -70.5t-77 -188.5v-649h-217zM477 1236h-171l175 344h232z" />
    <glyph glyph-name="uni0156" unicode="&#x156;" horiz-adv-x="1368" 
d="M181 0v1443h569q222 0 351 -119.5t129 -320.5v-2q0 -146 -74 -256.5t-206 -154.5l324 -590h-259l-294 555h-316v-555h-224zM405 737h323q129 0 200.5 67.5t71.5 190.5v2q0 120 -74.5 189t-204.5 69h-316v-518zM488 -494l87 345h215l-161 -345h-141z" />
    <glyph glyph-name="uni0157" unicode="&#x157;" horiz-adv-x="820" 
d="M156 0v1086h217v-164h16q30 87 103 135t182 48q26 0 52.5 -3t42.5 -7v-200q-29 6 -58 9.5t-59 3.5q-125 0 -202 -70.5t-77 -188.5v-649h-217zM60 -494l87 345h215l-161 -345h-141z" />
    <glyph glyph-name="Rcaron" unicode="&#x158;" horiz-adv-x="1368" 
d="M181 0v1443h569q222 0 351 -119.5t129 -320.5v-2q0 -146 -74 -256.5t-206 -154.5l324 -590h-259l-294 555h-316v-555h-224zM405 737h323q129 0 200.5 67.5t71.5 190.5v2q0 120 -74.5 189t-204.5 69h-316v-518zM1004 1915l-237 -328h-236l-237 328h203l144 -208h16
l144 208h203z" />
    <glyph glyph-name="rcaron" unicode="&#x159;" horiz-adv-x="820" 
d="M156 0v1086h217v-164h16q30 87 103 135t182 48q26 0 52.5 -3t42.5 -7v-200q-29 6 -58 9.5t-59 3.5q-125 0 -202 -70.5t-77 -188.5v-649h-217zM772 1580l-248 -344h-240l-248 344h207l153 -221h16l153 221h207z" />
    <glyph glyph-name="Sacute" unicode="&#x15a;" horiz-adv-x="1333" 
d="M669 -35q-163 0 -284 51.5t-191 143.5t-80 213l-1 13h220l1 -11q9 -98 104 -156.5t240 -58.5q138 0 226.5 63t88.5 163v1q0 83 -63 138t-206 86l-158 34q-219 47 -319 149t-100 262v1q0 124 67 219t185 148.5t271 53.5t267 -52.5t180.5 -142.5t74.5 -202l1 -14h-217
l-2 13q-15 89 -95.5 146.5t-211.5 56.5q-127 0 -210.5 -56.5t-83.5 -158.5v-1q0 -80 61.5 -133.5t201.5 -83.5l157 -35q227 -49 327 -144.5t100 -256.5v-1q0 -138 -68 -238.5t-191.5 -155t-291.5 -54.5zM753 1589h-167l167 329h226z" />
    <glyph glyph-name="sacute" unicode="&#x15b;" horiz-adv-x="1104" 
d="M551 -21q-196 0 -315 84t-134 221v1h217l1 -1q20 -62 79 -99.5t156 -37.5q100 0 163.5 41.5t63.5 108.5v2q0 51 -41.5 86t-135.5 57l-173 40q-153 35 -226.5 107.5t-73.5 191.5v1q0 94 54 167.5t149.5 115.5t218.5 42q186 0 298.5 -84t127.5 -217v-1h-207v2
q-16 57 -72 95t-148 38q-89 0 -147 -40.5t-58 -105.5v-2q0 -51 40 -84t132 -55l172 -39q157 -37 233 -107t76 -188v-2q0 -101 -59 -177t-160.5 -118.5t-230.5 -42.5zM627 1236h-171l175 344h232z" />
    <glyph glyph-name="Scircumflex" unicode="&#x15c;" horiz-adv-x="1333" 
d="M669 -35q-163 0 -284 51.5t-191 143.5t-80 213l-1 13h220l1 -11q9 -98 104 -156.5t240 -58.5q138 0 226.5 63t88.5 163v1q0 83 -63 138t-206 86l-158 34q-219 47 -319 149t-100 262v1q0 124 67 219t185 148.5t271 53.5t267 -52.5t180.5 -142.5t74.5 -202l1 -14h-217
l-2 13q-15 89 -95.5 146.5t-211.5 56.5q-127 0 -210.5 -56.5t-83.5 -158.5v-1q0 -80 61.5 -133.5t201.5 -83.5l157 -35q227 -49 327 -144.5t100 -256.5v-1q0 -138 -68 -238.5t-191.5 -155t-291.5 -54.5zM325 1590l237 328h236l237 -328h-203l-144 208h-16l-144 -208h-203z
" />
    <glyph glyph-name="scircumflex" unicode="&#x15d;" horiz-adv-x="1104" 
d="M551 -21q-196 0 -315 84t-134 221v1h217l1 -1q20 -62 79 -99.5t156 -37.5q100 0 163.5 41.5t63.5 108.5v2q0 51 -41.5 86t-135.5 57l-173 40q-153 35 -226.5 107.5t-73.5 191.5v1q0 94 54 167.5t149.5 115.5t218.5 42q186 0 298.5 -84t127.5 -217v-1h-207v2
q-16 57 -72 95t-148 38q-89 0 -147 -40.5t-58 -105.5v-2q0 -51 40 -84t132 -55l172 -39q157 -37 233 -107t76 -188v-2q0 -101 -59 -177t-160.5 -118.5t-230.5 -42.5zM186 1236l248 344h240l248 -344h-207l-153 221h-16l-153 -221h-207z" />
    <glyph glyph-name="Scedilla" unicode="&#x15e;" horiz-adv-x="1333" 
d="M669 -35q-163 0 -284 51.5t-191 143.5t-80 213l-1 13h220l1 -11q9 -98 104 -156.5t240 -58.5q138 0 226.5 63t88.5 163v1q0 83 -63 138t-206 86l-158 34q-219 47 -319 149t-100 262v1q0 124 67 219t185 148.5t271 53.5t267 -52.5t180.5 -142.5t74.5 -202l1 -14h-217
l-2 13q-15 89 -95.5 146.5t-211.5 56.5q-127 0 -210.5 -56.5t-83.5 -158.5v-1q0 -80 61.5 -133.5t201.5 -83.5l157 -35q227 -49 327 -144.5t100 -256.5v-1q0 -138 -68 -238.5t-191.5 -155t-291.5 -54.5zM621 -497q-81 0 -159 18v123q13 -3 47.5 -8t76.5 -5q45 0 84.5 16
t39.5 58v2q0 45 -37.5 61.5t-112.5 16.5h-38v93l98 143h141v-24l-71 -99q96 -2 155 -52t59 -133v-2q0 -110 -84 -159t-199 -49z" />
    <glyph glyph-name="scedilla" unicode="&#x15f;" horiz-adv-x="1104" 
d="M551 -21q-196 0 -315 84t-134 221v1h217l1 -1q20 -62 79 -99.5t156 -37.5q100 0 163.5 41.5t63.5 108.5v2q0 51 -41.5 86t-135.5 57l-173 40q-153 35 -226.5 107.5t-73.5 191.5v1q0 94 54 167.5t149.5 115.5t218.5 42q186 0 298.5 -84t127.5 -217v-1h-207v2
q-16 57 -72 95t-148 38q-89 0 -147 -40.5t-58 -105.5v-2q0 -51 40 -84t132 -55l172 -39q157 -37 233 -107t76 -188v-2q0 -101 -59 -177t-160.5 -118.5t-230.5 -42.5zM506 -494q-81 0 -159 18v123q13 -3 47.5 -8t76.5 -5q45 0 84.5 16t39.5 58v2q0 45 -37.5 61.5t-112.5 16.5
h-38v93l98 143h141v-24l-71 -99q96 -2 155 -52t59 -133v-2q0 -110 -84 -159t-199 -49z" />
    <glyph glyph-name="Scaron" unicode="&#x160;" horiz-adv-x="1333" 
d="M669 -35q-163 0 -284 51.5t-191 143.5t-80 213l-1 13h220l1 -11q9 -98 104 -156.5t240 -58.5q138 0 226.5 63t88.5 163v1q0 83 -63 138t-206 86l-158 34q-219 47 -319 149t-100 262v1q0 124 67 219t185 148.5t271 53.5t267 -52.5t180.5 -142.5t74.5 -202l1 -14h-217
l-2 13q-15 89 -95.5 146.5t-211.5 56.5q-127 0 -210.5 -56.5t-83.5 -158.5v-1q0 -80 61.5 -133.5t201.5 -83.5l157 -35q227 -49 327 -144.5t100 -256.5v-1q0 -138 -68 -238.5t-191.5 -155t-291.5 -54.5zM1035 1918l-237 -328h-236l-237 328h203l144 -208h16l144 208h203z
" />
    <glyph glyph-name="scaron" unicode="&#x161;" horiz-adv-x="1104" 
d="M551 -21q-196 0 -315 84t-134 221v1h217l1 -1q20 -62 79 -99.5t156 -37.5q100 0 163.5 41.5t63.5 108.5v2q0 51 -41.5 86t-135.5 57l-173 40q-153 35 -226.5 107.5t-73.5 191.5v1q0 94 54 167.5t149.5 115.5t218.5 42q186 0 298.5 -84t127.5 -217v-1h-207v2
q-16 57 -72 95t-148 38q-89 0 -147 -40.5t-58 -105.5v-2q0 -51 40 -84t132 -55l172 -39q157 -37 233 -107t76 -188v-2q0 -101 -59 -177t-160.5 -118.5t-230.5 -42.5zM922 1580l-248 -344h-240l-248 344h207l153 -221h16l153 221h207z" />
    <glyph glyph-name="uni0162" unicode="&#x162;" horiz-adv-x="1317" 
d="M547 0v1250h-454v193h1131v-193h-453v-1250h-224zM631 -494q-81 0 -159 18v123q13 -3 47.5 -8t76.5 -5q45 0 84.5 16t39.5 58v2q0 45 -37.5 61.5t-112.5 16.5h-38v93l98 143h141v-24l-71 -99q96 -2 155 -52t59 -133v-2q0 -110 -84 -159t-199 -49z" />
    <glyph glyph-name="uni0163" unicode="&#x163;" horiz-adv-x="780" 
d="M566 -7q-179 0 -258 68t-79 225v629h-170v171h170v274h221v-274h233v-171h-233v-577q0 -87 35 -126t116 -39q25 0 42 1t40 3v-173q-26 -4 -56 -7.5t-61 -3.5zM389 -494q-81 0 -159 18v123q13 -3 47.5 -8t76.5 -5q45 0 84.5 16t39.5 58v2q0 45 -37.5 61.5t-112.5 16.5h-38
v93l98 143h141v-24l-71 -99q96 -2 155 -52t59 -133v-2q0 -110 -84 -159t-199 -49z" />
    <glyph glyph-name="Tcaron" unicode="&#x164;" horiz-adv-x="1317" 
d="M547 0v1250h-454v193h1131v-193h-453v-1250h-224zM1014 1915l-237 -328h-236l-237 328h203l144 -208h16l144 208h203z" />
    <glyph glyph-name="tcaron" unicode="&#x165;" horiz-adv-x="780" 
d="M572 1236l78 344h201l-146 -344h-133zM566 -7q-179 0 -258 68t-79 225v629h-170v171h170v274h221v-274h233v-171h-233v-577q0 -87 35 -126t116 -39q25 0 42 1t40 3v-173q-26 -4 -56 -7.5t-61 -3.5z" />
    <glyph glyph-name="Tbar" unicode="&#x166;" horiz-adv-x="1317" 
d="M547 0v627h-312v172h312v451h-454v193h1131v-193h-453v-451h312v-172h-312v-627h-224z" />
    <glyph glyph-name="tbar" unicode="&#x167;" horiz-adv-x="832" 
d="M79 521v148h169v246h-169v171h169v274h222v-274h233v-171h-233v-246h233v-148h-233v-183q0 -87 35 -126t116 -39q25 0 42 1t40 3v-173q-26 -4 -56 -7.5t-61 -3.5q-179 0 -258.5 68t-79.5 225v235h-169z" />
    <glyph glyph-name="Utilde" unicode="&#x168;" horiz-adv-x="1527" 
d="M764 -35q-181 0 -312 67t-202 186.5t-71 278.5v946h224v-929q0 -157 94.5 -254t266.5 -97q173 0 266.5 97t93.5 254v929h224v-946q0 -159 -70.5 -278.5t-201 -186.5t-312.5 -67zM907 1593q-54 0 -95 22t-81 60l-14 12q-26 25 -43.5 33.5t-37.5 8.5q-72 0 -72 -135v-3
h-150v8q0 127 54 202t150 75q53 0 94.5 -22.5t81.5 -59.5l14 -13q26 -25 43.5 -33.5t37.5 -8.5q72 0 72 135v3h150v-8q0 -127 -54 -201.5t-150 -74.5z" />
    <glyph glyph-name="utilde" unicode="&#x169;" horiz-adv-x="1227" 
d="M518 -21q-184 0 -278 105.5t-94 298.5v703h217v-652q0 -135 53 -202t172 -67q130 0 198.5 76.5t68.5 207.5v637h216v-1086h-216v164h-17q-39 -87 -120.5 -136t-199.5 -49zM758 1242q-57 0 -99.5 24t-85.5 64l-14 12q-27 27 -46 36.5t-39 9.5q-76 0 -76 -145v-4h-154v10
q0 132 56 209.5t156 77.5q57 0 99.5 -23.5t84.5 -63.5l14 -13q28 -27 47 -36t39 -9q76 0 76 144v4h154v-10q0 -132 -56 -209.5t-156 -77.5z" />
    <glyph glyph-name="Umacron" unicode="&#x16a;" horiz-adv-x="1527" 
d="M764 -35q-181 0 -312 67t-202 186.5t-71 278.5v946h224v-929q0 -157 94.5 -254t266.5 -97q173 0 266.5 97t93.5 254v929h224v-946q0 -159 -70.5 -278.5t-201 -186.5t-312.5 -67zM437 1681v148h652v-148h-652z" />
    <glyph glyph-name="umacron" unicode="&#x16b;" horiz-adv-x="1227" 
d="M518 -21q-184 0 -278 105.5t-94 298.5v703h217v-652q0 -135 53 -202t172 -67q130 0 198.5 76.5t68.5 207.5v637h216v-1086h-216v164h-17q-39 -87 -120.5 -136t-199.5 -49zM267 1337v150h680v-150h-680z" />
    <glyph glyph-name="Ubreve" unicode="&#x16c;" horiz-adv-x="1527" 
d="M764 -35q-181 0 -312 67t-202 186.5t-71 278.5v946h224v-929q0 -157 94.5 -254t266.5 -97q173 0 266.5 97t93.5 254v929h224v-946q0 -159 -70.5 -278.5t-201 -186.5t-312.5 -67zM762 1586q-167 0 -258 91.5t-91 236.5v2h163v-3q1 -81 46.5 -131t139.5 -50q95 0 140.5 50
t46.5 131v3h164v-2q0 -145 -91.5 -236.5t-259.5 -91.5z" />
    <glyph glyph-name="ubreve" unicode="&#x16d;" horiz-adv-x="1227" 
d="M518 -21q-184 0 -278 105.5t-94 298.5v703h217v-652q0 -135 53 -202t172 -67q130 0 198.5 76.5t68.5 207.5v637h216v-1086h-216v164h-17q-39 -87 -120.5 -136t-199.5 -49zM607 1235q-176 0 -270 96t-94 247v2h166v-3q1 -86 49.5 -139.5t148.5 -53.5t148.5 53.5
t49.5 139.5v3h166v-2q0 -151 -94 -247t-270 -96z" />
    <glyph glyph-name="Uring" unicode="&#x16e;" horiz-adv-x="1527" 
d="M764 -35q-181 0 -312 67t-202 186.5t-71 278.5v946h224v-929q0 -157 94.5 -254t266.5 -97q173 0 266.5 97t93.5 254v929h224v-946q0 -159 -70.5 -278.5t-201 -186.5t-312.5 -67zM766 1544q-89 0 -152 60t-63 147v1q0 87 63 147t152 60t152 -60t63 -147v-1q0 -87 -63 -147
t-152 -60zM766 1650q44 0 75 29.5t31 71.5v1q0 43 -31 72t-75 29t-74.5 -29t-30.5 -72v-1q0 -42 30.5 -71.5t74.5 -29.5z" />
    <glyph glyph-name="uring" unicode="&#x16f;" horiz-adv-x="1227" 
d="M518 -21q-184 0 -278 105.5t-94 298.5v703h217v-652q0 -135 53 -202t172 -67q130 0 198.5 76.5t68.5 207.5v637h216v-1086h-216v164h-17q-39 -87 -120.5 -136t-199.5 -49zM607 1237q-65 0 -118.5 30.5t-85.5 82.5t-32 115v1q0 95 69 161t167 66t167 -66t69 -161v-1
q0 -63 -32 -115t-85.5 -82.5t-118.5 -30.5zM607 1348q50 0 85 34t35 83v1q0 49 -35 82.5t-85 33.5t-85 -33.5t-35 -82.5v-1q0 -49 35 -83t85 -34z" />
    <glyph glyph-name="Uhungarumlaut" unicode="&#x170;" horiz-adv-x="1527" 
d="M764 -35q-181 0 -312 67t-202 186.5t-71 278.5v946h224v-929q0 -157 94.5 -254t266.5 -97q173 0 266.5 97t93.5 254v929h224v-946q0 -159 -70.5 -278.5t-201 -186.5t-312.5 -67zM643 1587h-167l144 329h226zM1023 1587h-167l167 329h226z" />
    <glyph glyph-name="uhungarumlaut" unicode="&#x171;" horiz-adv-x="1227" 
d="M518 -21q-184 0 -278 105.5t-94 298.5v703h217v-652q0 -135 53 -202t172 -67q130 0 198.5 76.5t68.5 207.5v637h216v-1086h-216v164h-17q-39 -87 -120.5 -136t-199.5 -49zM476 1236h-171l152 344h231zM872 1236h-171l176 344h231z" />
    <glyph glyph-name="Uogonek" unicode="&#x172;" horiz-adv-x="1527" 
d="M852 -494q-68 0 -126.5 24t-94.5 73.5t-36 126.5v2q0 59 30 119t95 115q-168 8 -289 77t-186.5 185.5t-65.5 268.5v946h224v-929q0 -157 94.5 -254t266.5 -97q173 0 266.5 97t93.5 254v929h224v-946q0 -202 -113.5 -340t-316.5 -178q-56 -43 -88.5 -94t-32.5 -112v-2
q0 -59 33 -92.5t82 -33.5q35 0 69 9v-128q-59 -20 -129 -20z" />
    <glyph glyph-name="uogonek" unicode="&#x173;" horiz-adv-x="1227" 
d="M518 -21q-184 0 -278 105.5t-94 298.5v703h217v-652q0 -135 53 -202t172 -67q130 0 198.5 76.5t68.5 207.5v637h216v-1086h-216v164h-17q-39 -87 -120.5 -136t-199.5 -49zM963 -494q-67 0 -125.5 24t-95 73.5t-36.5 126.5v2q0 76 51 152t163 141h56v-25h95
q-72 -45 -117 -101t-45 -127v-2q0 -59 33 -92t82 -33q34 0 69 9v-128q-60 -20 -130 -20z" />
    <glyph glyph-name="Wcircumflex" unicode="&#x174;" horiz-adv-x="2013" 
d="M478 0l-389 1443h233l265 -1122h14l301 1122h208l303 -1122h14l264 1122h233l-390 -1443h-211l-310 1079h-14l-309 -1079h-212zM651 1587l237 328h236l237 -328h-203l-144 208h-16l-144 -208h-203z" />
    <glyph glyph-name="wcircumflex" unicode="&#x175;" horiz-adv-x="1640" 
d="M365 0l-300 1086h218l195 -838h16l224 838h206l224 -838h17l194 838h215l-299 -1086h-223l-225 810h-17l-224 -810h-221zM453 1236l248 344h240l248 -344h-207l-153 221h-16l-153 -221h-207z" />
    <glyph glyph-name="Ycircumflex" unicode="&#x176;" horiz-adv-x="1381" 
d="M578 0v591l-508 852h249l363 -629h17l363 629h249l-509 -852v-591h-224zM335 1587l237 328h236l237 -328h-203l-144 208h-16l-144 -208h-203z" />
    <glyph glyph-name="ycircumflex" unicode="&#x177;" horiz-adv-x="1152" 
d="M262 -382q-45 0 -87 5v171q16 -3 35.5 -3.5t37.5 -0.5q76 0 123 35.5t71 117.5l16 56l-394 1087h234l272 -868h19l271 868h228l-404 -1128q-46 -130 -102 -204t-133 -105t-187 -31zM206 1236l248 344h240l248 -344h-207l-153 221h-16l-153 -221h-207z" />
    <glyph glyph-name="Ydieresis" unicode="&#x178;" horiz-adv-x="1381" 
d="M578 0v591l-508 852h249l363 -629h17l363 629h249l-509 -852v-591h-224zM470 1633q-51 0 -87 36t-36 87q0 50 36 86t87 36q50 0 86 -36t36 -86q0 -51 -36 -87t-86 -36zM911 1633q-51 0 -87 36t-36 87q0 50 36 86t87 36q50 0 86 -36t36 -86q0 -51 -36 -87t-86 -36z" />
    <glyph glyph-name="Zacute" unicode="&#x179;" horiz-adv-x="1365" 
d="M141 0v153l784 1080v17h-760v193h1041v-153l-780 -1080v-17h799v-193h-1084zM756 1587h-167l167 329h226z" />
    <glyph glyph-name="zacute" unicode="&#x17a;" horiz-adv-x="1124" 
d="M131 0v141l600 757v17h-596v171h852v-149l-587 -749v-17h593v-171h-862zM629 1233h-171l175 344h232z" />
    <glyph glyph-name="Zdotaccent" unicode="&#x17b;" horiz-adv-x="1365" 
d="M141 0v153l784 1080v17h-760v193h1041v-153l-780 -1080v-17h799v-193h-1084zM683 1628q-54 0 -91.5 37.5t-37.5 90.5q0 54 37.5 91.5t91.5 37.5q53 0 91 -37.5t38 -91.5q0 -53 -38 -90.5t-91 -37.5z" />
    <glyph glyph-name="zdotaccent" unicode="&#x17c;" horiz-adv-x="1124" 
d="M131 0v141l600 757v17h-596v171h852v-149l-587 -749v-17h593v-171h-862zM556 1277q-56 0 -96 39.5t-40 95.5t40 96t96 40t96 -40t40 -96t-40 -95.5t-96 -39.5z" />
    <glyph glyph-name="Zcaron" unicode="&#x17d;" horiz-adv-x="1365" 
d="M141 0v153l784 1080v17h-760v193h1041v-153l-780 -1080v-17h799v-193h-1084zM1038 1915l-237 -328h-236l-237 328h203l144 -208h16l144 208h203z" />
    <glyph glyph-name="zcaron" unicode="&#x17e;" horiz-adv-x="1124" 
d="M131 0v141l600 757v17h-596v171h852v-149l-587 -749v-17h593v-171h-862zM924 1577l-248 -344h-240l-248 344h207l153 -221h16l153 221h207z" />
    <glyph glyph-name="longs" unicode="&#x17f;" horiz-adv-x="775" 
d="M233 0v1200q0 322 336 322q72 0 128 -10v-159q-28 5 -83 5q-89 0 -127 -43t-38 -125v-1190h-216z" />
    <glyph glyph-name="uni0181" unicode="&#x181;" horiz-adv-x="1621" 
d="M429 0v1258h-67q-147 0 -147 -146q0 -33 5.5 -68.5t19.5 -76.5h-192q-30 84 -30 174q0 143 88.5 222.5t244.5 79.5h658q203 0 318.5 -96.5t115.5 -262.5v-2q0 -75 -33.5 -141t-91 -111t-128.5 -57v-17q146 -16 235.5 -111t89.5 -236v-2q0 -190 -131 -298.5t-362 -108.5
h-593zM957 1260h-304v-431h265q302 0 302 214v2q0 102 -69 158.5t-194 56.5zM964 658h-311v-475h324q308 0 308 238v2q0 235 -321 235z" />
    <glyph glyph-name="uni018A" unicode="&#x18a;" horiz-adv-x="1751" 
d="M429 0v1258h-67q-147 0 -147 -146q0 -33 5.5 -68.5t19.5 -76.5h-192q-30 84 -30 174q0 143 88.5 222.5t244.5 79.5h599q321 0 500 -188.5t179 -528.5v-2q0 -344 -178.5 -534t-500.5 -190h-521zM653 193h272q227 0 351.5 138.5t124.5 389.5v2q0 249 -126 388t-350 139
h-272v-1057z" />
    <glyph glyph-name="uni018E" unicode="&#x18e;" horiz-adv-x="1239" 
d="M1059 0h-917v193h693v449h-656v186h656v422h-693v193h917v-1443z" />
    <glyph glyph-name="uni018F" unicode="&#x18f;" horiz-adv-x="1522" 
d="M750 -35q-196 0 -337.5 88t-218 249t-79.5 380q0 45 1 89h1044v23q1 143 -55 252.5t-154 171.5t-223 62q-133 0 -220.5 -51t-136.5 -154l-7 -14h-229l7 18q64 188 220 293.5t368 105.5q202 0 350 -93t229 -263t81 -401v-2q0 -226 -80 -395.5t-224.5 -264t-335.5 -94.5z
M753 163q159 0 271 115.5t132 311.5h-799l1 -15q13 -193 119.5 -302.5t275.5 -109.5z" />
    <glyph glyph-name="uni0191" unicode="&#x191;" horiz-adv-x="1191" 
d="M405 604v-669q0 -313 -318 -313q-53 0 -89 6v167q24 -3 49 -3q134 0 134 138v1513h901v-193h-677v-457h620v-189h-620z" />
    <glyph glyph-name="florin" unicode="&#x192;" horiz-adv-x="775" 
d="M54 915v171h179v114q0 322 336 322q72 0 128 -10v-159q-28 5 -83 5q-90 0 -128.5 -43t-38.5 -125v-104h231v-171h-229v-974q0 -313 -319 -313q-52 0 -88 5v167q21 -2 51 -2q140 0 140 138v979h-179z" />
    <glyph glyph-name="uni0198" unicode="&#x198;" horiz-adv-x="1366" 
d="M169 0v1443h224v-685h14l496 564q61 72 121.5 105.5t142.5 33.5q30 0 65 -5.5t64 -18.5v-198q-50 18 -103 18q-45 0 -76.5 -15t-64.5 -53l-338 -370l605 -819h-280l-484 669l-162 -187v-482h-224z" />
    <glyph glyph-name="uni0199" unicode="&#x199;" horiz-adv-x="1155" 
d="M166 0v1209q0 313 320 313q52 0 88 -5v-167q-21 2 -51 2q-140 0 -140 -138v-586h16l431 458h254l-453 -458l483 -628h-264l-374 488l-93 -93v-395h-217z" />
    <glyph glyph-name="uni019F" unicode="&#x19f;" horiz-adv-x="1591" 
d="M796 -35q-210 0 -361 92.5t-232 262.5t-81 401v2q0 232 82 401.5t233.5 261.5t358.5 92t358 -92t233 -261.5t82 -401.5v-2q0 -231 -81.5 -401t-232.5 -262.5t-359 -92.5zM796 1280q-184 0 -300.5 -122.5t-139.5 -334.5h879q-23 212 -139 334.5t-300 122.5zM796 163
q191 0 308 132t134 356h-885q16 -224 132.5 -356t310.5 -132z" />
    <glyph glyph-name="Ohorn" unicode="&#x1a0;" horiz-adv-x="1591" 
d="M796 -35q-210 0 -361 92.5t-232 262.5t-81 401v2q0 232 82 401.5t233.5 261.5t358.5 92q168 4 255.5 35t120 92.5t36.5 154.5h190q-5 -159 -62 -246.5t-185 -125.5q151 -90 234.5 -261t83.5 -404v-2q0 -231 -81.5 -401t-232.5 -262.5t-359 -92.5zM796 163q137 0 236.5 69
t153.5 194.5t54 294.5v2q0 170 -54 295t-154 193.5t-236 68.5q-137 0 -237 -68.5t-154 -193.5t-54 -295v-2q0 -169 53 -294.5t153 -194.5t239 -69z" />
    <glyph glyph-name="ohorn" unicode="&#x1a1;" horiz-adv-x="1231" 
d="M616 -21q-239 0 -376.5 150.5t-137.5 412.5v2q0 262 138 412.5t376 150.5q149 4 226.5 37t106 97t30.5 163h191q-3 -168 -59.5 -257.5t-187.5 -129.5q99 -70 152.5 -190.5t53.5 -282.5v-2q0 -262 -137 -412.5t-376 -150.5zM616 160q140 0 216 101t76 281v2
q0 181 -76.5 281.5t-215.5 100.5q-140 0 -216 -100.5t-76 -281.5v-2q0 -180 76 -281t216 -101z" />
    <glyph glyph-name="Sigma" unicode="&#x3a3;" horiz-adv-x="1345" 
d="M141 0v151l404 573l-386 543v176h1027v-193h-740v-17l334 -480v-33l-356 -510v-17h781v-193h-1064z" />
    <glyph glyph-name="Sigma" unicode="&#x1a9;" horiz-adv-x="1345" 
d="M141 0v151l404 573l-386 543v176h1027v-193h-740v-17l334 -480v-33l-356 -510v-17h781v-193h-1064z" />
    <glyph glyph-name="Uhorn" unicode="&#x1af;" horiz-adv-x="1527" 
d="M764 -35q-181 0 -312 67t-202 186.5t-71 278.5v946h224v-929q0 -157 94.5 -254t266.5 -97q173 0 266.5 97t93.5 254v929q126 6 192.5 41.5t90.5 103.5t24 172h191q0 -189 -62 -282t-212 -133v-848q0 -159 -70.5 -278.5t-201 -186.5t-312.5 -67z" />
    <glyph glyph-name="uhorn" unicode="&#x1b0;" horiz-adv-x="1284" 
d="M518 -21q-184 0 -278 105.5t-94 298.5v703h217v-652q0 -135 53 -202t172 -67q130 0 198.5 76.5t68.5 207.5v637q126 6 192.5 41.5t90.5 103.5t24 173h190q0 -192 -63 -285t-218 -132v-987h-216v164h-17q-39 -87 -120.5 -136t-199.5 -49z" />
    <glyph glyph-name="uni04E0" unicode="&#x4e0;" horiz-adv-x="1258" 
d="M623 -35q-149 0 -264 51t-183 143.5t-77 214.5l-1 14h218l2 -14q13 -99 95.5 -156.5t209.5 -57.5q136 0 218.5 68t82.5 187v2q0 142 -96 210.5t-276 68.5h-132v175l383 362v17h-651v193h961v-153l-433 -413v-16q216 -11 344 -123.5t128 -318.5v-2q0 -133 -67.5 -235
t-186.5 -159.5t-275 -57.5z" />
    <glyph glyph-name="uni04E0" unicode="&#x1b7;" horiz-adv-x="1258" 
d="M623 -35q-149 0 -264 51t-183 143.5t-77 214.5l-1 14h218l2 -14q13 -99 95.5 -156.5t209.5 -57.5q136 0 218.5 68t82.5 187v2q0 142 -96 210.5t-276 68.5h-132v175l383 362v17h-651v193h961v-153l-433 -413v-16q216 -11 344 -123.5t128 -318.5v-2q0 -133 -67.5 -235
t-186.5 -159.5t-275 -57.5z" />
    <glyph glyph-name="uni01C0" unicode="&#x1c0;" horiz-adv-x="531" 
d="M166 -362v1805h198v-1805h-198z" />
    <glyph glyph-name="uni01C1" unicode="&#x1c1;" horiz-adv-x="937" 
d="M166 -362v1805h198v-1805h-198zM572 -362v1805h198v-1805h-198z" />
    <glyph glyph-name="uni01C2" unicode="&#x1c2;" horiz-adv-x="984" 
d="M78 211v199h318v344h-318v199h318v490h198v-490h317v-199h-317v-344h317v-199h-317v-573h-198v573h-318z" />
    <glyph glyph-name="uni01C3" unicode="&#x1c3;" horiz-adv-x="560" 
d="M181 457v986h198v-986h-198zM280 -15q-62 0 -104.5 42.5t-42.5 102.5q0 62 42.5 104t104.5 42t104.5 -42t42.5 -104q0 -60 -42.5 -102.5t-104.5 -42.5z" />
    <glyph glyph-name="uni01C4" unicode="&#x1c4;" horiz-adv-x="2869" 
d="M181 0v1443h521q321 0 500 -188.5t179 -528.5v-2q0 -344 -178 -534t-501 -190h-521zM405 193h272q227 0 351.5 138.5t124.5 389.5v2q0 249 -126 388t-350 139h-272v-1057zM1644 0v153l784 1080v17h-760v193h1041v-153l-780 -1080v-17h799v-193h-1084zM2541 1915
l-237 -328h-236l-237 328h203l144 -208h16l144 208h203z" />
    <glyph glyph-name="uni01C5" unicode="&#x1c5;" horiz-adv-x="2627" 
d="M181 0v1443h521q321 0 500 -188.5t179 -528.5v-2q0 -344 -178 -534t-501 -190h-521zM405 193h272q227 0 351.5 138.5t124.5 389.5v2q0 249 -126 388t-350 139h-272v-1057zM1634 0v141l600 757v17h-596v171h852v-149l-587 -749v-17h593v-171h-862zM2427 1577l-248 -344
h-240l-248 344h207l153 -221h16l153 221h207z" />
    <glyph glyph-name="uni01C6" unicode="&#x1c6;" horiz-adv-x="2410" 
d="M552 -18q-137 0 -238 69t-156.5 194.5t-55.5 296.5v2q0 172 55 298t156 194.5t239 68.5q112 0 201.5 -51.5t132.5 -139.5h17v598h216v-1512h-216v171h-17q-47 -89 -133.5 -139t-200.5 -50zM614 167q135 0 213.5 100.5t78.5 274.5v2q0 174 -78.5 274.5t-213.5 100.5
q-136 0 -213.5 -100t-77.5 -275v-2q0 -175 77 -275t214 -100zM1416 0v141l600 757v17h-596v171h852v-149l-587 -749v-17h593v-171h-862zM2209 1577l-248 -344h-240l-248 344h207l153 -221h16l153 221h207z" />
    <glyph glyph-name="uni01C7" unicode="&#x1c7;" horiz-adv-x="2331" 
d="M181 0v1443h224v-1250h676v-193h-900zM1701 -35q-200 0 -313 110t-122 283l-1 12h221l1 -9q6 -82 58.5 -139t153.5 -57q111 0 169.5 65t58.5 188v1025h224v-1027q0 -213 -118.5 -332t-331.5 -119z" />
    <glyph glyph-name="uni01C8" unicode="&#x1c8;" horiz-adv-x="1718" 
d="M181 0v1443h224v-1250h676v-193h-900zM1450 1280q-56 0 -96 39.5t-40 95.5t40 96t96 40t96 -40t40 -96t-40 -95.5t-96 -39.5zM1206 -372q-12 0 -25 0.5t-23 0.5v178h30q83 0 118.5 32.5t35.5 114.5v1132h216v-1133q0 -167 -87.5 -246t-264.5 -79z" />
    <glyph glyph-name="uni01C9" unicode="&#x1c9;" horiz-adv-x="1084" 
d="M166 0v1512h217v-1512h-217zM816 1280q-56 0 -96 39.5t-40 95.5t40 96t96 40t96 -40t40 -96t-40 -95.5t-96 -39.5zM572 -372q-12 0 -25 0.5t-23 0.5v178h30q83 0 118.5 32.5t35.5 114.5v1132h216v-1133q0 -167 -87.5 -246t-264.5 -79z" />
    <glyph glyph-name="uni01CA" unicode="&#x1ca;" horiz-adv-x="2688" 
d="M181 0v1443h202l742 -1050h15v1050h218v-1443h-202l-741 1048h-16v-1048h-218zM2057 -35q-200 0 -313 110t-122 283l-1 12h221l1 -9q6 -82 58.5 -139t153.5 -57q111 0 169.5 65t58.5 188v1025h224v-1027q0 -213 -118.5 -332t-331.5 -119z" />
    <glyph glyph-name="uni01CB" unicode="&#x1cb;" horiz-adv-x="2074" 
d="M181 0v1443h202l742 -1050h15v1050h218v-1443h-202l-741 1048h-16v-1048h-218zM1806 1280q-56 0 -96 39.5t-40 95.5t40 96t96 40t96 -40t40 -96t-40 -95.5t-96 -39.5zM1562 -372q-12 0 -25 0.5t-23 0.5v178h30q83 0 118.5 32.5t35.5 114.5v1132h216v-1133
q0 -167 -87.5 -246t-264.5 -79z" />
    <glyph glyph-name="uni01CC" unicode="&#x1cc;" horiz-adv-x="1762" 
d="M156 0v1086h217v-165h16q40 87 118 136.5t197 49.5q182 0 279.5 -105t97.5 -299v-703h-216v652q0 269 -234 269q-119 0 -188.5 -76.5t-69.5 -207.5v-637h-217zM1494 1280q-56 0 -96 39.5t-40 95.5t40 96t96 40t96 -40t40 -96t-40 -95.5t-96 -39.5zM1250 -372
q-12 0 -25 0.5t-23 0.5v178h30q83 0 118.5 32.5t35.5 114.5v1132h216v-1133q0 -167 -87.5 -246t-264.5 -79z" />
    <glyph glyph-name="uni01CD" unicode="&#x1cd;" horiz-adv-x="1423" 
d="M70 0l521 1443h242l521 -1443h-236l-130 390h-552l-131 -390h-235zM703 1190l-207 -620h432l-208 620h-17zM1067 1915l-237 -328h-236l-237 328h203l144 -208h16l144 208h203z" />
    <glyph glyph-name="uni01CE" unicode="&#x1ce;" horiz-adv-x="1158" 
d="M454 -18q-104 0 -185 39.5t-128 112.5t-47 171v2q0 146 105.5 228.5t299.5 94.5l294 17v96q0 185 -222 185q-184 0 -225 -121l-1 -4h-209l1 7q20 134 139.5 215.5t304.5 81.5q205 0 316 -96.5t111 -267.5v-743h-215v154h-17q-48 -83 -131 -127.5t-191 -44.5zM310 314
q0 -75 57.5 -117t144.5 -42q121 0 201 70.5t80 175.5v93l-265 -17q-112 -7 -165 -47.5t-53 -113.5v-2zM949 1580l-248 -344h-240l-248 344h207l153 -221h16l153 221h207z" />
    <glyph glyph-name="uni01CF" unicode="&#x1cf;" horiz-adv-x="585" 
d="M181 0v1443h224v-1443h-224zM648 1915l-237 -328h-236l-237 328h203l144 -208h16l144 208h203z" />
    <glyph glyph-name="uni01D0" unicode="&#x1d0;" horiz-adv-x="536" 
d="M160 0v1086h216v-1086h-216zM637 1580l-248 -344h-240l-248 344h207l153 -221h16l153 221h207z" />
    <glyph glyph-name="uni01D1" unicode="&#x1d1;" horiz-adv-x="1591" 
d="M796 -35q-210 0 -361 92.5t-232 262.5t-81 401v2q0 232 82 401.5t233.5 261.5t358.5 92t358 -92t233 -261.5t82 -401.5v-2q0 -231 -81.5 -401t-232.5 -262.5t-359 -92.5zM796 163q137 0 236.5 69t153.5 194.5t54 294.5v2q0 170 -54 295t-154 193.5t-236 68.5
q-137 0 -237 -68.5t-154 -193.5t-54 -295v-2q0 -169 53 -294.5t153 -194.5t239 -69zM1151 1915l-237 -328h-236l-237 328h203l144 -208h16l144 208h203z" />
    <glyph glyph-name="uni01D2" unicode="&#x1d2;" horiz-adv-x="1231" 
d="M616 -21q-239 0 -376.5 150.5t-137.5 412.5v2q0 262 138 412.5t376 150.5t375.5 -150.5t137.5 -412.5v-2q0 -262 -137 -412.5t-376 -150.5zM616 160q140 0 216 101t76 281v2q0 181 -76.5 281.5t-215.5 100.5q-140 0 -216 -100.5t-76 -281.5v-2q0 -180 76 -281t216 -101z
M984 1580l-248 -344h-240l-248 344h207l153 -221h16l153 221h207z" />
    <glyph glyph-name="uni01D3" unicode="&#x1d3;" horiz-adv-x="1527" 
d="M764 -35q-181 0 -312 67t-202 186.5t-71 278.5v946h224v-929q0 -157 94.5 -254t266.5 -97q173 0 266.5 97t93.5 254v929h224v-946q0 -159 -70.5 -278.5t-201 -186.5t-312.5 -67zM1118 1915l-237 -328h-236l-237 328h203l144 -208h16l144 208h203z" />
    <glyph glyph-name="uni01D4" unicode="&#x1d4;" horiz-adv-x="1227" 
d="M518 -21q-184 0 -278 105.5t-94 298.5v703h217v-652q0 -135 53 -202t172 -67q130 0 198.5 76.5t68.5 207.5v637h216v-1086h-216v164h-17q-39 -87 -120.5 -136t-199.5 -49zM975 1580l-248 -344h-240l-248 344h207l153 -221h16l153 221h207z" />
    <glyph glyph-name="uni01D5" unicode="&#x1d5;" horiz-adv-x="1527" 
d="M764 -35q-181 0 -312 67t-202 186.5t-71 278.5v946h224v-929q0 -157 94.5 -254t266.5 -97q173 0 266.5 97t93.5 254v929h224v-946q0 -159 -70.5 -278.5t-201 -186.5t-312.5 -67zM931 1513q-41 0 -68.5 26.5t-27.5 64.5v3q0 38 27.5 64t68.5 26h4q41 0 68 -26t27 -64v-3
q0 -38 -27 -64.5t-68 -26.5h-4zM592 1513q-41 0 -68.5 26.5t-27.5 64.5v3q0 38 27.5 64t68.5 26h4q41 0 68 -26t27 -64v-3q0 -38 -27 -64.5t-68 -26.5h-4zM493 1764v128h540v-128h-540z" />
    <glyph glyph-name="uni01D6" unicode="&#x1d6;" horiz-adv-x="1227" 
d="M518 -21q-184 0 -278 105.5t-94 298.5v703h217v-652q0 -135 53 -202t172 -67q130 0 198.5 76.5t68.5 207.5v637h216v-1086h-216v164h-17q-39 -87 -120.5 -136t-199.5 -49zM828 1234q-47 0 -80 33t-33 79q0 47 33 79.5t80 32.5q48 0 81 -32.5t33 -79.5q0 -46 -33 -79
t-81 -33zM386 1234q-48 0 -81 33t-33 79q0 47 33 79.5t81 32.5t80.5 -32.5t32.5 -79.5q0 -46 -32.5 -79t-80.5 -33zM274 1601v145h666v-145h-666z" />
    <glyph glyph-name="uni01D7" unicode="&#x1d7;" horiz-adv-x="1527" 
d="M764 -35q-181 0 -312 67t-202 186.5t-71 278.5v946h224v-929q0 -157 94.5 -254t266.5 -97q173 0 266.5 97t93.5 254v929h224v-946q0 -159 -70.5 -278.5t-201 -186.5t-312.5 -67zM931 1513q-41 0 -68.5 26.5t-27.5 64.5v3q0 38 27.5 64t68.5 26h4q41 0 68 -26t27 -64v-3
q0 -38 -27 -64.5t-68 -26.5h-4zM592 1513q-41 0 -68.5 26.5t-27.5 64.5v3q0 38 27.5 64t68.5 26h4q41 0 68 -26t27 -64v-3q0 -38 -27 -64.5t-68 -26.5h-4zM680 1774l150 165h177l-198 -165h-129z" />
    <glyph glyph-name="uni01D8" unicode="&#x1d8;" horiz-adv-x="1227" 
d="M518 -21q-184 0 -278 105.5t-94 298.5v703h217v-652q0 -135 53 -202t172 -67q130 0 198.5 76.5t68.5 207.5v637h216v-1086h-216v164h-17q-39 -87 -120.5 -136t-199.5 -49zM828 1234q-47 0 -80 33t-33 79q0 47 33 79.5t80 32.5q48 0 81 -32.5t33 -79.5q0 -46 -33 -79
t-81 -33zM386 1234q-48 0 -81 33t-33 79q0 47 33 79.5t81 32.5t80.5 -32.5t32.5 -79.5q0 -46 -32.5 -79t-80.5 -33zM528 1543l161 304h204l-216 -304h-149z" />
    <glyph glyph-name="uni01D9" unicode="&#x1d9;" horiz-adv-x="1527" 
d="M764 -35q-181 0 -312 67t-202 186.5t-71 278.5v946h224v-929q0 -157 94.5 -254t266.5 -97q173 0 266.5 97t93.5 254v929h224v-946q0 -159 -70.5 -278.5t-201 -186.5t-312.5 -67zM931 1513q-41 0 -68.5 26.5t-27.5 64.5v3q0 38 27.5 64t68.5 26h4q41 0 68 -26t27 -64v-3
q0 -38 -27 -64.5t-68 -26.5h-4zM592 1513q-41 0 -68.5 26.5t-27.5 64.5v3q0 38 27.5 64t68.5 26h4q41 0 68 -26t27 -64v-3q0 -38 -27 -64.5t-68 -26.5h-4zM846 1742h-165l-202 202h166l119 -121l117 121h166z" />
    <glyph glyph-name="uni01DA" unicode="&#x1da;" horiz-adv-x="1227" 
d="M518 -21q-184 0 -278 105.5t-94 298.5v703h217v-652q0 -135 53 -202t172 -67q130 0 198.5 76.5t68.5 207.5v637h216v-1086h-216v164h-17q-39 -87 -120.5 -136t-199.5 -49zM828 1234q-47 0 -80 33t-33 79q0 47 33 79.5t80 32.5q48 0 81 -32.5t33 -79.5q0 -46 -33 -79
t-81 -33zM386 1234q-48 0 -81 33t-33 79q0 47 33 79.5t81 32.5t80.5 -32.5t32.5 -79.5q0 -46 -32.5 -79t-80.5 -33zM508 1543l-251 304h182l169 -206l167 206h182l-250 -304h-199z" />
    <glyph glyph-name="uni01DB" unicode="&#x1db;" horiz-adv-x="1527" 
d="M764 -35q-181 0 -312 67t-202 186.5t-71 278.5v946h224v-929q0 -157 94.5 -254t266.5 -97q173 0 266.5 97t93.5 254v929h224v-946q0 -159 -70.5 -278.5t-201 -186.5t-312.5 -67zM931 1513q-41 0 -68.5 26.5t-27.5 64.5v3q0 38 27.5 64t68.5 26h4q41 0 68 -26t27 -64v-3
q0 -38 -27 -64.5t-68 -26.5h-4zM592 1513q-41 0 -68.5 26.5t-27.5 64.5v3q0 38 27.5 64t68.5 26h4q41 0 68 -26t27 -64v-3q0 -38 -27 -64.5t-68 -26.5h-4zM846 1774h-130l-197 165h177z" />
    <glyph glyph-name="uni01DC" unicode="&#x1dc;" horiz-adv-x="1227" 
d="M518 -21q-184 0 -278 105.5t-94 298.5v703h217v-652q0 -135 53 -202t172 -67q130 0 198.5 76.5t68.5 207.5v637h216v-1086h-216v164h-17q-39 -87 -120.5 -136t-199.5 -49zM828 1234q-47 0 -80 33t-33 79q0 47 33 79.5t80 32.5q48 0 81 -32.5t33 -79.5q0 -46 -33 -79
t-81 -33zM386 1234q-48 0 -81 33t-33 79q0 47 33 79.5t81 32.5t80.5 -32.5t32.5 -79.5q0 -46 -32.5 -79t-80.5 -33zM537 1543l-216 304h204l161 -304h-149z" />
    <glyph glyph-name="uni04D9" unicode="&#x4d9;" horiz-adv-x="1212" 
d="M590 1107q159 0 273 -68.5t175.5 -194.5t61.5 -298v-1q0 -169 -61.5 -296.5t-173.5 -198.5t-264 -71q-151 0 -261 68.5t-169 191t-59 285.5v76h769q-3 156 -82.5 242.5t-213.5 86.5q-105 0 -167 -41.5t-81 -83.5l-4 -8h-209l2 9q18 71 74.5 140.5t153.5 115.5t236 46z
M600 157q111 0 188 74t91 214h-553q14 -145 88.5 -216.5t185.5 -71.5z" />
    <glyph glyph-name="uni04D9" unicode="&#x259;" horiz-adv-x="1212" 
d="M590 1107q159 0 273 -68.5t175.5 -194.5t61.5 -298v-1q0 -169 -61.5 -296.5t-173.5 -198.5t-264 -71q-151 0 -261 68.5t-169 191t-59 285.5v76h769q-3 156 -82.5 242.5t-213.5 86.5q-105 0 -167 -41.5t-81 -83.5l-4 -8h-209l2 9q18 71 74.5 140.5t153.5 115.5t236 46z
M600 157q111 0 188 74t91 214h-553q14 -145 88.5 -216.5t185.5 -71.5z" />
    <glyph glyph-name="uni04D9" unicode="&#x1dd;" horiz-adv-x="1212" 
d="M590 1107q159 0 273 -68.5t175.5 -194.5t61.5 -298v-1q0 -169 -61.5 -296.5t-173.5 -198.5t-264 -71q-151 0 -261 68.5t-169 191t-59 285.5v76h769q-3 156 -82.5 242.5t-213.5 86.5q-105 0 -167 -41.5t-81 -83.5l-4 -8h-209l2 9q18 71 74.5 140.5t153.5 115.5t236 46z
M600 157q111 0 188 74t91 214h-553q14 -145 88.5 -216.5t185.5 -71.5z" />
    <glyph glyph-name="uni01DE" unicode="&#x1de;" horiz-adv-x="1423" 
d="M70 0l521 1443h242l521 -1443h-236l-130 390h-552l-131 -390h-235zM703 1190l-207 -620h432l-208 620h-17zM880 1513q-41 0 -68.5 26.5t-27.5 64.5v3q0 38 27.5 64t68.5 26h4q41 0 68 -26t27 -64v-3q0 -38 -27 -64.5t-68 -26.5h-4zM541 1513q-41 0 -68.5 26.5t-27.5 64.5
v3q0 38 27.5 64t68.5 26h4q41 0 68 -26t27 -64v-3q0 -38 -27 -64.5t-68 -26.5h-4zM442 1764v128h540v-128h-540z" />
    <glyph glyph-name="uni01DF" unicode="&#x1df;" horiz-adv-x="1158" 
d="M454 -18q-104 0 -185 39.5t-128 112.5t-47 171v2q0 146 105.5 228.5t299.5 94.5l294 17v96q0 185 -222 185q-184 0 -225 -121l-1 -4h-209l1 7q20 134 139.5 215.5t304.5 81.5q205 0 316 -96.5t111 -267.5v-743h-215v154h-17q-48 -83 -131 -127.5t-191 -44.5zM310 314
q0 -75 57.5 -117t144.5 -42q121 0 201 70.5t80 175.5v93l-265 -17q-112 -7 -165 -47.5t-53 -113.5v-2zM802 1234q-47 0 -80 33t-33 79q0 47 33 79.5t80 32.5q48 0 81 -32.5t33 -79.5q0 -46 -33 -79t-81 -33zM360 1234q-48 0 -81 33t-33 79q0 47 33 79.5t81 32.5t80.5 -32.5
t32.5 -79.5q0 -46 -32.5 -79t-80.5 -33zM248 1601v145h666v-145h-666z" />
    <glyph glyph-name="uni01E0" unicode="&#x1e0;" horiz-adv-x="1423" 
d="M70 0l521 1443h242l521 -1443h-236l-130 390h-552l-131 -390h-235zM703 1190l-207 -620h432l-208 620h-17zM710 1522q-40 0 -67.5 27t-27.5 64v3q0 37 27.5 63t67.5 26h4q40 0 67 -25.5t27 -63.5v-2q0 -38 -27 -65t-67 -27h-4zM442 1765v128h540v-128h-540z" />
    <glyph glyph-name="uni01E1" unicode="&#x1e1;" horiz-adv-x="1158" 
d="M454 -18q-104 0 -185 39.5t-128 112.5t-47 171v2q0 146 105.5 228.5t299.5 94.5l294 17v96q0 185 -222 185q-184 0 -225 -121l-1 -4h-209l1 7q20 134 139.5 215.5t304.5 81.5q205 0 316 -96.5t111 -267.5v-743h-215v154h-17q-48 -83 -131 -127.5t-191 -44.5zM310 314
q0 -75 57.5 -117t144.5 -42q121 0 201 70.5t80 175.5v93l-265 -17q-112 -7 -165 -47.5t-53 -113.5v-2zM248 1602v145h666v-145h-666zM580 1235q-46 0 -79 32.5t-33 78.5q0 47 33 79.5t79 32.5q47 0 80 -32.5t33 -79.5q0 -46 -33 -78.5t-80 -32.5z" />
    <glyph glyph-name="uni01E2" unicode="&#x1e2;" horiz-adv-x="1999" 
d="M70 0l631 1443h1156v-193h-655v-430h618v-186h-618v-441h655v-193h-870v428h-506l-187 -428h-224zM847 1263l-287 -656h427v656h-140zM951 1681v148h652v-148h-652z" />
    <glyph glyph-name="uni01E3" unicode="&#x1e3;" horiz-adv-x="1865" 
d="M486 -21q-176 0 -284 89t-108 237v2q0 146 105.5 228.5t299.5 94.5l295 18v47q0 113 -57.5 173.5t-166.5 60.5q-91 0 -149.5 -32t-76.5 -92v-2h-208v2q11 92 69.5 160t153 105.5t211.5 37.5q130 0 218.5 -50t132.5 -127h17q50 77 145.5 127t210.5 50q219 0 344 -143
t125 -394v-76h-760v-21q5 -146 87 -232t219 -86q79 0 141.5 34t92.5 101h208q-36 -145 -157 -228.5t-284 -83.5q-140 0 -247.5 61.5t-153.5 159.5h-17q-55 -103 -160 -162t-246 -59zM1003 650h543q-4 128 -76 204.5t-189 76.5t-193 -76.5t-85 -204.5zM520 153
q81 0 142.5 34.5t96.5 91.5t35 127v89l-266 -18q-218 -15 -218 -162v-2q0 -75 58.5 -117.5t151.5 -42.5zM611 1337v150h680v-150h-680z" />
    <glyph glyph-name="Gcaron" unicode="&#x1e6;" horiz-adv-x="1539" 
d="M789 -35q-204 0 -354 92.5t-231.5 262t-81.5 401.5v2q0 229 82 398.5t231.5 263t351.5 93.5q164 0 292.5 -58t211.5 -162.5t109 -244.5l2 -10h-224l-3 10q-39 128 -139.5 197.5t-248.5 69.5q-133 0 -231 -68.5t-151.5 -193t-53.5 -294.5v-2q0 -258 119 -408.5t322 -150.5
q118 0 207.5 46.5t140 130t51.5 194.5v32h-371v181h592v-179q0 -183 -77 -318.5t-217 -210t-329 -74.5zM1147 1915l-237 -328h-236l-237 328h203l144 -208h16l144 208h203z" />
    <glyph glyph-name="gcaron" unicode="&#x1e7;" horiz-adv-x="1274" 
d="M615 -383q-207 0 -329.5 83t-142.5 219l2 2h219l1 -2q13 -56 78 -92t175 -36q134 0 209.5 60.5t75.5 171.5v214h-16q-49 -89 -136 -136.5t-199 -47.5q-140 0 -241 66.5t-155.5 184t-54.5 270.5v2q0 155 55 274.5t157 187t243 67.5q114 0 200 -52.5t133 -144.5h13v178h216
v-1064q0 -186 -136 -295.5t-367 -109.5zM612 232q138 0 216.5 95.5t78.5 247.5v2q0 151 -79 247.5t-216 96.5q-139 0 -214 -96.5t-75 -247.5v-2q0 -152 75 -247.5t214 -95.5zM992 1580l-248 -344h-240l-248 344h207l153 -221h16l153 221h207z" />
    <glyph glyph-name="uni01E8" unicode="&#x1e8;" horiz-adv-x="1386" 
d="M181 0v1443h224v-682h16l597 682h265l-558 -626l606 -817h-280l-484 665l-162 -184v-481h-224zM1023 1915l-237 -328h-236l-237 328h203l144 -208h16l144 208h203z" />
    <glyph glyph-name="uni01E9" unicode="&#x1e9;" horiz-adv-x="1155" 
d="M166 0v1512h217v-884h16l431 458h254l-453 -458l483 -628h-264l-374 488l-93 -93v-395h-217zM592.794 1950.69l-212.829 -294.547h-211.93l-212.829 294.547h182.296l129.314 -186.786h14.3672l129.314 186.786h182.296z" />
    <glyph glyph-name="uni01EA" unicode="&#x1ea;" horiz-adv-x="1591" 
d="M871 -494q-67 0 -126 24t-95 73.5t-36 126.5v2q0 59 30.5 119.5t96.5 115.5q-194 12 -332.5 107.5t-212.5 260.5t-74 386v2q0 232 82 401.5t233.5 261.5t358.5 92t358 -92t233 -261.5t82 -401.5v-2q0 -307 -142 -503.5t-393 -240.5q-54 -43 -85.5 -93.5t-31.5 -110.5v-2
q0 -59 33 -92.5t82 -33.5q34 0 69 9v-128q-60 -20 -130 -20zM796 163q137 0 236.5 69t153.5 194.5t54 294.5v2q0 170 -54 295t-154 193.5t-236 68.5q-137 0 -237 -68.5t-154 -193.5t-54 -295v-2q0 -169 53 -294.5t153 -194.5t239 -69z" />
    <glyph glyph-name="uni01EB" unicode="&#x1eb;" horiz-adv-x="1231" 
d="M683 -494q-67 0 -125.5 24t-95 73.5t-36.5 126.5v2q0 63 34.5 127t109.5 122q-218 14 -343 163t-125 398v2q0 262 138 412.5t376 150.5t375.5 -150.5t137.5 -412.5v-2q0 -214 -92.5 -354.5t-258.5 -187.5q-67 -47 -108 -102.5t-41 -124.5v-2q0 -59 33 -92.5t82 -33.5
q34 0 69 9v-128q-60 -20 -130 -20zM616 160q140 0 216 101t76 281v2q0 181 -76.5 281.5t-215.5 100.5q-140 0 -216 -100.5t-76 -281.5v-2q0 -180 76 -281t216 -101z" />
    <glyph glyph-name="uni01EC" unicode="&#x1ec;" horiz-adv-x="1591" 
d="M871 -494q-67 0 -126 24t-95 73.5t-36 126.5v2q0 59 30.5 119.5t96.5 115.5q-194 12 -332.5 107.5t-212.5 260.5t-74 386v2q0 232 82 401.5t233.5 261.5t358.5 92t358 -92t233 -261.5t82 -401.5v-2q0 -307 -142 -503.5t-393 -240.5q-54 -43 -85.5 -93.5t-31.5 -110.5v-2
q0 -59 33 -92.5t82 -33.5q34 0 69 9v-128q-60 -20 -130 -20zM796 163q137 0 236.5 69t153.5 194.5t54 294.5v2q0 170 -54 295t-154 193.5t-236 68.5q-137 0 -237 -68.5t-154 -193.5t-54 -295v-2q0 -169 53 -294.5t153 -194.5t239 -69zM470 1681v148h652v-148h-652z" />
    <glyph glyph-name="uni01ED" unicode="&#x1ed;" horiz-adv-x="1231" 
d="M683 -494q-67 0 -125.5 24t-95 73.5t-36.5 126.5v2q0 63 34.5 127t109.5 122q-218 14 -343 163t-125 398v2q0 262 138 412.5t376 150.5t375.5 -150.5t137.5 -412.5v-2q0 -214 -92.5 -354.5t-258.5 -187.5q-67 -47 -108 -102.5t-41 -124.5v-2q0 -59 33 -92.5t82 -33.5
q34 0 69 9v-128q-60 -20 -130 -20zM616 160q140 0 216 101t76 281v2q0 181 -76.5 281.5t-215.5 100.5q-140 0 -216 -100.5t-76 -281.5v-2q0 -180 76 -281t216 -101zM276 1337v150h680v-150h-680z" />
    <glyph glyph-name="uni01F1" unicode="&#x1f1;" horiz-adv-x="2869" 
d="M181 0v1443h521q321 0 500 -188.5t179 -528.5v-2q0 -344 -178 -534t-501 -190h-521zM405 193h272q227 0 351.5 138.5t124.5 389.5v2q0 249 -126 388t-350 139h-272v-1057zM1644 0v153l784 1080v17h-760v193h1041v-153l-780 -1080v-17h799v-193h-1084z" />
    <glyph glyph-name="uni01F2" unicode="&#x1f2;" horiz-adv-x="2627" 
d="M181 0v1443h521q321 0 500 -188.5t179 -528.5v-2q0 -344 -178 -534t-501 -190h-521zM405 193h272q227 0 351.5 138.5t124.5 389.5v2q0 249 -126 388t-350 139h-272v-1057zM1634 0v141l600 757v17h-596v171h852v-149l-587 -749v-17h593v-171h-862z" />
    <glyph glyph-name="uni01F3" unicode="&#x1f3;" horiz-adv-x="2410" 
d="M552 -18q-137 0 -238 69t-156.5 194.5t-55.5 296.5v2q0 172 55 298t156 194.5t239 68.5q112 0 201.5 -51.5t132.5 -139.5h17v598h216v-1512h-216v171h-17q-47 -89 -133.5 -139t-200.5 -50zM614 167q135 0 213.5 100.5t78.5 274.5v2q0 174 -78.5 274.5t-213.5 100.5
q-136 0 -213.5 -100t-77.5 -275v-2q0 -175 77 -275t214 -100zM1416 0v141l600 757v17h-596v171h852v-149l-587 -749v-17h593v-171h-862z" />
    <glyph glyph-name="uni01F4" unicode="&#x1f4;" horiz-adv-x="1539" 
d="M789 -35q-204 0 -354 92.5t-231.5 262t-81.5 401.5v2q0 229 82 398.5t231.5 263t351.5 93.5q164 0 292.5 -58t211.5 -162.5t109 -244.5l2 -10h-224l-3 10q-39 128 -139.5 197.5t-248.5 69.5q-133 0 -231 -68.5t-151.5 -193t-53.5 -294.5v-2q0 -258 119 -408.5t322 -150.5
q118 0 207.5 46.5t140 130t51.5 194.5v32h-371v181h592v-179q0 -183 -77 -318.5t-217 -210t-329 -74.5zM865 1587h-167l167 329h226z" />
    <glyph glyph-name="uni01F5" unicode="&#x1f5;" horiz-adv-x="1274" 
d="M615 -383q-207 0 -329.5 83t-142.5 219l2 2h219l1 -2q13 -56 78 -92t175 -36q134 0 209.5 60.5t75.5 171.5v214h-16q-49 -89 -136 -136.5t-199 -47.5q-140 0 -241 66.5t-155.5 184t-54.5 270.5v2q0 155 55 274.5t157 187t243 67.5q114 0 200 -52.5t133 -144.5h13v178h216
v-1064q0 -186 -136 -295.5t-367 -109.5zM612 232q138 0 216.5 95.5t78.5 247.5v2q0 151 -79 247.5t-216 96.5q-139 0 -214 -96.5t-75 -247.5v-2q0 -152 75 -247.5t214 -95.5zM697 1236h-171l175 344h232z" />
    <glyph glyph-name="uni01F8" unicode="&#x1f8;" horiz-adv-x="1539" 
d="M181 0v1443h202l742 -1050h15v1050h218v-1443h-202l-741 1048h-16v-1048h-218zM703 1587l-226 329h226l167 -329h-167z" />
    <glyph glyph-name="uni01F9" unicode="&#x1f9;" horiz-adv-x="1227" 
d="M156 0v1086h217v-165h16q40 87 118 136.5t197 49.5q182 0 279.5 -105t97.5 -299v-703h-216v652q0 269 -234 269q-119 0 -188.5 -76.5t-69.5 -207.5v-637h-217zM549 1236l-236 344h232l175 -344h-171z" />
    <glyph glyph-name="Aringacute" unicode="&#x1fa;" horiz-adv-x="1423" 
d="M70 0l521 1443h242l521 -1443h-236l-130 390h-552l-131 -390h-235zM703 1190l-207 -620h432l-208 620h-17zM643 1494q-73 0 -109.5 36.5t-36.5 80.5v2q0 44 36.5 80.5t109.5 36.5h138q73 0 109.5 -36.5t36.5 -80.5v-2q0 -45 -36.5 -81t-109.5 -36h-138zM659 1576h107
q45 0 45 34v2q0 35 -45 35h-107q-46 0 -46 -35v-2q0 -34 46 -34zM629 1775l150 165h177l-198 -165h-129z" />
    <glyph glyph-name="aringacute" unicode="&#x1fb;" horiz-adv-x="1158" 
d="M454 -18q-104 0 -185 39.5t-128 112.5t-47 171v2q0 146 105.5 228.5t299.5 94.5l294 17v96q0 185 -222 185q-184 0 -225 -121l-1 -4h-209l1 7q20 134 139.5 215.5t304.5 81.5q205 0 316 -96.5t111 -267.5v-743h-215v154h-17q-48 -83 -131 -127.5t-191 -44.5zM310 314
q0 -75 57.5 -117t144.5 -42q121 0 201 70.5t80 175.5v93l-265 -17q-112 -7 -165 -47.5t-53 -113.5v-2zM578 1199q-93 0 -154 56.5t-61 139.5v1q0 82 61 138t154 56h6q92 0 153.5 -56t61.5 -138v-1q0 -83 -61.5 -139.5t-153.5 -56.5h-6zM579 1299h4q44 0 73.5 27.5t29.5 68.5
v1q0 40 -29.5 67.5t-73.5 27.5h-4q-44 0 -73.5 -27.5t-29.5 -67.5v-1q0 -41 29.5 -68.5t73.5 -27.5zM502 1659l161 304h204l-216 -304h-149z" />
    <glyph glyph-name="AEacute" unicode="&#x1fc;" horiz-adv-x="1999" 
d="M70 0l631 1443h1156v-193h-655v-430h618v-186h-618v-441h655v-193h-870v428h-506l-187 -428h-224zM847 1263l-287 -656h427v656h-140zM1350 1587h-167l167 329h226z" />
    <glyph glyph-name="aeacute" unicode="&#x1fd;" horiz-adv-x="1865" 
d="M486 -21q-176 0 -284 89t-108 237v2q0 146 105.5 228.5t299.5 94.5l295 18v47q0 113 -57.5 173.5t-166.5 60.5q-91 0 -149.5 -32t-76.5 -92v-2h-208v2q11 92 69.5 160t153 105.5t211.5 37.5q130 0 218.5 -50t132.5 -127h17q50 77 145.5 127t210.5 50q219 0 344 -143
t125 -394v-76h-760v-21q5 -146 87 -232t219 -86q79 0 141.5 34t92.5 101h208q-36 -145 -157 -228.5t-284 -83.5q-140 0 -247.5 61.5t-153.5 159.5h-17q-55 -103 -160 -162t-246 -59zM1003 650h543q-4 128 -76 204.5t-189 76.5t-193 -76.5t-85 -204.5zM520 153
q81 0 142.5 34.5t96.5 91.5t35 127v89l-266 -18q-218 -15 -218 -162v-2q0 -75 58.5 -117.5t151.5 -42.5zM1024 1236h-171l175 344h232z" />
    <glyph glyph-name="Oslashacute" unicode="&#x1fe;" horiz-adv-x="1584" 
d="M792 -35q-129 0 -236 36t-189 104l-139 -163l-118 102l151 175q-139 197 -139 502v2q0 232 81.5 401.5t232 261.5t356.5 92q128 0 235 -36t190 -104l140 163l117 -101l-151 -177q67 -95 103 -221.5t36 -278.5v-2q0 -231 -81 -401t-231 -262.5t-358 -92.5zM337 721
q0 -193 70 -330l674 788q-116 105 -289 105q-140 0 -242 -68.5t-157.5 -194.5t-55.5 -297v-3zM792 160q140 0 242 69t157.5 195.5t55.5 296.5v3q0 192 -71 328l-673 -788q116 -104 289 -104zM865 1587h-167l167 329h226z" />
    <glyph glyph-name="oslashacute" unicode="&#x1ff;" horiz-adv-x="1231" 
d="M615 -20q-186 0 -313 94l-113 -131l-106 93l121 140q-99 144 -99 366v2q0 261 137 411.5t373 150.5q185 0 312 -95l114 133l107 -93l-123 -142q100 -144 100 -365v-2q0 -262 -136.5 -412t-373.5 -150zM318 541q0 -114 31 -197l450 520q-73 63 -184 63q-142 0 -219.5 -101
t-77.5 -283v-2zM615 157q142 0 220 101.5t78 282.5v2q0 115 -32 199l-451 -521q73 -64 185 -64zM689 1235h-171l175 344h232z" />
    <glyph glyph-name="uni0200" unicode="&#x200;" horiz-adv-x="1423" 
d="M70 0l521 1443h242l521 -1443h-236l-130 390h-552l-131 -390h-235zM703 1190l-207 -620h432l-208 620h-17zM453 1587l-250 329h227l190 -329h-167zM832 1587l-226 329h226l167 -329h-167z" />
    <glyph glyph-name="uni0201" unicode="&#x201;" horiz-adv-x="1158" 
d="M454 -18q-104 0 -185 39.5t-128 112.5t-47 171v2q0 146 105.5 228.5t299.5 94.5l294 17v96q0 185 -222 185q-184 0 -225 -121l-1 -4h-209l1 7q20 134 139.5 215.5t304.5 81.5q205 0 316 -96.5t111 -267.5v-743h-215v154h-17q-48 -83 -131 -127.5t-191 -44.5zM310 314
q0 -75 57.5 -117t144.5 -42q121 0 201 70.5t80 175.5v93l-265 -17q-112 -7 -165 -47.5t-53 -113.5v-2zM306 1236l-260 344h231l200 -344h-171zM701 1236l-236 344h231l176 -344h-171z" />
    <glyph glyph-name="uni0202" unicode="&#x202;" horiz-adv-x="1423" 
d="M70 0l521 1443h242l521 -1443h-236l-130 390h-552l-131 -390h-235zM703 1190l-207 -620h432l-208 620h-17zM712 1916q168 0 259 -92t91 -236v-2h-164v3q-1 81 -46.5 131t-139.5 50t-140 -50t-47 -131v-3h-163v2q0 144 91 236t259 92z" />
    <glyph glyph-name="uni0203" unicode="&#x203;" horiz-adv-x="1158" 
d="M454 -18q-104 0 -185 39.5t-128 112.5t-47 171v2q0 146 105.5 228.5t299.5 94.5l294 17v96q0 185 -222 185q-184 0 -225 -121l-1 -4h-209l1 7q20 134 139.5 215.5t304.5 81.5q205 0 316 -96.5t111 -267.5v-743h-215v154h-17q-48 -83 -131 -127.5t-191 -44.5zM310 314
q0 -75 57.5 -117t144.5 -42q121 0 201 70.5t80 175.5v93l-265 -17q-112 -7 -165 -47.5t-53 -113.5v-2zM581 1580q176 0 270 -96t94 -248v-1h-166v3q-1 86 -49.5 139.5t-148.5 53.5t-148.5 -53.5t-49.5 -139.5v-3h-166v1q0 152 94 248t270 96z" />
    <glyph glyph-name="uni0204" unicode="&#x204;" horiz-adv-x="1239" 
d="M181 0v1443h916v-193h-692v-422h655v-186h-655v-449h692v-193h-916zM380 1587l-250 329h227l190 -329h-167zM759 1587l-226 329h226l167 -329h-167z" />
    <glyph glyph-name="uni0205" unicode="&#x205;" horiz-adv-x="1192" 
d="M612 -21q-159 0 -273 69t-175.5 194.5t-61.5 297.5v1q0 170 61.5 297t173.5 198t264 71q151 0 260.5 -68.5t169 -191t59.5 -285.5v-76h-770q3 -156 83 -242.5t214 -86.5q104 0 166.5 41.5t81.5 83.5l4 8l209 1l-2 -9q-18 -72 -74.5 -141.5t-153.5 -115.5t-236 -46z
M602 929q-111 0 -188 -74t-91 -214h552q-13 146 -87.5 217t-185.5 71zM330 1236l-260 344h231l200 -344h-171zM725 1236l-236 344h231l176 -344h-171z" />
    <glyph glyph-name="uni0206" unicode="&#x206;" horiz-adv-x="1239" 
d="M181 0v1443h916v-193h-692v-422h655v-186h-655v-449h692v-193h-916zM639 1916q168 0 259 -92t91 -236v-2h-164v3q-1 81 -46.5 131t-139.5 50t-140 -50t-47 -131v-3h-163v2q0 144 91 236t259 92z" />
    <glyph glyph-name="uni0207" unicode="&#x207;" horiz-adv-x="1192" 
d="M612 -21q-159 0 -273 69t-175.5 194.5t-61.5 297.5v1q0 170 61.5 297t173.5 198t264 71q151 0 260.5 -68.5t169 -191t59.5 -285.5v-76h-770q3 -156 83 -242.5t214 -86.5q104 0 166.5 41.5t81.5 83.5l4 8l209 1l-2 -9q-18 -72 -74.5 -141.5t-153.5 -115.5t-236 -46z
M602 929q-111 0 -188 -74t-91 -214h552q-13 146 -87.5 217t-185.5 71zM605 1580q176 0 270 -96t94 -248v-1h-166v3q-1 86 -49.5 139.5t-148.5 53.5t-148.5 -53.5t-49.5 -139.5v-3h-166v1q0 152 94 248t270 96z" />
    <glyph glyph-name="uni0208" unicode="&#x208;" horiz-adv-x="585" 
d="M181 0v1443h224v-1443h-224zM34 1587l-250 329h227l190 -329h-167zM413 1587l-226 329h226l167 -329h-167z" />
    <glyph glyph-name="uni0209" unicode="&#x209;" horiz-adv-x="536" 
d="M160 0v1086h216v-1086h-216zM-6 1236l-260 344h231l200 -344h-171zM389 1236l-236 344h231l176 -344h-171z" />
    <glyph glyph-name="uni020A" unicode="&#x20a;" horiz-adv-x="585" 
d="M181 0v1443h224v-1443h-224zM293 1916q168 0 259 -92t91 -236v-2h-164v3q-1 81 -46.5 131t-139.5 50t-140 -50t-47 -131v-3h-163v2q0 144 91 236t259 92z" />
    <glyph glyph-name="uni020B" unicode="&#x20b;" horiz-adv-x="536" 
d="M160 0v1086h216v-1086h-216zM269 1580q176 0 270 -96t94 -248v-1h-166v3q-1 86 -49.5 139.5t-148.5 53.5t-148.5 -53.5t-49.5 -139.5v-3h-166v1q0 152 94 248t270 96z" />
    <glyph glyph-name="uni020C" unicode="&#x20c;" horiz-adv-x="1591" 
d="M796 -35q-210 0 -361 92.5t-232 262.5t-81 401v2q0 232 82 401.5t233.5 261.5t358.5 92t358 -92t233 -261.5t82 -401.5v-2q0 -231 -81.5 -401t-232.5 -262.5t-359 -92.5zM796 163q137 0 236.5 69t153.5 194.5t54 294.5v2q0 170 -54 295t-154 193.5t-236 68.5
q-137 0 -237 -68.5t-154 -193.5t-54 -295v-2q0 -169 53 -294.5t153 -194.5t239 -69zM537 1587l-250 329h227l190 -329h-167zM916 1587l-226 329h226l167 -329h-167z" />
    <glyph glyph-name="uni020D" unicode="&#x20d;" horiz-adv-x="1231" 
d="M616 -21q-239 0 -376.5 150.5t-137.5 412.5v2q0 262 138 412.5t376 150.5t375.5 -150.5t137.5 -412.5v-2q0 -262 -137 -412.5t-376 -150.5zM616 160q140 0 216 101t76 281v2q0 181 -76.5 281.5t-215.5 100.5q-140 0 -216 -100.5t-76 -281.5v-2q0 -180 76 -281t216 -101z
M341 1236l-260 344h231l200 -344h-171zM736 1236l-236 344h231l176 -344h-171z" />
    <glyph glyph-name="uni020E" unicode="&#x20e;" horiz-adv-x="1591" 
d="M796 -35q-210 0 -361 92.5t-232 262.5t-81 401v2q0 232 82 401.5t233.5 261.5t358.5 92t358 -92t233 -261.5t82 -401.5v-2q0 -231 -81.5 -401t-232.5 -262.5t-359 -92.5zM796 163q137 0 236.5 69t153.5 194.5t54 294.5v2q0 170 -54 295t-154 193.5t-236 68.5
q-137 0 -237 -68.5t-154 -193.5t-54 -295v-2q0 -169 53 -294.5t153 -194.5t239 -69zM796 1916q168 0 259 -92t91 -236v-2h-164v3q-1 81 -46.5 131t-139.5 50t-140 -50t-47 -131v-3h-163v2q0 144 91 236t259 92z" />
    <glyph glyph-name="uni020F" unicode="&#x20f;" horiz-adv-x="1231" 
d="M616 -21q-239 0 -376.5 150.5t-137.5 412.5v2q0 262 138 412.5t376 150.5t375.5 -150.5t137.5 -412.5v-2q0 -262 -137 -412.5t-376 -150.5zM616 160q140 0 216 101t76 281v2q0 181 -76.5 281.5t-215.5 100.5q-140 0 -216 -100.5t-76 -281.5v-2q0 -180 76 -281t216 -101z
M616 1580q176 0 270 -96t94 -248v-1h-166v3q-1 86 -49.5 139.5t-148.5 53.5t-148.5 -53.5t-49.5 -139.5v-3h-166v1q0 152 94 248t270 96z" />
    <glyph glyph-name="uni0210" unicode="&#x210;" horiz-adv-x="1368" 
d="M181 0v1443h569q222 0 351 -119.5t129 -320.5v-2q0 -146 -74 -256.5t-206 -154.5l324 -590h-259l-294 555h-316v-555h-224zM405 737h323q129 0 200.5 67.5t71.5 190.5v2q0 120 -74.5 189t-204.5 69h-316v-518zM390 1587l-250 329h227l190 -329h-167zM769 1587l-226 329
h226l167 -329h-167z" />
    <glyph glyph-name="uni0211" unicode="&#x211;" horiz-adv-x="820" 
d="M156 0v1086h217v-164h16q30 87 103 135t182 48q26 0 52.5 -3t42.5 -7v-200q-29 6 -58 9.5t-59 3.5q-125 0 -202 -70.5t-77 -188.5v-649h-217zM129 1236l-260 344h231l200 -344h-171zM524 1236l-236 344h231l176 -344h-171z" />
    <glyph glyph-name="uni0212" unicode="&#x212;" horiz-adv-x="1368" 
d="M181 0v1443h569q222 0 351 -119.5t129 -320.5v-2q0 -146 -74 -256.5t-206 -154.5l324 -590h-259l-294 555h-316v-555h-224zM405 737h323q129 0 200.5 67.5t71.5 190.5v2q0 120 -74.5 189t-204.5 69h-316v-518zM649 1916q168 0 259 -92t91 -236v-2h-164v3q-1 81 -46.5 131
t-139.5 50t-140 -50t-47 -131v-3h-163v2q0 144 91 236t259 92z" />
    <glyph glyph-name="uni0213" unicode="&#x213;" horiz-adv-x="820" 
d="M156 0v1086h217v-164h16q30 87 103 135t182 48q26 0 52.5 -3t42.5 -7v-200q-29 6 -58 9.5t-59 3.5q-125 0 -202 -70.5t-77 -188.5v-649h-217zM404 1580q176 0 270 -96t94 -248v-1h-166v3q-1 86 -49.5 139.5t-148.5 53.5t-148.5 -53.5t-49.5 -139.5v-3h-166v1
q0 152 94 248t270 96z" />
    <glyph glyph-name="uni0214" unicode="&#x214;" horiz-adv-x="1527" 
d="M764 -35q-181 0 -312 67t-202 186.5t-71 278.5v946h224v-929q0 -157 94.5 -254t266.5 -97q173 0 266.5 97t93.5 254v929h224v-946q0 -159 -70.5 -278.5t-201 -186.5t-312.5 -67zM504 1587l-250 329h227l190 -329h-167zM883 1587l-226 329h226l167 -329h-167z" />
    <glyph glyph-name="uni0215" unicode="&#x215;" horiz-adv-x="1227" 
d="M518 -21q-184 0 -278 105.5t-94 298.5v703h217v-652q0 -135 53 -202t172 -67q130 0 198.5 76.5t68.5 207.5v637h216v-1086h-216v164h-17q-39 -87 -120.5 -136t-199.5 -49zM332 1236l-260 344h231l200 -344h-171zM727 1236l-236 344h231l176 -344h-171z" />
    <glyph glyph-name="uni0216" unicode="&#x216;" horiz-adv-x="1527" 
d="M764 -35q-181 0 -312 67t-202 186.5t-71 278.5v946h224v-929q0 -157 94.5 -254t266.5 -97q173 0 266.5 97t93.5 254v929h224v-946q0 -159 -70.5 -278.5t-201 -186.5t-312.5 -67zM763 1916q168 0 259 -92t91 -236v-2h-164v3q-1 81 -46.5 131t-139.5 50t-140 -50t-47 -131
v-3h-163v2q0 144 91 236t259 92z" />
    <glyph glyph-name="uni0217" unicode="&#x217;" horiz-adv-x="1227" 
d="M518 -21q-184 0 -278 105.5t-94 298.5v703h217v-652q0 -135 53 -202t172 -67q130 0 198.5 76.5t68.5 207.5v637h216v-1086h-216v164h-17q-39 -87 -120.5 -136t-199.5 -49zM607 1580q176 0 270 -96t94 -248v-1h-166v3q-1 86 -49.5 139.5t-148.5 53.5t-148.5 -53.5
t-49.5 -139.5v-3h-166v1q0 152 94 248t270 96z" />
    <glyph glyph-name="uni0218" unicode="&#x218;" horiz-adv-x="1333" 
d="M669 -35q-163 0 -284 51.5t-191 143.5t-80 213l-1 13h220l1 -11q9 -98 104 -156.5t240 -58.5q138 0 226.5 63t88.5 163v1q0 83 -63 138t-206 86l-158 34q-219 47 -319 149t-100 262v1q0 124 67 219t185 148.5t271 53.5t267 -52.5t180.5 -142.5t74.5 -202l1 -14h-217
l-2 13q-15 89 -95.5 146.5t-211.5 56.5q-127 0 -210.5 -56.5t-83.5 -158.5v-1q0 -80 61.5 -133.5t201.5 -83.5l157 -35q227 -49 327 -144.5t100 -256.5v-1q0 -138 -68 -238.5t-191.5 -155t-291.5 -54.5zM459 -497l87 345h215l-161 -345h-141z" />
    <glyph glyph-name="uni0219" unicode="&#x219;" horiz-adv-x="1104" 
d="M551 -21q-196 0 -315 84t-134 221v1h217l1 -1q20 -62 79 -99.5t156 -37.5q100 0 163.5 41.5t63.5 108.5v2q0 51 -41.5 86t-135.5 57l-173 40q-153 35 -226.5 107.5t-73.5 191.5v1q0 94 54 167.5t149.5 115.5t218.5 42q186 0 298.5 -84t127.5 -217v-1h-207v2
q-16 57 -72 95t-148 38q-89 0 -147 -40.5t-58 -105.5v-2q0 -51 40 -84t132 -55l172 -39q157 -37 233 -107t76 -188v-2q0 -101 -59 -177t-160.5 -118.5t-230.5 -42.5zM344 -494l87 345h215l-161 -345h-141z" />
    <glyph glyph-name="uni021A" unicode="&#x21a;" horiz-adv-x="1317" 
d="M547 0v1250h-454v193h1131v-193h-453v-1250h-224zM455 -494l87 345h215l-161 -345h-141z" />
    <glyph glyph-name="uni021B" unicode="&#x21b;" horiz-adv-x="780" 
d="M566 -7q-179 0 -258 68t-79 225v629h-170v171h170v274h221v-274h233v-171h-233v-577q0 -87 35 -126t116 -39q25 0 42 1t40 3v-173q-26 -4 -56 -7.5t-61 -3.5zM227 -494l87 345h215l-161 -345h-141z" />
    <glyph glyph-name="uni021E" unicode="&#x21e;" horiz-adv-x="1550" 
d="M181 0v1443h224v-610h741v610h223v-1443h-223v639h-741v-639h-224zM1130 1915l-237 -328h-236l-237 328h203l144 -208h16l144 208h203z" />
    <glyph glyph-name="uni021F" unicode="&#x21f;" horiz-adv-x="1237" 
d="M166 0v1512h217v-591h16q40 87 118 136.5t197 49.5q182 0 279.5 -105t97.5 -299v-703h-216v652q0 269 -234 269q-119 0 -188.5 -76.5t-69.5 -207.5v-637h-217zM593.794 1950.69l-212.829 -294.547h-211.93l-212.829 294.547h182.296l129.314 -186.786h14.3672
l129.314 186.786h182.296z" />
    <glyph glyph-name="uni0226" unicode="&#x226;" horiz-adv-x="1423" 
d="M70 0l521 1443h242l521 -1443h-236l-130 390h-552l-131 -390h-235zM703 1190l-207 -620h432l-208 620h-17zM712 1628q-54 0 -91.5 37.5t-37.5 90.5q0 54 37.5 91.5t91.5 37.5q53 0 91 -37.5t38 -91.5q0 -53 -38 -90.5t-91 -37.5z" />
    <glyph glyph-name="uni0227" unicode="&#x227;" horiz-adv-x="1158" 
d="M454 -18q-104 0 -185 39.5t-128 112.5t-47 171v2q0 146 105.5 228.5t299.5 94.5l294 17v96q0 185 -222 185q-184 0 -225 -121l-1 -4h-209l1 7q20 134 139.5 215.5t304.5 81.5q205 0 316 -96.5t111 -267.5v-743h-215v154h-17q-48 -83 -131 -127.5t-191 -44.5zM310 314
q0 -75 57.5 -117t144.5 -42q121 0 201 70.5t80 175.5v93l-265 -17q-112 -7 -165 -47.5t-53 -113.5v-2zM581 1280q-56 0 -96 39.5t-40 95.5t40 96t96 40t96 -40t40 -96t-40 -95.5t-96 -39.5z" />
    <glyph glyph-name="uni0228" unicode="&#x228;" horiz-adv-x="1239" 
d="M181 0v1443h916v-193h-692v-422h655v-186h-655v-449h692v-193h-916zM597 -494q-81 0 -159 18v123q13 -3 47.5 -8t76.5 -5q45 0 84.5 16t39.5 58v2q0 45 -37.5 61.5t-112.5 16.5h-38v93l98 143h141v-24l-71 -99q96 -2 155 -52t59 -133v-2q0 -110 -84 -159t-199 -49z" />
    <glyph glyph-name="uni0229" unicode="&#x229;" horiz-adv-x="1192" 
d="M612 -21q-159 0 -273 69t-175.5 194.5t-61.5 297.5v1q0 170 61.5 297t173.5 198t264 71q151 0 260.5 -68.5t169 -191t59.5 -285.5v-76h-770q3 -156 83 -242.5t214 -86.5q104 0 166.5 41.5t81.5 83.5l4 8l209 1l-2 -9q-18 -72 -74.5 -141.5t-153.5 -115.5t-236 -46z
M602 929q-111 0 -188 -74t-91 -214h552q-13 146 -87.5 217t-185.5 71zM564 -494q-81 0 -159 18v123q13 -3 47.5 -8t76.5 -5q45 0 84.5 16t39.5 58v2q0 45 -37.5 61.5t-112.5 16.5h-38v93l98 143h141v-24l-71 -99q96 -2 155 -52t59 -133v-2q0 -110 -84 -159t-199 -49z" />
    <glyph glyph-name="uni022A" unicode="&#x22a;" horiz-adv-x="1591" 
d="M796 -35q-210 0 -361 92.5t-232 262.5t-81 401v2q0 232 82 401.5t233.5 261.5t358.5 92t358 -92t233 -261.5t82 -401.5v-2q0 -231 -81.5 -401t-232.5 -262.5t-359 -92.5zM796 163q137 0 236.5 69t153.5 194.5t54 294.5v2q0 170 -54 295t-154 193.5t-236 68.5
q-137 0 -237 -68.5t-154 -193.5t-54 -295v-2q0 -169 53 -294.5t153 -194.5t239 -69zM964 1513q-41 0 -68.5 26.5t-27.5 64.5v3q0 38 27.5 64t68.5 26h4q41 0 68 -26t27 -64v-3q0 -38 -27 -64.5t-68 -26.5h-4zM625 1513q-41 0 -68.5 26.5t-27.5 64.5v3q0 38 27.5 64t68.5 26
h4q41 0 68 -26t27 -64v-3q0 -38 -27 -64.5t-68 -26.5h-4zM526 1764v128h540v-128h-540z" />
    <glyph glyph-name="uni022B" unicode="&#x22b;" horiz-adv-x="1231" 
d="M616 -21q-239 0 -376.5 150.5t-137.5 412.5v2q0 262 138 412.5t376 150.5t375.5 -150.5t137.5 -412.5v-2q0 -262 -137 -412.5t-376 -150.5zM616 160q140 0 216 101t76 281v2q0 181 -76.5 281.5t-215.5 100.5q-140 0 -216 -100.5t-76 -281.5v-2q0 -180 76 -281t216 -101z
M837 1234q-47 0 -80 33t-33 79q0 47 33 79.5t80 32.5q48 0 81 -32.5t33 -79.5q0 -46 -33 -79t-81 -33zM395 1234q-48 0 -81 33t-33 79q0 47 33 79.5t81 32.5t80.5 -32.5t32.5 -79.5q0 -46 -32.5 -79t-80.5 -33zM283 1601v145h666v-145h-666z" />
    <glyph glyph-name="uni022C" unicode="&#x22c;" horiz-adv-x="1591" 
d="M796 -35q-210 0 -361 92.5t-232 262.5t-81 401v2q0 232 82 401.5t233.5 261.5t358.5 92t358 -92t233 -261.5t82 -401.5v-2q0 -231 -81.5 -401t-232.5 -262.5t-359 -92.5zM796 163q137 0 236.5 69t153.5 194.5t54 294.5v2q0 170 -54 295t-154 193.5t-236 68.5
q-137 0 -237 -68.5t-154 -193.5t-54 -295v-2q0 -169 53 -294.5t153 -194.5t239 -69zM919 1518q-70 0 -132 38l-24 15q-22 14 -37.5 20.5t-33.5 6.5q-50 0 -50 -77v-3h-123v8q0 94 43 140t111 46q36 0 67.5 -10.5t62.5 -28.5l23 -15q41 -25 74 -25q50 0 50 76v3h123v-8
q0 -93 -43.5 -139.5t-110.5 -46.5zM526 1775v128h540v-128h-540z" />
    <glyph glyph-name="uni022D" unicode="&#x22d;" horiz-adv-x="1231" 
d="M616 -21q-239 0 -376.5 150.5t-137.5 412.5v2q0 262 138 412.5t376 150.5t375.5 -150.5t137.5 -412.5v-2q0 -262 -137 -412.5t-376 -150.5zM616 160q140 0 216 101t76 281v2q0 181 -76.5 281.5t-215.5 100.5q-140 0 -216 -100.5t-76 -281.5v-2q0 -180 76 -281t216 -101z
M776 1216q-45 0 -82.5 15.5t-67.5 38.5l-47 34q-25 20 -50.5 35t-48.5 15q-67 0 -67 -122v-15h-138v19q0 131 48.5 196.5t132.5 65.5q45 0 82.5 -16t67.5 -39l47 -34q26 -20 51 -35t48 -15q67 0 67 123v15h138v-20q0 -131 -48.5 -196t-132.5 -65zM283 1649v145h666v-145
h-666z" />
    <glyph glyph-name="uni022E" unicode="&#x22e;" horiz-adv-x="1591" 
d="M796 -35q-210 0 -361 92.5t-232 262.5t-81 401v2q0 232 82 401.5t233.5 261.5t358.5 92t358 -92t233 -261.5t82 -401.5v-2q0 -231 -81.5 -401t-232.5 -262.5t-359 -92.5zM796 163q137 0 236.5 69t153.5 194.5t54 294.5v2q0 170 -54 295t-154 193.5t-236 68.5
q-137 0 -237 -68.5t-154 -193.5t-54 -295v-2q0 -169 53 -294.5t153 -194.5t239 -69zM796 1628q-54 0 -91.5 37.5t-37.5 90.5q0 54 37.5 91.5t91.5 37.5q53 0 91 -37.5t38 -91.5q0 -53 -38 -90.5t-91 -37.5z" />
    <glyph glyph-name="uni022F" unicode="&#x22f;" horiz-adv-x="1231" 
d="M616 -21q-239 0 -376.5 150.5t-137.5 412.5v2q0 262 138 412.5t376 150.5t375.5 -150.5t137.5 -412.5v-2q0 -262 -137 -412.5t-376 -150.5zM616 160q140 0 216 101t76 281v2q0 181 -76.5 281.5t-215.5 100.5q-140 0 -216 -100.5t-76 -281.5v-2q0 -180 76 -281t216 -101z
M616 1280q-56 0 -96 39.5t-40 95.5t40 96t96 40t96 -40t40 -96t-40 -95.5t-96 -39.5z" />
    <glyph glyph-name="uni0230" unicode="&#x230;" horiz-adv-x="1591" 
d="M796 -35q-210 0 -361 92.5t-232 262.5t-81 401v2q0 232 82 401.5t233.5 261.5t358.5 92t358 -92t233 -261.5t82 -401.5v-2q0 -231 -81.5 -401t-232.5 -262.5t-359 -92.5zM796 163q137 0 236.5 69t153.5 194.5t54 294.5v2q0 170 -54 295t-154 193.5t-236 68.5
q-137 0 -237 -68.5t-154 -193.5t-54 -295v-2q0 -169 53 -294.5t153 -194.5t239 -69zM794 1522q-40 0 -67.5 27t-27.5 64v3q0 37 27.5 63t67.5 26h4q40 0 67 -25.5t27 -63.5v-2q0 -38 -27 -65t-67 -27h-4zM526 1765v128h540v-128h-540z" />
    <glyph glyph-name="uni0231" unicode="&#x231;" horiz-adv-x="1231" 
d="M616 -21q-239 0 -376.5 150.5t-137.5 412.5v2q0 262 138 412.5t376 150.5t375.5 -150.5t137.5 -412.5v-2q0 -262 -137 -412.5t-376 -150.5zM616 160q140 0 216 101t76 281v2q0 181 -76.5 281.5t-215.5 100.5q-140 0 -216 -100.5t-76 -281.5v-2q0 -180 76 -281t216 -101z
M283 1602v145h666v-145h-666zM615 1235q-46 0 -79 32.5t-33 78.5q0 47 33 79.5t79 32.5q47 0 80 -32.5t33 -79.5q0 -46 -33 -78.5t-80 -32.5z" />
    <glyph glyph-name="uni0232" unicode="&#x232;" horiz-adv-x="1381" 
d="M578 0v591l-508 852h249l363 -629h17l363 629h249l-509 -852v-591h-224zM364 1681v148h652v-148h-652z" />
    <glyph glyph-name="uni0233" unicode="&#x233;" horiz-adv-x="1152" 
d="M262 -382q-45 0 -87 5v171q16 -3 35.5 -3.5t37.5 -0.5q76 0 123 35.5t71 117.5l16 56l-394 1087h234l272 -868h19l271 868h228l-404 -1128q-46 -130 -102 -204t-133 -105t-187 -31zM234 1337v150h680v-150h-680z" />
    <glyph glyph-name="uni0237" unicode="&#x237;" horiz-adv-x="535" 
d="M23 -372q-12 0 -25 0.5t-23 0.5v178h30q83 0 118.5 32.5t35.5 114.5v1132h216v-1133q0 -167 -87.5 -246t-264.5 -79z" />
    <glyph glyph-name="uni0250" unicode="&#x250;" horiz-adv-x="1158" 
d="M704 1105q104 0 185 -40t128 -112.5t47 -171.5v-2q0 -146 -105.5 -228.5t-299.5 -93.5l-294 -18v-96q0 -185 222 -185q183 0 225 122l1 3h209l-1 -7q-20 -133 -139.5 -215t-304.5 -82q-205 0 -316 96.5t-111 267.5v743h215v-154h17q48 83 131 128t191 45zM365 685v-93
l265 17q112 7 165 47.5t53 113.5v2q0 75 -57.5 117t-144.5 42q-121 0 -201 -70.5t-80 -175.5z" />
    <glyph glyph-name="uni0251" unicode="&#x251;" horiz-adv-x="1285" 
d="M552 -18q-137 0 -238 69t-156.5 194.5t-55.5 296.5v2q0 172 55 298t156 194.5t239 68.5q112 0 201.5 -51.5t132.5 -139.5h17v172h216v-1086h-216v171h-17q-47 -89 -133.5 -139t-200.5 -50zM614 167q135 0 213.5 100.5t78.5 274.5v2q0 174 -78.5 274.5t-213.5 100.5
q-136 0 -213.5 -100t-77.5 -275v-2q0 -175 77 -275t214 -100z" />
    <glyph glyph-name="uni0252" unicode="&#x252;" horiz-adv-x="1285" 
d="M733 1105q137 0 238 -69t156.5 -195t55.5 -297v-2q0 -172 -55 -297.5t-156 -194t-239 -68.5q-112 0 -201 51.5t-133 138.5h-16v-172h-217v1086h217v-171h16q48 89 134 139.5t200 50.5zM672 919q-136 0 -214.5 -100.5t-78.5 -274.5v-2q0 -174 78.5 -274.5t214.5 -100.5
t213 100t77 275v2q0 175 -77 275t-213 100z" />
    <glyph glyph-name="uni0253" unicode="&#x253;" horiz-adv-x="1285" 
d="M733 -18q-114 0 -200 50t-134 139h-16v-171h-217v1209q0 313 320 313q52 0 88 -5v-167q-21 2 -51 2q-140 0 -140 -138v-300h16q44 88 133 139.5t201 51.5q138 0 239 -68.5t156 -194.5t55 -298v-2q0 -171 -55.5 -296.5t-156.5 -194.5t-238 -69zM672 167q136 0 213 100
t77 275v2q0 175 -77 275t-213 100t-214.5 -100.5t-78.5 -274.5v-2q0 -174 78.5 -274.5t214.5 -100.5z" />
    <glyph glyph-name="uni0254" unicode="&#x254;" horiz-adv-x="1167" 
d="M553 1107q238 0 374.5 -151.5t136.5 -414.5v-2q0 -259 -136 -409.5t-374 -150.5q-204 0 -323.5 103.5t-141.5 262.5l-1 4h209l1 -2q18 -80 83 -133.5t173 -53.5q135 0 212.5 101.5t77.5 277.5v2q0 179 -78 282t-212 103q-202 0 -255 -178l-2 -5l-208 -1l2 9
q29 159 145 257.5t317 98.5z" />
    <glyph glyph-name="uni0255" unicode="&#x255;" horiz-adv-x="1167" 
d="M578 -274v256q-135 13 -243 78t-170.5 184.5t-62.5 298.5v2q0 262 136.5 412.5t373.5 150.5q202 0 321.5 -103t143.5 -257l1 -11h-209l-2 7q-20 77 -84 130t-171 53q-136 0 -213 -102.5t-77 -281.5v-2q0 -165 62 -271.5t194 -132.5v68q0 129 68 215.5t197 86.5
q110 0 177 -65.5t67 -160.5v-2q0 -118 -97 -197.5t-251 -98.5v-257h-161zM739 213v-80q97 11 139.5 49t42.5 87v2q0 41 -23.5 62.5t-55.5 21.5q-46 0 -74.5 -37t-28.5 -105z" />
    <glyph glyph-name="uni0256" unicode="&#x256;" horiz-adv-x="1285" 
d="M552 -18q-137 0 -238 69t-156.5 194.5t-55.5 296.5v2q0 172 55 298t156 194.5t239 68.5q112 0 201.5 -51.5t132.5 -139.5h17v598h216v-1582q0 -138 140 -138q30 0 51 3v-167q-36 -6 -88 -6q-319 0 -319 313v236h-17q-47 -89 -133.5 -139t-200.5 -50zM614 167
q135 0 213.5 100.5t78.5 274.5v2q0 174 -78.5 274.5t-213.5 100.5q-136 0 -213.5 -100t-77.5 -275v-2q0 -175 77 -275t214 -100z" />
    <glyph glyph-name="uni0257" unicode="&#x257;" horiz-adv-x="1285" 
d="M552 -18q-137 0 -238 69t-156.5 194.5t-55.5 296.5v2q0 172 55 298t156 194.5t239 68.5q112 0 201.5 -51.5t132.5 -139.5h17v295q0 313 319 313q52 0 88 -5v-167q-21 2 -51 2q-140 0 -140 -138v-1214h-216v171h-17q-47 -89 -133.5 -139t-200.5 -50zM614 167
q135 0 213.5 100.5t78.5 274.5v2q0 174 -78.5 274.5t-213.5 100.5q-136 0 -213.5 -100t-77.5 -275v-2q0 -175 77 -275t214 -100z" />
    <glyph glyph-name="uni0258" unicode="&#x258;" horiz-adv-x="1192" 
d="M580 -21q-139 0 -236 46t-153.5 115.5t-74.5 141.5l-2 9l209 -1l4 -8q19 -42 81 -83.5t167 -41.5q134 0 213.5 86.5t82.5 242.5h-769v76q0 163 59 285.5t169 191t261 68.5q152 0 264 -71t173.5 -198t61.5 -297v-1q0 -172 -61.5 -297.5t-175.5 -194.5t-273 -69zM590 929
q-111 0 -185.5 -71t-88.5 -217h553q-14 140 -91 214t-188 74z" />
    <glyph glyph-name="uni025A" unicode="&#x25a;" horiz-adv-x="1599" 
d="M580 1107q225 0 359.5 -136.5t148.5 -370.5h320v-112q0 -137 140 -137q30 0 51 2v-167q-14 -3 -37 -4t-48 -1q-137 0 -213.5 65.5t-84.5 205.5h-131q-25 -215 -156.5 -344t-337.5 -129q-151 0 -261 68.5t-169 191t-59 285.5v76h769q-3 156 -82.5 242.5t-213.5 86.5
q-105 0 -167 -41.5t-81 -83.5l-4 -8h-209l2 9q18 71 74.5 140.5t153.5 115.5t236 46zM590 157q111 0 188 74t91 214h-553q14 -145 88.5 -216.5t185.5 -71.5z" />
    <glyph glyph-name="uni025B" unicode="&#x25b;" horiz-adv-x="1102" 
d="M565 -21q-218 0 -339.5 88.5t-121.5 224.5v2q0 183 198 245v17q-177 64 -177 233v2q0 96 56.5 167.5t156.5 110.5t231 39q198 0 319 -79.5t151 -235.5l3 -19h-214l-4 12q-45 143 -253 143q-106 0 -171.5 -40.5t-65.5 -109.5v-2q0 -62 55.5 -102t167.5 -40h145v-174h-144
q-117 0 -175 -41.5t-58 -107.5v-2q0 -69 64 -110.5t181 -41.5q108 0 180 46t94 123l3 11h219l-4 -15q-21 -101 -89.5 -179t-173 -121.5t-234.5 -43.5z" />
    <glyph glyph-name="uni025C" unicode="&#x25c;" horiz-adv-x="1102" 
d="M537 -21q-130 0 -235 43.5t-173 121.5t-90 179l-3 15h219l3 -11q21 -77 93.5 -123t180.5 -46q117 0 181 41.5t64 110.5v2q0 66 -58 107.5t-175 41.5h-144v174h144q112 0 167.5 40t55.5 102v2q0 69 -65.5 109.5t-170.5 40.5q-209 0 -254 -143l-4 -12h-214l4 19
q29 156 150.5 235.5t318.5 79.5q131 0 231.5 -39t157 -110.5t56.5 -167.5v-2q0 -169 -177 -233v-17q198 -62 198 -245v-2q0 -136 -122 -224.5t-339 -88.5z" />
    <glyph glyph-name="uni025D" unicode="&#x25d;" horiz-adv-x="1486" 
d="M537 -21q-130 0 -235 43.5t-173 121.5t-90 179l-3 15h219l3 -11q21 -77 93.5 -123t180.5 -46q117 0 181 41.5t64 110.5v2q0 66 -58 107.5t-175 41.5h-144v174h144q112 0 167.5 40t55.5 102v2q0 69 -65.5 109.5t-170.5 40.5q-209 0 -254 -143l-4 -12h-214l4 19
q29 156 150.5 235.5t318.5 79.5q131 0 231.5 -39t157 -110.5t56.5 -167.5v-2q0 -94 -53 -154h371v-111q0 -138 140 -138q30 0 51 2v-167q-14 -3 -37 -4t-48 -1q-137 0 -213.5 65.5t-84.5 205.5h-197q92 -68 92 -193v-2q0 -136 -122 -224.5t-339 -88.5z" />
    <glyph glyph-name="uni025E" unicode="&#x25e;" horiz-adv-x="1283" 
d="M714 -21q-189 0 -316 75t-191 202.5t-64 283.5v2q0 158 62.5 286t188.5 204t317 76q140 0 243.5 -41t160 -112.5t56.5 -164.5v-2q0 -86 -47 -148t-148 -94v-4q102 -31 152.5 -94.5t50.5 -151.5v-2q0 -149 -129 -232t-336 -83zM716 156q124 0 188 43t64 108v2
q0 75 -63 115t-169 40h-144v166h140q106 0 168.5 37.5t62.5 110.5v2q0 66 -63 108t-184 42q-182 0 -270 -109.5t-88 -276.5v-2q0 -166 87.5 -276t270.5 -110z" />
    <glyph glyph-name="uni025F" unicode="&#x25f;" horiz-adv-x="714" 
d="M113 -372q-11 0 -24.5 0.5t-22.5 0.5v178h30q83 0 118 32.5t35 114.5v568h-196v148h196v416h217v-416h195v-148h-195v-569q0 -167 -87.5 -246t-265.5 -79z" />
    <glyph glyph-name="uni0260" unicode="&#x260;" horiz-adv-x="1274" 
d="M615 -383q-207 0 -329.5 83t-142.5 219l2 2h219l1 -2q13 -56 78 -92t175 -36q134 0 209.5 60.5t75.5 171.5v214h-16q-49 -89 -136 -136.5t-199 -47.5q-140 0 -241 66.5t-155.5 184t-54.5 270.5v2q0 155 55 274.5t157 187t243 67.5q114 0 200 -52.5t133 -144.5h13v301
q0 313 319 313q52 0 88 -5v-167q-21 2 -51 2q-140 0 -140 -138v-1192q0 -186 -136 -295.5t-367 -109.5zM612 232q138 0 216.5 95.5t78.5 247.5v2q0 151 -79 247.5t-216 96.5q-139 0 -214 -96.5t-75 -247.5v-2q0 -152 75 -247.5t214 -95.5z" />
    <glyph glyph-name="uni0261" unicode="&#x261;" horiz-adv-x="1274" 
d="M615 -383q-207 0 -329.5 83t-142.5 219l2 2h219l1 -2q13 -56 78 -92t175 -36q134 0 209.5 60.5t75.5 171.5v214h-16q-49 -89 -136 -136.5t-199 -47.5q-140 0 -241 66.5t-155.5 184t-54.5 270.5v2q0 155 55 274.5t157 187t243 67.5q114 0 200 -52.5t133 -144.5h13v178h216
v-1064q0 -186 -136 -295.5t-367 -109.5zM612 232q138 0 216.5 95.5t78.5 247.5v2q0 151 -79 247.5t-216 96.5q-139 0 -214 -96.5t-75 -247.5v-2q0 -152 75 -247.5t214 -95.5z" />
    <glyph glyph-name="uni0262" unicode="&#x262;" horiz-adv-x="1215" 
d="M627 -27q-162 0 -280 69t-181.5 197t-63.5 304v2q0 173 63.5 301t180.5 198t276 70q129 0 231.5 -45.5t167 -126t82.5 -187.5l1 -7h-215l-2 7q-25 87 -94.5 134.5t-170.5 47.5q-138 0 -218.5 -105t-80.5 -286v-1q0 -183 83 -289.5t224 -106.5q119 0 193.5 68t77.5 179v22
h-249v155h461v-137q0 -213 -131.5 -338t-354.5 -125z" />
    <glyph glyph-name="uni0263" unicode="&#x263;" horiz-adv-x="1142" 
d="M571 -383q-114 0 -183.5 68t-69.5 171v1q0 69 22.5 131.5t59.5 136.5l61 122l-399 839h230l279 -647l279 647h231l-400 -839l61 -122q37 -74 59.5 -136.5t22.5 -131.5v-1q0 -103 -69.5 -171t-183.5 -68zM571 -234q39 0 64 26.5t25 71.5v1q0 34 -16.5 78t-56.5 127l-16 34
l-16 -34q-40 -83 -56.5 -127t-16.5 -78v-1q0 -45 25 -71.5t64 -26.5z" />
    <glyph glyph-name="uni0264" unicode="&#x264;" horiz-adv-x="1051" 
d="M526 -21q-107 0 -172.5 58.5t-65.5 145.5v2q0 54 21 104.5t56 112.5l41 65l-350 619h231l238 -446l239 446h231l-351 -619l42 -65q35 -62 56 -112.5t21 -104.5v-2q0 -87 -65.5 -145.5t-171.5 -58.5zM526 117q34 0 56 18.5t22 47.5v1q0 41 -63 133l-16 35l-15 -35
q-63 -92 -63 -133v-1q0 -29 22 -47.5t57 -18.5z" />
    <glyph glyph-name="uni0265" unicode="&#x265;" horiz-adv-x="1237" 
d="M1071 1086v-1448h-216v527h-17q-40 -87 -118 -136.5t-197 -49.5q-182 0 -279.5 105t-97.5 299v703h217v-652q0 -269 234 -269q119 0 188.5 76.5t69.5 207.5v637h216z" />
    <glyph glyph-name="uni0266" unicode="&#x266;" horiz-adv-x="1237" 
d="M166 0v1209q0 313 320 313q52 0 88 -5v-167q-21 2 -51 2q-140 0 -140 -138v-293h16q40 87 118 136.5t197 49.5q182 0 279.5 -105t97.5 -299v-703h-216v652q0 269 -234 269q-119 0 -188.5 -76.5t-69.5 -207.5v-637h-217z" />
    <glyph glyph-name="uni0267" unicode="&#x267;" horiz-adv-x="1237" 
d="M166 0v1209q0 313 320 313q52 0 88 -5v-167q-21 2 -51 2q-140 0 -140 -138v-293h16q40 87 118 136.5t197 49.5q182 0 279.5 -105t97.5 -299v-768q0 -313 -319 -313q-53 0 -88 6v167q20 -3 51 -3q140 0 140 138v722q0 269 -234 269q-119 0 -188.5 -76.5t-69.5 -207.5v-637
h-217z" />
    <glyph glyph-name="uni0268" unicode="&#x268;" horiz-adv-x="678" 
d="M340 1280q-56 0 -96 39.5t-40 95.5t40 96t96 40t96 -40t40 -96t-40 -95.5t-96 -39.5zM231 0v522h-178v148h178v416h216v-416h178v-148h-178v-522h-216z" />
    <glyph glyph-name="uni0269" unicode="&#x269;" horiz-adv-x="646" 
d="M479 -10q-177 0 -250 70.5t-73 223.5v802h217v-751q0 -86 34 -126t116 -40q23 0 64 4v-172q-51 -11 -108 -11z" />
    <glyph glyph-name="uni026A" unicode="&#x26a;" horiz-adv-x="808" 
d="M88 0v161h208v765h-208v160h632v-160h-208v-765h208v-161h-632z" />
    <glyph glyph-name="uni026B" unicode="&#x26b;" horiz-adv-x="806" 
d="M295 0v761q-31 15 -57 15q-61 0 -106.5 -35t-76.5 -89v170q31 52 78 86t112 34q24 0 50 -9v579h217v-717q31 -15 57 -15q61 0 106.5 35.5t76.5 89.5v-171q-31 -51 -78 -85.5t-112 -34.5q-24 0 -50 9v-623h-217z" />
    <glyph glyph-name="uni026C" unicode="&#x26c;" horiz-adv-x="859" 
d="M353 0v605h-33q-130 0 -218.5 65t-88.5 187v2q0 103 66.5 164t163.5 61q61 0 110 -35v463h216v-758h269v-149h-269v-605h-216zM321 754h32v55q-1 65 -31 96.5t-69 31.5q-37 0 -57.5 -23t-20.5 -55v-2q0 -45 39.5 -74t106.5 -29z" />
    <glyph glyph-name="uni026D" unicode="&#x26d;" horiz-adv-x="549" 
d="M383 1512v-1582q0 -138 140 -138q30 0 51 3v-167q-36 -6 -88 -6q-320 0 -320 313v1577h217z" />
    <glyph glyph-name="uni026E" unicode="&#x26e;" horiz-adv-x="1662" 
d="M166 0v1512h217v-426h1048v-149l-357 -402v-16q197 -24 306.5 -140t109.5 -299v-2q0 -132 -59 -236t-165 -164t-247 -60q-128 0 -228.5 50t-160.5 140t-68 213l-1 14h212l2 -14q12 -102 78.5 -161.5t165.5 -59.5q121 0 185.5 76t64.5 199v2q0 128 -87.5 203t-238.5 75
h-107v183l319 360v17h-772v-915h-217z" />
    <glyph glyph-name="uni026F" unicode="&#x26f;" horiz-adv-x="1828" 
d="M1671 1086v-1086h-216v167h-17q-35 -89 -112 -138.5t-184 -49.5q-110 0 -187 53t-113 141h-17q-42 -87 -130 -140.5t-201 -53.5q-165 0 -256.5 94.5t-91.5 264.5v748h217v-697q0 -224 209 -224q104 0 166.5 68t62.5 166v687h217v-719q0 -93 56.5 -147.5t152.5 -54.5
q98 0 163 74t65 181v666h216z" />
    <glyph glyph-name="uni0270" unicode="&#x270;" horiz-adv-x="1828" 
d="M1455 -362v529h-17q-35 -89 -112 -138.5t-184 -49.5q-110 0 -187 53t-113 141h-17q-42 -87 -130 -140.5t-201 -53.5q-165 0 -256.5 94.5t-91.5 264.5v748h217v-697q0 -224 209 -224q104 0 166.5 68t62.5 166v687h217v-719q0 -93 56.5 -147.5t152.5 -54.5q98 0 163 74
t65 181v666h216v-1448h-216z" />
    <glyph glyph-name="uni0271" unicode="&#x271;" horiz-adv-x="1828" 
d="M156 0v1086h217v-167h16q36 90 113 139t183 49q111 0 188 -53t113 -141h17q41 88 129.5 141t201.5 53q164 0 255.5 -94t91.5 -264v-814q0 -313 -319 -313q-52 0 -88 6v167q21 -3 51 -3q140 0 140 138v767q0 224 -210 224q-104 0 -166.5 -68t-62.5 -166v-687h-216v719
q0 93 -56.5 147.5t-152.5 54.5q-98 0 -163 -73.5t-65 -180.5v-667h-217z" />
    <glyph glyph-name="uni0272" unicode="&#x272;" horiz-adv-x="1227" 
d="M373 637v-702q0 -313 -320 -313q-52 0 -88 6v167q21 -3 51 -3q140 0 140 138v1156h217v-165h16q40 87 118 136.5t197 49.5q182 0 279.5 -105t97.5 -299v-703h-216v652q0 269 -234 269q-119 0 -188.5 -76.5t-69.5 -207.5z" />
    <glyph glyph-name="uni0273" unicode="&#x273;" horiz-adv-x="1227" 
d="M156 0v1086h217v-165h16q40 87 118 136.5t197 49.5q182 0 279.5 -105t97.5 -299v-773q0 -138 140 -138q30 0 51 3v-167q-36 -6 -88 -6q-319 0 -319 313v717q0 269 -234 269q-119 0 -188.5 -76.5t-69.5 -207.5v-637h-217z" />
    <glyph glyph-name="uni0274" unicode="&#x274;" horiz-adv-x="1266" 
d="M156 0v1086h185l548 -729h13v729h208v-1086h-184l-549 731h-13v-731h-208z" />
    <glyph glyph-name="uni0275" unicode="&#x275;" horiz-adv-x="1231" 
d="M616 -21q-239 0 -376.5 150.5t-137.5 412.5v2q0 262 138 412.5t376 150.5t375.5 -150.5t137.5 -412.5v-2q0 -262 -137 -412.5t-376 -150.5zM616 926q-123 0 -197 -78t-91 -220h575q-17 142 -91 220t-196 78zM616 160q127 0 201.5 84t87.5 236h-579q13 -152 87.5 -236
t202.5 -84z" />
    <glyph glyph-name="uni0276" unicode="&#x276;" horiz-adv-x="1825" 
d="M616 -27q-240 0 -377 151.5t-137 418.5v1q0 266 137 418t377 152q121 0 225 -56t148 -144h14v172h720v-171h-537v-284h507v-161h-507v-298h537v-172h-720v178h-14q-46 -92 -148.5 -148.5t-224.5 -56.5zM650 149q146 0 231.5 106.5t85.5 287.5v1q0 181 -85.5 287
t-231.5 106q-150 0 -238.5 -106t-88.5 -287v-1q0 -181 88.5 -287.5t238.5 -106.5z" />
    <glyph glyph-name="uni0277" unicode="&#x277;" horiz-adv-x="1618" 
d="M497 -21q-123 0 -208.5 64.5t-130 172t-44.5 236.5v2q0 123 43 240t130 210.5t217.5 148.5t304.5 55t304.5 -55t217.5 -148.5t130 -210.5t43 -240v-2q0 -129 -44.5 -236.5t-130 -172t-208.5 -64.5q-108 0 -191 62t-119 183h-5q-35 -121 -118 -183t-191 -62zM525 162
q90 0 136.5 71.5t46.5 196.5v209h202v-209q0 -125 46.5 -196.5t136.5 -71.5q107 0 152.5 89t45.5 218v2q0 116 -49.5 220.5t-156 170t-276.5 65.5t-276.5 -65.5t-156 -170t-49.5 -220.5v-2q0 -129 45.5 -218t152.5 -89z" />
    <glyph glyph-name="uni0278" unicode="&#x278;" horiz-adv-x="1522" 
d="M657 -362v342q-180 11 -306 84.5t-192.5 196t-66.5 281.5v1q0 178 75 300t203 188t287 75v254h208v-254q160 -9 287.5 -75t202.5 -188t75 -300v-1q0 -159 -66.5 -281.5t-192.5 -196t-306 -84.5v-342h-208zM659 152v780q-168 -18 -259.5 -119t-91.5 -270v-1
q0 -160 86.5 -264.5t264.5 -125.5zM864 152q177 21 264 125.5t87 264.5v1q0 176 -95.5 274t-255.5 115v-780z" />
    <glyph glyph-name="uni0279" unicode="&#x279;" horiz-adv-x="820" 
d="M664 1086v-1086h-217v164h-16q-30 -86 -103 -134t-182 -48q-26 0 -52.5 2.5t-42.5 6.5v200q29 -6 58 -9t59 -3q125 0 202 70t77 188v649h217z" />
    <glyph glyph-name="uni027A" unicode="&#x27a;" horiz-adv-x="820" 
d="M447 1512h217v-1512h-217v164h-16q-30 -86 -103 -134t-182 -48q-26 0 -52.5 2.5t-42.5 6.5v200q29 -6 58 -9t59 -3q125 0 202 70t77 188v1075z" />
    <glyph glyph-name="uni027B" unicode="&#x27b;" horiz-adv-x="820" 
d="M664 1086v-1156q0 -138 140 -138q30 0 51 3v-167q-36 -6 -88 -6q-320 0 -320 313v229h-16q-30 -86 -103 -134t-182 -48q-26 0 -52.5 2.5t-42.5 6.5v200q29 -6 58 -9t59 -3q125 0 202 70t77 188v649h217z" />
    <glyph glyph-name="uni027C" unicode="&#x27c;" horiz-adv-x="820" 
d="M156 -362v1448h217v-164h16q30 87 103 135t182 48q26 0 52.5 -3t42.5 -7v-200q-29 6 -58 9.5t-59 3.5q-125 0 -202 -70.5t-77 -188.5v-1011h-217z" />
    <glyph glyph-name="uni027D" unicode="&#x27d;" horiz-adv-x="820" 
d="M373 649v-719q0 -138 140 -138q30 0 51 3v-167q-36 -6 -88 -6q-320 0 -320 313v1151h217v-164h16q30 87 103 135t182 48q26 0 52.5 -3t42.5 -7v-200q-29 6 -58 9.5t-59 3.5q-125 0 -202 -70.5t-77 -188.5z" />
    <glyph glyph-name="uni027E" unicode="&#x27e;" horiz-adv-x="615" 
d="M156 0v792q0 313 320 313q52 0 88 -5v-168q-21 3 -51 3q-140 0 -140 -138v-797h-217z" />
    <glyph glyph-name="uni027F" unicode="&#x27f;" horiz-adv-x="615" 
d="M459 0h-217v797q0 138 -140 138q-30 0 -51 -3v168q36 5 88 5q320 0 320 -313v-792z" />
    <glyph glyph-name="uni0280" unicode="&#x280;" horiz-adv-x="1132" 
d="M156 0v1086h466q188 0 293 -91.5t105 -248.5v-1q0 -107 -55.5 -190t-156.5 -118l246 -437h-247l-219 405h-215v-405h-217zM373 559h227q94 0 146 48t52 133v2q0 83 -54 131.5t-148 48.5h-223v-363z" />
    <glyph glyph-name="uni0281" unicode="&#x281;" horiz-adv-x="1132" 
d="M976 1086v-1086h-466q-187 0 -292.5 91.5t-105.5 249.5v1q0 106 56 189.5t156 118.5l-246 436h247l219 -405h216v405h216zM760 527h-227q-94 0 -146.5 -48t-52.5 -132v-2q0 -84 54.5 -132.5t147.5 -48.5h224v363z" />
    <glyph glyph-name="uni0282" unicode="&#x282;" horiz-adv-x="1104" 
d="M102 285h217l1 -1q20 -62 79 -99.5t156 -37.5q100 0 163.5 41.5t63.5 108.5v2q0 51 -41.5 86t-135.5 57l-173 40q-153 35 -226.5 107.5t-73.5 191.5v1q0 94 54 167.5t149.5 115.5t218.5 42q186 0 298.5 -84t127.5 -217v-1h-207v2q-16 57 -72 95t-148 38q-89 0 -147 -40.5
t-58 -105.5v-2q0 -51 40 -84t132 -55l172 -39q157 -37 233 -107t76 -188v-2q0 -101 -59 -177t-160.5 -118.5t-230.5 -42.5q-148 0 -256 51v-100q0 -138 140 -138q30 0 51 3v-167q-14 -3 -37 -4.5t-47 -1.5q-147 0 -223.5 74.5t-76.5 233.5v355z" />
    <glyph glyph-name="uni0283" unicode="&#x283;" horiz-adv-x="868" 
d="M326 -50v1250q0 322 336 322q72 0 128 -10v-159q-28 5 -83 5q-89 0 -127 -43t-38 -125v-1251q0 -322 -336 -322q-72 0 -128 11v159q28 -5 83 -5q89 0 127 42.5t38 125.5z" />
    <glyph glyph-name="uni0284" unicode="&#x284;" horiz-adv-x="919" 
d="M352 -50v519h-249v148h249v583q0 322 336 322q72 0 128 -10v-159q-28 5 -83 5q-89 0 -127 -43t-38 -125v-573h248v-148h-248v-530q0 -322 -336 -322q-72 0 -129 11v159q29 -5 84 -5q88 0 126.5 42.5t38.5 125.5z" />
    <glyph glyph-name="uni0285" unicode="&#x285;" horiz-adv-x="868" 
d="M542 -50q0 -83 38 -125.5t127 -42.5q55 0 83 5v-159q-56 -11 -128 -11q-336 0 -336 322v836q0 82 -38 125t-127 43q-55 0 -83 -5v159q56 10 128 10q336 0 336 -322v-835z" />
    <glyph glyph-name="uni0286" unicode="&#x286;" horiz-adv-x="832" 
d="M253 -347q-108 0 -178 64.5t-70 162.5v2q0 124 87.5 194.5t237.5 70.5h20v1045q0 168 83 249t253 81q72 0 129 -11v-161q-29 5 -83 5q-88 0 -126.5 -41.5t-38.5 -124.5v-1042h222v-155h-223q-8 -164 -94.5 -251.5t-218.5 -87.5zM253 -196q44 0 70.5 33t26.5 102v53h-35
q-74 0 -108.5 -30.5t-34.5 -75.5v-2q0 -35 22.5 -57.5t58.5 -22.5z" />
    <glyph glyph-name="uni0287" unicode="&#x287;" horiz-adv-x="780" 
d="M214 1105q179 0 258 -68t79 -225v-629h170v-171h-170v-274h-221v274h-233v171h233v577q0 87 -35 126t-116 39q-25 0 -42 -1t-40 -3v173q26 4 56 7.5t61 3.5z" />
    <glyph glyph-name="uni0288" unicode="&#x288;" horiz-adv-x="780" 
d="M59 915v171h172v274h217v-274h235v-171h-235v-985q0 -138 140 -138q30 0 51 3v-167q-36 -6 -88 -6q-320 0 -320 313v980h-172z" />
    <glyph glyph-name="uni0289" unicode="&#x289;" horiz-adv-x="1366" 
d="M49 522v148h165v416h217v-416h492v416h216v-416h174v-148h-174v-522h-216v164h-17q-39 -87 -120.5 -136t-199.5 -49q-184 0 -278 105.5t-94 298.5v139h-165zM431 434q0 -135 53 -202t172 -67q130 0 198.5 76.5t68.5 207.5v73h-492v-88z" />
    <glyph glyph-name="uni028A" unicode="&#x28a;" horiz-adv-x="1302" 
d="M651 -21q-164 0 -289 65t-195.5 179t-70.5 259v2q0 136 64 249t181 175v12h-245v166h454v-212q-121 -60 -177 -154t-56 -220v-2q0 -152 90 -245t244 -93t243.5 93t89.5 245v2q0 126 -56 220t-177 154v212h454v-166h-245v-12q118 -62 181.5 -175t63.5 -249v-2
q0 -145 -70 -259t-195 -179t-289 -65z" />
    <glyph glyph-name="uni028B" unicode="&#x28b;" horiz-adv-x="1182" 
d="M578 -21q-216 0 -327 117t-111 346v644h211v-628q0 -154 60.5 -224t171.5 -70q104 0 161.5 60.5t80 156t22.5 200.5v2q0 170 -44.5 257t-143.5 87q-40 0 -85 -10v167q61 24 138 24q164 0 260 -129t96 -397v-2q0 -189 -61 -323.5t-171 -206t-258 -71.5z" />
    <glyph glyph-name="uni028C" unicode="&#x28c;" horiz-adv-x="1140" 
d="M685 1086l393 -1086h-230l-271 866h-17l-270 -866h-228l392 1086h231z" />
    <glyph glyph-name="uni028D" unicode="&#x28d;" horiz-adv-x="1640" 
d="M1275 1086l299 -1086h-217l-195 839h-17l-223 -839h-206l-224 839h-17l-195 -839h-215l299 1086h224l225 -810h17l224 810h221z" />
    <glyph glyph-name="uni028E" unicode="&#x28e;" horiz-adv-x="1152" 
d="M890 1468q45 0 87 -5v-171q-16 3 -35.5 4t-37.5 1q-76 0 -123 -35.5t-71 -118.5l-16 -56l394 -1087h-234l-272 868h-19l-271 -868h-228l404 1128q46 130 102 204t133 105t187 31z" />
    <glyph glyph-name="uni028F" unicode="&#x28f;" horiz-adv-x="1138" 
d="M461 0v421l-399 665h236l265 -463h13l264 463h236l-399 -665v-421h-216z" />
    <glyph glyph-name="uni0290" unicode="&#x290;" horiz-adv-x="1124" 
d="M131 0v141l600 757v17h-596v171h852v-149l-587 -749v-17h593v-241q0 -138 140 -138q30 0 51 3v-167q-14 -3 -37 -4.5t-47 -1.5q-147 0 -223.5 74.5t-76.5 233.5v70h-669z" />
    <glyph glyph-name="uni0291" unicode="&#x291;" horiz-adv-x="1182" 
d="M614 -268v268h-483v141l600 757v17h-596v171h852v-149l-601 -767v-16h229v36q0 130 71 213.5t196 83.5q104 0 171 -64t67 -165v-2q0 -103 -83.5 -179.5t-247.5 -76.5h-15v-268h-160zM774 200v-46h45q67 0 101 28.5t34 70.5v2q0 38 -21.5 58t-53.5 20q-44 0 -74.5 -32.5
t-30.5 -100.5z" />
    <glyph glyph-name="uni0292" unicode="&#x292;" horiz-adv-x="1189" 
d="M579 -382q-134 0 -239 50t-168 140t-72 213l-1 14h214l2 -14q13 -102 84.5 -161.5t179.5 -59.5q130 0 200 76t70 199v2q0 128 -93.5 203t-255.5 75h-108v183l338 360v17h-573v171h853v-149l-379 -402v-16q207 -24 323 -140t116 -299v-2q0 -132 -61.5 -236t-172 -164
t-257.5 -60z" />
    <glyph glyph-name="uni0293" unicode="&#x293;" horiz-adv-x="1158" 
d="M446 -603v244q-167 20 -252.5 103t-85.5 193v2q0 103 66.5 168t169.5 65q128 0 194.5 -78.5t66.5 -215.5v-80q122 21 169.5 102t47.5 173v2q0 125 -91 198t-249 73h-106v173l325 346v16h-550v171h828v-149l-365 -386v-16q201 -24 313 -134t112 -285v-2q0 -115 -52 -210
t-149 -156t-232 -75v-242h-160zM271 -60q0 -52 44.5 -90.5t130.5 -51.5v71q0 73 -26.5 112t-71.5 39q-31 0 -54 -19.5t-23 -58.5v-2z" />
    <glyph glyph-name="uni0294" unicode="&#x294;" horiz-adv-x="1087" 
d="M397 0v532q0 108 47 191.5t164 177.5q84 68 116 122t32 123v2q0 90 -60 145t-159 55q-111 0 -177 -60t-75 -161l-1 -9h-210l1 12q6 115 60 206t156 144t252 53q132 0 231 -47.5t153.5 -132.5t54.5 -197v-2q0 -106 -53 -195t-157 -177q-65 -54 -100.5 -94.5t-49 -80.5
t-13.5 -94v-513h-212z" />
    <glyph glyph-name="uni0295" unicode="&#x295;" horiz-adv-x="1087" 
d="M690 0h-212v513q0 54 -13.5 94t-49 80.5t-100.5 94.5q-104 88 -157 177t-53 195v2q0 112 54.5 197t153.5 132.5t231 47.5q150 0 252 -53t156 -144t60 -206l1 -12h-210l-1 9q-9 101 -75 161t-177 60q-99 0 -159 -55t-60 -145v-2q0 -69 32 -123t116 -122
q117 -94 164 -177.5t47 -191.5v-532z" />
    <glyph glyph-name="uni0296" unicode="&#x296;" horiz-adv-x="1087" 
d="M397 1512h212v-513q0 -54 13.5 -94t49 -80.5t100.5 -95.5q104 -87 157 -176t53 -195v-2q0 -112 -54.5 -197t-153.5 -132.5t-231 -47.5q-150 0 -252 53t-156 144t-60 205l-1 12h210l1 -8q9 -101 75 -161t177 -60q99 0 159 55t60 145v2q0 69 -32 123t-116 122
q-117 94 -164 177.5t-47 191.5v532z" />
    <glyph glyph-name="uni0297" unicode="&#x297;" horiz-adv-x="1167" 
d="M613 -383q-159 0 -273.5 91.5t-176 257.5t-61.5 388v3q0 218 61.5 381t176 254t272.5 91q137 0 235.5 -59.5t157 -159t73.5 -220.5v-8l-208 -1l-1 5q-18 105 -83 181t-173 76q-136 0 -213 -147.5t-77 -392.5v-3q0 -166 35 -290t100 -192.5t155 -68.5q202 0 255 247l2 9
l207 1l-1 -16q-20 -123 -78 -219.5t-154 -152t-231 -55.5z" />
    <glyph glyph-name="uni0298" unicode="&#x298;" horiz-adv-x="1384" 
d="M692 -35q-177 0 -304.5 92.5t-196.5 262.5t-69 401v2q0 232 69.5 401.5t197.5 261.5t303 92q176 0 304 -92t197 -261.5t69 -401.5v-2q0 -231 -69 -401t-196.5 -262.5t-304.5 -92.5zM692 163q109 0 189 69t123 194.5t43 294.5v2q0 255 -96 406t-259 151t-259 -151
t-96 -406v-2q0 -169 43 -294.5t122.5 -194.5t189.5 -69zM801 733v-2q0 -45 -31.5 -76t-76.5 -31h-2q-45 0 -76.5 31t-31.5 76v2q0 46 31.5 77t76.5 31h2q45 0 76.5 -31t31.5 -77z" />
    <glyph glyph-name="uni0299" unicode="&#x299;" horiz-adv-x="1211" 
d="M156 0v1086h507q173 0 271.5 -72.5t98.5 -197.5v-2q0 -85 -62.5 -152t-153.5 -80v-12q122 -10 198.5 -82.5t76.5 -177.5v-1q0 -143 -111.5 -226t-305.5 -83h-519zM610 929h-237v-299h209q236 0 236 149v1q0 70 -54.5 109.5t-153.5 39.5zM617 489h-244v-332h253
q245 0 245 166v2q0 164 -254 164z" />
    <glyph glyph-name="uni029A" unicode="&#x29a;" horiz-adv-x="1283" 
d="M569 -21q-207 0 -336 83t-129 232v2q0 88 50.5 151.5t152.5 94.5v4q-101 32 -148 94t-47 148v2q0 93 56.5 164.5t160 112.5t244.5 41q190 0 316 -76t188.5 -204t62.5 -286v-2q0 -156 -64 -283.5t-191 -202.5t-316 -75zM567 156q183 0 270.5 110t87.5 276v2
q0 167 -87.5 276.5t-270.5 109.5q-120 0 -183 -42t-63 -108v-2q0 -73 62 -110.5t168 -37.5h140v-166h-143q-106 0 -169.5 -40t-63.5 -115v-2q0 -65 64 -108t188 -43z" />
    <glyph glyph-name="uni029B" unicode="&#x29b;" horiz-adv-x="1304" 
d="M627 -27q-162 0 -280 69t-181.5 197t-63.5 304v2q0 173 63.5 301t180.5 198t276 70q87 0 162.5 -21.5t135.5 -59.5v181q0 159 76.5 233.5t223.5 74.5q24 0 47 -1.5t37 -3.5v-167q-21 2 -51 2q-140 0 -140 -138v-467h-193v1h-31l-2 7q-25 87 -94.5 134.5t-170.5 47.5
q-138 0 -218.5 -105t-80.5 -286v-1q0 -183 83 -289.5t224 -106.5q119 0 193.5 68t77.5 179v22h-249v155h461v-137q0 -213 -131.5 -338t-354.5 -125z" />
    <glyph glyph-name="uni029C" unicode="&#x29c;" horiz-adv-x="1285" 
d="M156 0v1086h217v-448h539v448h217v-1086h-217v467h-539v-467h-217z" />
    <glyph glyph-name="uni029D" unicode="&#x29d;" horiz-adv-x="827" 
d="M466 1280q-56 0 -96 39.5t-40 95.5t40 96t96 40t96 -40t40 -96t-40 -95.5t-96 -39.5zM259 -339q-107 0 -177.5 64.5t-70.5 162.5v2q0 123 87.5 193t237.5 70h21v933h217v-933h221v-151h-222q-7 -165 -93.5 -253t-220.5 -88zM259 -188q44 0 71 33.5t27 101.5v55h-35
q-75 0 -109.5 -30.5t-34.5 -77.5v-2q0 -34 22.5 -57t58.5 -23z" />
    <glyph glyph-name="uni029E" unicode="&#x29e;" horiz-adv-x="1155" 
d="M305 1086l374 -487l93 93v394h217v-1511h-217v883h-16l-431 -458h-254l453 458l-483 628h264z" />
    <glyph glyph-name="uni029F" unicode="&#x29f;" horiz-adv-x="981" 
d="M156 0v1086h217v-915h517v-171h-734z" />
    <glyph glyph-name="uni02A0" unicode="&#x2a0;" horiz-adv-x="1276" 
d="M905 -362v526h-17q-43 -86 -130.5 -134t-204.5 -48q-137 0 -238 69t-156.5 194.5t-55.5 296.5v2q0 172 55 298t156.5 194.5t240.5 68.5q110 0 199 -53t138 -146h13v303q0 313 319 313q53 0 88 -5v-167q-20 2 -51 2q-140 0 -140 -138v-1576h-216zM616 167q135 0 214 101
t79 274v2q0 173 -79.5 274t-214.5 101q-136 0 -213.5 -100t-77.5 -275v-2q0 -175 77.5 -275t214.5 -100z" />
    <glyph glyph-name="uni02A1" unicode="&#x2a1;" horiz-adv-x="967" 
d="M107 274v148h240v110q0 108 47 191.5t164 177.5q84 68 116 122t32 123v2q0 90 -60 145t-159 55q-111 0 -177 -60t-75 -161l-1 -9h-210l1 12q6 115 60 206t156 144t252 53q132 0 231 -47.5t153.5 -132.5t54.5 -197v-2q0 -106 -53 -195t-157 -177q-65 -54 -100.5 -94.5
t-49 -80.5t-13.5 -94v-91h229v-148h-229v-274h-212v274h-240z" />
    <glyph glyph-name="uni02A2" unicode="&#x2a2;" horiz-adv-x="967" 
d="M179 274v148h229v91q0 54 -14 94t-49 80.5t-100 94.5q-104 88 -157.5 177t-53.5 195v2q0 112 55 197t153.5 132.5t230.5 47.5q150 0 252 -53t156 -144t60 -206l1 -12h-210l-1 9q-8 101 -74 161t-177 60q-100 0 -159.5 -55t-59.5 -145v-2q0 -69 32 -123t115 -122
q117 -94 164 -177.5t47 -191.5v-110h241v-148h-241v-274h-211v274h-229z" />
    <glyph glyph-name="uni02A3" unicode="&#x2a3;" horiz-adv-x="2326" 
d="M552 -18q-137 0 -238 69t-156.5 194.5t-55.5 296.5v2q0 172 55 298t156 194.5t239 68.5q112 0 201.5 -51.5t132.5 -139.5h17v598h216v-1512h-216v171h-17q-47 -89 -133.5 -139t-200.5 -50zM1265 149v157l714 613l-802 -96v114h823l21 18v-18h172v-159l-657 -617l568 103
v-115h-581l-19 -18v18h-239zM614 167q135 0 213.5 100.5t78.5 274.5v2q0 174 -78.5 274.5t-213.5 100.5q-136 0 -213.5 -100t-77.5 -275v-2q0 -175 77 -275t214 -100z" />
    <glyph glyph-name="uni02A4" unicode="&#x2a4;" horiz-adv-x="2399" 
d="M552 -18q-137 0 -238 69t-156.5 194.5t-55.5 296.5v2q0 172 55 298t156 194.5t239 68.5q112 0 201.5 -51.5t132.5 -139.5h17v598h216v-426h1049v-149l-358 -402v-16q197 -24 307 -140t110 -299v-2q0 -132 -59 -236t-165 -164t-247 -60q-129 0 -229.5 50t-160.5 140
t-68 213l-1 14h213l1 -14q13 -102 79 -161.5t165 -59.5q121 0 186 76t65 199v2q0 128 -87.5 203t-239.5 75h-106v183l318 360v17h-772v-915h-216v171h-17q-47 -89 -133.5 -139t-200.5 -50zM614 167q135 0 213.5 100.5t78.5 274.5v2q0 174 -78.5 274.5t-213.5 100.5
q-136 0 -213.5 -100t-77.5 -275v-2q0 -175 77 -275t214 -100z" />
    <glyph glyph-name="uni02A5" unicode="&#x2a5;" horiz-adv-x="2384" 
d="M552 -18q-137 0 -238 69t-156.5 194.5t-55.5 296.5v2q0 172 55 298t156 194.5t239 68.5q112 0 201.5 -51.5t132.5 -139.5h17v598h216v-426h1070v-149l-601 -767v-16h229v36q0 130 71.5 213.5t196.5 83.5q103 0 170 -64t67 -165v-2q0 -103 -83.5 -179.5t-246.5 -76.5h-16
v-268h-160v268h-483v141l601 757v17h-815v-915h-216v171h-17q-47 -89 -133.5 -139t-200.5 -50zM614 167q135 0 213.5 100.5t78.5 274.5v2q0 174 -78.5 274.5t-213.5 100.5q-136 0 -213.5 -100t-77.5 -275v-2q0 -175 77 -275t214 -100zM1976 200v-46h45q68 0 101.5 28.5
t33.5 70.5v2q0 38 -21.5 58t-53.5 20q-44 0 -74.5 -32.5t-30.5 -100.5z" />
    <glyph glyph-name="uni02A6" unicode="&#x2a6;" horiz-adv-x="1884" 
d="M566 -7q-179 0 -258 68t-79 225v629h-170v171h170v274h221v-274h727q73 21 157 21q186 0 299 -84t128 -217v-1h-208v2q-15 57 -71.5 95t-148.5 38q-89 0 -146.5 -40.5t-57.5 -105.5v-2q0 -51 40 -84t131 -55l172 -39q157 -37 233 -107t76 -188v-2q0 -101 -58.5 -177
t-160.5 -118.5t-231 -42.5q-196 0 -314.5 84t-133.5 221l-1 1h218v-1q20 -62 79.5 -99.5t156.5 -37.5q100 0 163 41.5t63 108.5v2q0 51 -41 86t-135 57l-173 40q-154 35 -227.5 107.5t-73.5 191.5v1q0 71 33 133h-495v-577q0 -87 35 -126t116 -39q25 0 42 1t40 3v-173
q-26 -4 -56 -7.5t-61 -3.5z" />
    <glyph glyph-name="uni02A7" unicode="&#x2a7;" horiz-adv-x="1648" 
d="M566 -7q-179 0 -258 68t-79 225v629h-170v171h170v274h221v-274h656v114q0 322 337 322q71 0 128 -10v-159q-29 5 -83 5q-89 0 -127 -43t-38 -125v-1251q0 -322 -337 -322q-72 0 -128 11v159q28 -5 83 -5q89 0 127 42.5t38 125.5v965h-656v-577q0 -87 35 -126t116 -39
q25 0 42 1t40 3v-173q-26 -4 -56 -7.5t-61 -3.5z" />
    <glyph glyph-name="uni02A8" unicode="&#x2a8;" horiz-adv-x="1947" 
d="M566 -7q-179 0 -258 68t-79 225v629h-170v171h170v274h221v-274h780q75 22 163 22q201 0 320.5 -103t143.5 -257l2 -11h-210l-1 7q-20 77 -84.5 130t-170.5 53q-137 0 -214 -102.5t-77 -281.5v-2q0 -165 62 -271.5t195 -132.5v68q0 129 67.5 215.5t197.5 86.5
q109 0 176.5 -65.5t67.5 -160.5v-2q0 -118 -97.5 -197.5t-250.5 -98.5v-257h-161v256q-136 13 -243.5 78t-170 184.5t-63.5 298.5v2q0 225 103 370h-535v-577q0 -87 35 -126t116 -39q25 0 42 1t40 3v-173q-26 -4 -56 -7.5t-61 -3.5zM1520 213v-80q96 11 138.5 49t42.5 87v2
q0 41 -23.5 62.5t-54.5 21.5q-47 0 -75 -37t-28 -105z" />
    <glyph glyph-name="uni02A9" unicode="&#x2a9;" horiz-adv-x="2002" 
d="M233 0v915h-179v171h179v114q0 322 336 322q72 0 128 -10v-159q-28 5 -83 5q-90 0 -128.5 -43t-38.5 -125v-104h701v-165h16q40 87 118 136.5t197 49.5q182 0 279.5 -105t97.5 -299v-768q0 -313 -319 -313q-53 0 -88 6v167q20 -3 51 -3q140 0 140 138v722q0 269 -234 269
q-119 0 -188.5 -76.5t-69.5 -207.5v-637h-217v915h-482v-915h-216z" />
    <glyph glyph-name="uni02AA" unicode="&#x2aa;" horiz-adv-x="1653" 
d="M166 0v1512h217v-1341h303q-28 52 -35 113v1h217l1 -1q20 -62 79 -99.5t156 -37.5q100 0 163.5 41.5t63.5 108.5v2q0 51 -41.5 86t-135.5 57l-173 40q-153 35 -226.5 107.5t-73.5 191.5v1q0 94 54 167.5t149.5 115.5t218.5 42q186 0 298.5 -84t127.5 -217v-1h-207v2
q-16 57 -72 95t-148 38q-89 0 -147 -40.5t-58 -105.5v-2q0 -51 40 -84t132 -55l172 -39q157 -37 233 -107t76 -188v-2q0 -101 -59 -177t-160.5 -118.5t-231.5 -42.5q-93 0 -172 21h-761z" />
    <glyph glyph-name="uni02AB" unicode="&#x2ab;" horiz-adv-x="1598" 
d="M166 0v1512h217v-426h1027v-149l-549 -749v-17h556v-171h-827v141l564 757v17h-771v-915h-217z" />
    <glyph glyph-name="uni02AC" unicode="&#x2ac;" horiz-adv-x="1019" 
d="M209 812l-171 631h175l94 -448h10l111 448h165l111 -448h11l94 448h172l-171 -631h-183l-114 431h-10l-112 -431h-182zM209 0l-171 631h175l94 -448h10l111 448h165l111 -448h11l94 448h172l-171 -631h-183l-114 430h-10l-112 -430h-182z" />
    <glyph glyph-name="uni02AD" unicode="&#x2ad;" horiz-adv-x="1124" 
d="M156 811v542h811v-542h-159v382h-492v-382h-160zM156 90v542h811v-542h-159v382h-492v-382h-160z" />
    <glyph glyph-name="uni02AE" unicode="&#x2ae;" horiz-adv-x="1333" 
d="M1167 1086v-1448h-216v527h-17q-40 -87 -118 -136.5t-197 -49.5q-182 0 -279.5 105t-97.5 299v414q0 138 -140 138q-30 0 -51 -3v168q36 5 88 5q320 0 320 -313v-358q0 -269 234 -269q119 0 188.5 76.5t69.5 207.5v637h216z" />
    <glyph glyph-name="uni02AF" unicode="&#x2af;" horiz-adv-x="1333" 
d="M1167 1086v-1156q0 -138 140 -138q30 0 51 3v-167q-36 -6 -88 -6q-319 0 -319 313v230h-17q-40 -87 -118 -136.5t-197 -49.5q-182 0 -279.5 105t-97.5 299v414q0 138 -140 138q-30 0 -51 -3v168q36 5 88 5q320 0 320 -313v-358q0 -269 234 -269q119 0 188.5 76.5
t69.5 207.5v637h216z" />
    <glyph glyph-name="uni02B0" unicode="&#x2b0;" horiz-adv-x="887" 
d="M142 766v937h159v-365h11q25 55 76.5 86.5t128.5 31.5q119 0 182 -65.5t63 -186.5v-438h-159v399q0 153 -145 153q-72 0 -114.5 -43t-42.5 -116v-393h-159z" />
    <glyph glyph-name="uni02B1" unicode="&#x2b1;" horiz-adv-x="887" 
d="M142 766v741q0 203 219 203q39 0 62 -3v-123q-6 1 -15 1.5t-18 0.5q-89 0 -89 -77v-170h11q25 55 76.5 86.5t128.5 31.5q119 0 182 -66t63 -187v-438h-159v400q0 153 -145 153q-72 0 -114.5 -43.5t-42.5 -115.5v-394h-159z" />
    <glyph glyph-name="uni02B2" unicode="&#x2b2;" horiz-adv-x="384" 
d="M193 1552q-39 0 -67 28t-28 67t28 67t67 28t67.5 -28t28.5 -67t-28.5 -67t-67.5 -28zM34 535q-9 0 -20 0.5t-18 1.5v127h21q52 0 74.5 18t22.5 63v698h159v-701q0 -207 -239 -207z" />
    <glyph glyph-name="uni02B4" unicode="&#x2b4;" horiz-adv-x="589" 
d="M461 1443v-677h-159v105h-11q-39 -115 -184 -115q-37 0 -65 7v147q43 -9 80 -9q81 0 130.5 41.5t49.5 114.5v386h159z" />
    <glyph glyph-name="uni02B7" unicode="&#x2b7;" horiz-adv-x="1177" 
d="M279 766l-194 677h160l119 -500h12l138 500h151l139 -500h11l120 500h157l-192 -677h-168l-139 483h-11l-139 -483h-164z" />
    <glyph glyph-name="uni02B9" unicode="&#x2b9;" horiz-adv-x="446" 
d="M107 1060l57 384h175l-115 -384h-117z" />
    <glyph glyph-name="uni02BA" unicode="&#x2ba;" horiz-adv-x="750" 
d="M107 1060l57 384h175l-115 -384h-117zM411 1060l57 384h175l-115 -384h-117z" />
    <glyph glyph-name="uni02BB" unicode="&#x2bb;" horiz-adv-x="568" 
d="M489 1443l-105 -672h-228l186 672h147z" />
    <glyph glyph-name="quoteright" unicode="&#x2019;" horiz-adv-x="645" 
d="M163 856l88 587h231l-166 -587h-153z" />
    <glyph glyph-name="quoteright" unicode="&#x2bc;" horiz-adv-x="645" 
d="M163 856l88 587h231l-166 -587h-153z" />
    <glyph glyph-name="uni02BE" unicode="&#x2be;" horiz-adv-x="542" 
d="M106 1283h-5v160h5q94 0 170.5 -45t121 -121t44.5 -171v-31q0 -94 -44.5 -170.5t-121 -121t-170.5 -44.5h-5v159h5q74 0 125.5 51.5t51.5 125.5v31q0 75 -51.5 126t-125.5 51z" />
    <glyph glyph-name="uni02BF" unicode="&#x2bf;" horiz-adv-x="542" 
d="M437 898h5v-159h-5q-95 0 -171 44.5t-121 121t-45 170.5v31q0 95 45 171t121 121t171 45h5v-160h-5q-74 0 -125.5 -51t-51.5 -126v-31q0 -74 51.5 -125.5t125.5 -51.5z" />
    <glyph glyph-name="circumflex" unicode="&#x2c6;" horiz-adv-x="1024" 
d="M148 1236l247 344h234l247 -344h-213l-143 221h-16l-142 -221h-214z" />
    <glyph glyph-name="caron" unicode="&#x2c7;" horiz-adv-x="1024" 
d="M876 1580l-247 -344h-234l-247 344h214l142 -221h16l143 221h213z" />
    <glyph glyph-name="uni02C8" unicode="&#x2c8;" horiz-adv-x="394" 
d="M117 739v704h160v-704h-160z" />
    <glyph glyph-name="uni02CC" unicode="&#x2cc;" horiz-adv-x="394" 
d="M117 -362v705h160v-705h-160z" />
    <glyph glyph-name="uni02D0" unicode="&#x2d0;" horiz-adv-x="538" 
d="M472 1086l-203 -346l-204 346h407zM65 0l204 347l203 -347h-407z" />
    <glyph glyph-name="uni02D1" unicode="&#x2d1;" horiz-adv-x="538" 
d="M472 1086l-203 -346l-204 346h407z" />
    <glyph glyph-name="breve" unicode="&#x2d8;" horiz-adv-x="1024" 
d="M512 1235q-176 0 -270 96t-94 247v2h173v-3q1 -89 47.5 -144.5t143.5 -55.5t143.5 55.5t47.5 144.5v3h173v-2q0 -151 -94 -247t-270 -96z" />
    <glyph glyph-name="dotaccent" unicode="&#x2d9;" horiz-adv-x="1024" 
d="M512 1280q-56 0 -96 39.5t-40 95.5t40 96t96 40t96 -40t40 -96t-40 -95.5t-96 -39.5z" />
    <glyph glyph-name="ring" unicode="&#x2da;" horiz-adv-x="1024" 
d="M512 1237q-65 0 -118.5 30.5t-85.5 82.5t-32 115v1q0 95 69 161t167 66t167 -66t69 -161v-1q0 -63 -32 -115t-85.5 -82.5t-118.5 -30.5zM512 1348q50 0 85 34t35 83v1q0 49 -35 82.5t-85 33.5t-85 -33.5t-35 -82.5v-1q0 -49 35 -83t85 -34z" />
    <glyph glyph-name="ogonek" unicode="&#x2db;" horiz-adv-x="1024" 
d="M497 -494q-67 0 -125.5 24t-95 73.5t-36.5 126.5v2q0 76 51 152t163 141h56v-25h95q-72 -45 -117 -101t-45 -127v-2q0 -59 33 -92t82 -33q34 0 69 9v-128q-60 -20 -130 -20z" />
    <glyph glyph-name="tilde" unicode="&#x2dc;" horiz-adv-x="1024" 
d="M645 1242q-95 0 -165 78l-12 13q-27 31 -46.5 43t-39.5 12q-79 0 -79 -145v-4h-154v10q0 132 62 209.5t168 77.5q95 0 166 -78l12 -12q29 -33 47 -44t39 -11q78 0 78 144v4h154v-10q0 -132 -62 -209.5t-168 -77.5z" />
    <glyph glyph-name="hungarumlaut" unicode="&#x2dd;" 
d="M-106 1230h-168l141 329h226zM274 1230h-168l164 329h226z" />
    <glyph glyph-name="uni02DE" unicode="&#x2de;" horiz-adv-x="534" 
d="M-171 474v155h514v-225q0 -137 140 -137q30 0 51 2v-167q-14 -3 -37 -4t-48 -1q-146 0 -223 74t-77 233v70h-320z" />
    <glyph glyph-name="uni02E0" unicode="&#x2e0;" horiz-adv-x="820" 
d="M410 528q-78 0 -125 46t-47 115v1q0 44 15 85t40 90l33 62l-257 516h170l171 -379l171 379h170l-257 -516l33 -62q25 -49 40.5 -90t15.5 -85v-1q0 -69 -47.5 -115t-125.5 -46zM410 634q26 0 41.5 16t15.5 41v1q0 32 -44 117l-12 26l-13 -26q-44 -85 -44 -117v-1
q0 -25 15.5 -41t40.5 -16z" />
    <glyph glyph-name="uni02E4" unicode="&#x2e4;" horiz-adv-x="781" 
d="M498 766h-153v308q0 52 -22 85.5t-87 86.5q-68 54 -102 108t-34 121v2q0 109 81 175.5t215 66.5q150 0 229 -74t84 -188v-6h-153l-1 5q-5 57 -45.5 92t-109.5 35q-62 0 -98.5 -31.5t-36.5 -80.5v-1q0 -39 19.5 -70t75.5 -74q76 -57 107 -111t31 -126v-323z" />
    <glyph glyph-name="gravecomb" unicode="&#x300;" 
d="M-73 1236l-236 344h232l175 -344h-171z" />
    <glyph glyph-name="acutecomb" unicode="&#x301;" 
d="M73 1236h-171l175 344h232z" />
    <glyph glyph-name="uni0302" unicode="&#x302;" 
d="M-368 1236l248 344h240l248 -344h-207l-153 221h-16l-153 -221h-207z" />
    <glyph glyph-name="tildecomb" unicode="&#x303;" 
d="M151 1242q-57 0 -99.5 24t-85.5 64l-14 12q-27 27 -46 36.5t-39 9.5q-76 0 -76 -145v-4h-154v10q0 132 56 209.5t156 77.5q57 0 99.5 -23.5t84.5 -63.5l14 -13q28 -27 47 -36t39 -9q76 0 76 144v4h154v-10q0 -132 -56 -209.5t-156 -77.5z" />
    <glyph glyph-name="uni0304" unicode="&#x304;" 
d="M-340 1337v150h680v-150h-680z" />
    <glyph glyph-name="uni0306" unicode="&#x306;" 
d="M0 1235q-176 0 -270 96t-94 247v2h166v-3q1 -86 49.5 -139.5t148.5 -53.5t148.5 53.5t49.5 139.5v3h166v-2q0 -151 -94 -247t-270 -96z" />
    <glyph glyph-name="uni0307" unicode="&#x307;" 
d="M0 1280q-56 0 -96 39.5t-40 95.5t40 96t96 40t96 -40t40 -96t-40 -95.5t-96 -39.5z" />
    <glyph glyph-name="uni0308" unicode="&#x308;" 
d="M-229 1288q-52 0 -89 36.5t-37 88.5q0 51 37 87.5t89 36.5q51 0 87.5 -36.5t36.5 -87.5q0 -52 -36.5 -88.5t-87.5 -36.5zM229 1288q-51 0 -88 36.5t-37 88.5q0 51 37 87.5t88 36.5q52 0 89 -36.5t37 -87.5q0 -52 -37 -88.5t-89 -36.5z" />
    <glyph glyph-name="hookabovecomb" unicode="&#x309;" 
d="M-86 1236v11q105 74 105 135q0 39 -43 60.5t-108 21.5q-29 0 -50 -2.5t-36 -5.5v128q18 7 55.5 13t80.5 6q111 0 187.5 -55t76.5 -136q0 -52 -31 -94t-91 -82h-146z" />
    <glyph glyph-name="uni030A" unicode="&#x30a;" 
d="M0 1237q-65 0 -118.5 30.5t-85.5 82.5t-32 115v1q0 95 69 161t167 66t167 -66t69 -161v-1q0 -63 -32 -115t-85.5 -82.5t-118.5 -30.5zM0 1348q50 0 85 34t35 83v1q0 49 -35 82.5t-85 33.5t-85 -33.5t-35 -82.5v-1q0 -49 35 -83t85 -34z" />
    <glyph glyph-name="uni030B" unicode="&#x30b;" 
d="M-131 1236h-171l152 344h231zM265 1236h-171l176 344h231z" />
    <glyph glyph-name="uni030C" unicode="&#x30c;" 
d="M368 1580l-248 -344h-240l-248 344h207l153 -221h16l153 221h207z" />
    <glyph glyph-name="uni030F" unicode="&#x30f;" 
d="M-275 1236l-260 344h231l200 -344h-171zM120 1236l-236 344h231l176 -344h-171z" />
    <glyph glyph-name="uni0311" unicode="&#x311;" 
d="M0 1580q176 0 270 -96t94 -248v-1h-166v3q-1 86 -49.5 139.5t-148.5 53.5t-148.5 -53.5t-49.5 -139.5v-3h-166v1q0 152 94 248t270 96z" />
    <glyph glyph-name="uni0318" unicode="&#x318;" 
d="M-252 -346v148h355v148h148v-444h-148v148h-355z" />
    <glyph glyph-name="uni0319" unicode="&#x319;" 
d="M-252 -494v444h148v-148h355v-148h-355v-148h-148z" />
    <glyph glyph-name="uni031A" unicode="&#x31a;" 
d="M-296 1443h444v-444h-148v296h-296v148z" />
    <glyph glyph-name="uni031B" unicode="&#x31b;" 
d="M202 1404h191q0 -151 -38.5 -240t-127.5 -134.5t-239 -65.5l-93 -14v136q126 6 192.5 41.5t90.5 103.5t24 173z" />
    <glyph glyph-name="uni031C" unicode="&#x31c;" 
d="M93 -363h11v-141h-11q-83 0 -140 57t-57 140v2q0 83 57 140t140 57h11v-141h-11q-24 0 -40 -16t-16 -40v-2q0 -23 16 -39.5t40 -16.5z" />
    <glyph glyph-name="uni031D" unicode="&#x31d;" 
d="M-296 -450v148h222v207h148v-207h222v-148h-592z" />
    <glyph glyph-name="uni031E" unicode="&#x31e;" 
d="M296 -95v-148h-222v-207h-148v207h-222v148h592z" />
    <glyph glyph-name="uni031F" unicode="&#x31f;" 
d="M-296 -346v148h222v148h148v-148h222v-148h-222v-148h-148v148h-222z" />
    <glyph glyph-name="uni0320" unicode="&#x320;" 
d="M-296 -346v148h592v-148h-592z" />
    <glyph glyph-name="dotbelowcomb" unicode="&#x323;" 
d="M0 -456q-55 0 -94.5 39t-39.5 94t39.5 94.5t94.5 39.5t94.5 -39.5t39.5 -94.5t-39.5 -94t-94.5 -39z" />
    <glyph glyph-name="uni0324" unicode="&#x324;" 
d="M-221 -148q47 0 80 -32.5t33 -79.5q0 -46 -33 -78.5t-80 -32.5q-48 0 -81 32.5t-33 78.5q0 47 33 79.5t81 32.5zM221 -148q48 0 81 -32.5t33 -79.5q0 -46 -33 -78.5t-81 -32.5t-80.5 32.5t-32.5 78.5q0 47 32.5 79.5t80.5 32.5z" />
    <glyph glyph-name="uni0325" unicode="&#x325;" 
d="M3 -117q93 0 154 -56.5t61 -138.5v-1q0 -82 -61 -138t-154 -56h-6q-92 0 -153.5 55.5t-61.5 138.5v1q0 83 61.5 139t153.5 56h6zM2 -216h-4q-44 0 -73.5 -27.5t-29.5 -68.5v-1q0 -41 29.5 -68t73.5 -27h4q44 0 73.5 27t29.5 68v1q0 41 -29.5 68.5t-73.5 27.5z" />
    <glyph glyph-name="uni0326" unicode="&#x326;" 
d="M-204 -494l87 345h215l-161 -345h-141z" />
    <glyph glyph-name="uni0327" unicode="&#x327;" 
d="M-42 -494q-81 0 -159 18v123q13 -3 47.5 -8t76.5 -5q45 0 84.5 16t39.5 58v2q0 45 -37.5 61.5t-112.5 16.5h-38v93l98 143h141v-24l-71 -99q96 -2 155 -52t59 -133v-2q0 -110 -84 -159t-199 -49z" />
    <glyph glyph-name="uni0328" unicode="&#x328;" 
d="M-15 -494q-67 0 -125.5 24t-95 73.5t-36.5 126.5v2q0 76 51 152t163 141h56v-25h95q-72 -45 -117 -101t-45 -127v-2q0 -59 33 -92t82 -33q34 0 69 9v-128q-60 -20 -130 -20z" />
    <glyph glyph-name="uni0329" unicode="&#x329;" 
d="M-74 -494v444h148v-444h-148z" />
    <glyph glyph-name="uni032A" unicode="&#x32a;" 
d="M364 -118v-345h-147v197h-434v-197h-147v345h728z" />
    <glyph glyph-name="uni032C" unicode="&#x32c;" 
d="M368 -149l-248 -314h-240l-248 314h207l153 -196h16l153 196h207z" />
    <glyph glyph-name="uni032D" unicode="&#x32d;" 
d="M-368 -463l248 314h240l248 -314h-207l-153 196h-16l-153 -196h-207z" />
    <glyph glyph-name="uni032E" unicode="&#x32e;" 
d="M0 -463q-176 0 -270 87t-94 225v1h166v-4q1 -74 49.5 -120.5t148.5 -46.5t148.5 46.5t49.5 120.5v4h166v-1q0 -138 -94 -225t-270 -87z" />
    <glyph glyph-name="uni032F" unicode="&#x32f;" 
d="M0 -150q176 0 270 -87t94 -224v-2h-166v4q-1 74 -49.5 120.5t-148.5 46.5t-148.5 -46.5t-49.5 -120.5v-4h-166v2q0 137 94 224t270 87z" />
    <glyph glyph-name="uni0330" unicode="&#x330;" 
d="M151 -469q-57 0 -99.5 24t-85.5 64l-14 13q-27 26 -46 35.5t-39 9.5q-76 0 -76 -145v-3h-154v9q0 132 56 209.5t156 77.5q57 0 99.5 -23.5t84.5 -63.5l14 -13q28 -27 47 -36t39 -9q76 0 76 144v4h154v-9q0 -133 -56 -210.5t-156 -77.5z" />
    <glyph glyph-name="uni0332" unicode="&#x332;" 
d="M-340 -401v151h680v-151h-680z" />
    <glyph glyph-name="uni0332" unicode="&#x331;" 
d="M-340 -401v151h680v-151h-680z" />
    <glyph glyph-name="uni0334" unicode="&#x334;" 
d="M239 411q-67 0 -130 24t-123.5 55.5t-120 56t-117.5 24.5q-92 0 -160 -34.5t-116 -88.5v192q47 51 118 85.5t171 34.5q67 0 130 -24t124 -55.5t120 -56t117 -24.5q92 0 160 34.5t116 88.5v-192q-47 -51 -118 -85.5t-171 -34.5z" />
    <glyph glyph-name="uni0339" unicode="&#x339;" 
d="M-93 -249h-11v141h11q83 0 140 -57t57 -140v-2q0 -83 -57 -140t-140 -57h-11v141h11q24 0 40 16.5t16 39.5v2q0 24 -16 40t-40 16z" />
    <glyph glyph-name="uni033A" unicode="&#x33a;" 
d="M-364 -463v345h147v-197h434v197h147v-345h-728z" />
    <glyph glyph-name="uni033B" unicode="&#x33b;" 
d="M-364 -463v729h728v-729h-728zM-217 -315h434v433h-434v-433z" />
    <glyph glyph-name="uni033C" unicode="&#x33c;" 
d="M206 -165q124 0 194 -82.5t70 -213.5v-2h-145v4q-3 69 -32.5 112t-86.5 43t-86.5 -43t-32.5 -112v-4h-174v4q-3 69 -32.5 112t-86.5 43t-86.5 -43t-31.5 -112l-1 -4h-145v2q0 131 70 213.5t194 82.5q68 0 120 -25.5t86 -71.5q34 46 86 71.5t120 25.5z" />
    <glyph glyph-name="uni033D" unicode="&#x33d;" 
d="M-245 1608l93 96l152 -147l152 147l92 -96l-149 -143l149 -144l-92 -96l-152 147l-152 -147l-93 96l149 144z" />
    <glyph glyph-name="uni035C" unicode="&#x35c;" 
d="M-1 -494q-315 0 -470.5 118.5t-155.5 305.5v3h200l-1 -3q-5 -113 97 -181.5t330 -68.5q229 0 331 68.5t97 181.5l-1 3h200v-3q0 -187 -155.5 -305.5t-471.5 -118.5z" />
    <glyph glyph-name="uni035D" unicode="&#x35d;" 
d="M-1 1235q-315 0 -470.5 118.5t-155.5 305.5v3h200l-1 -3q-5 -113 97 -181.5t330 -68.5q229 0 331 68.5t97 181.5l-1 3h200v-3q0 -187 -155.5 -305.5t-471.5 -118.5z" />
    <glyph glyph-name="uni035E" unicode="&#x35e;" 
d="M-921 1337v150h1841v-150h-1841z" />
    <glyph glyph-name="uni035F" unicode="&#x35f;" 
d="M-921 -401v150h1841v-150h-1841z" />
    <glyph glyph-name="uni0361" unicode="&#x361;" 
d="M0 1662q315 0 470.5 -119t155.5 -306v-2h-200l1 2q5 113 -97 181.5t-330 68.5q-229 0 -331 -68.5t-97 -181.5l1 -2h-200v2q0 187 155.5 306t471.5 119z" />
    <glyph glyph-name="uni037E" unicode="&#x37e;" horiz-adv-x="645" 
d="M323 741q-62 0 -104.5 42.5t-42.5 102.5q0 62 42.5 104t104.5 42t104 -42t42 -104q0 -60 -42 -102.5t-104 -42.5zM118 -375l88 587h231l-166 -587h-153z" />
    <glyph glyph-name="tonos" unicode="&#x384;" horiz-adv-x="1024" 
d="M528 1236h-167l89 344h214z" />
    <glyph glyph-name="dieresistonos" unicode="&#x385;" horiz-adv-x="1024" 
d="M565 1236h-166l50 344h213zM165 1237q-54 0 -92.5 37.5t-38.5 91.5t38.5 92t92.5 38t92 -38t38 -92t-38 -91.5t-92 -37.5zM859 1237q-54 0 -92 37.5t-38 91.5t38 92t92 38t92 -38t38 -92t-38 -91.5t-92 -37.5z" />
    <glyph glyph-name="Alphatonos" unicode="&#x386;" horiz-adv-x="1431" 
d="M332 1099h-167l71 344h214zM78 0l521 1443h242l521 -1443h-236l-130 390h-552l-131 -390h-235zM711 1190l-207 -620h432l-208 620h-17z" />
    <glyph glyph-name="anoteleia" unicode="&#x387;" horiz-adv-x="645" 
d="M323 795q-62 0 -104.5 42t-42.5 103q0 62 42.5 104t104.5 42t104 -42t42 -104q0 -61 -42 -103t-104 -42z" />
    <glyph glyph-name="Epsilontonos" unicode="&#x388;" horiz-adv-x="1534" 
d="M237 1099h-167l71 344h214zM476 0v1443h916v-193h-692v-422h655v-186h-655v-449h692v-193h-916z" />
    <glyph glyph-name="Etatonos" unicode="&#x389;" horiz-adv-x="1845" 
d="M237 1099h-167l71 344h214zM476 0v1443h224v-610h741v610h223v-1443h-223v639h-741v-639h-224z" />
    <glyph glyph-name="Iotatonos" unicode="&#x38a;" horiz-adv-x="880" 
d="M237 1099h-167l71 344h214zM476 0v1443h224v-1443h-224z" />
    <glyph glyph-name="Omicrontonos" unicode="&#x38c;" horiz-adv-x="1749" 
d="M237 1099h-167l71 344h214zM954 -35q-210 0 -361 92.5t-232 262.5t-81 401v2q0 232 82 401.5t233.5 261.5t358.5 92t358 -92t233 -261.5t82 -401.5v-2q0 -231 -81.5 -401t-232.5 -262.5t-359 -92.5zM954 163q137 0 236.5 69t153.5 194.5t54 294.5v2q0 170 -54 295
t-154 193.5t-236 68.5q-137 0 -237 -68.5t-154 -193.5t-54 -295v-2q0 -169 53 -294.5t153 -194.5t239 -69z" />
    <glyph glyph-name="Upsilontonos" unicode="&#x38e;" horiz-adv-x="1725" 
d="M237 1099h-167l71 344h214zM922 0v591l-508 852h249l363 -629h17l363 629h249l-509 -852v-591h-224z" />
    <glyph glyph-name="Omegatonos" unicode="&#x38f;" horiz-adv-x="1829" 
d="M237 1099h-167l71 344h214zM354 0v193h300v17q-142 89 -221 244.5t-79 346.5v2q0 201 84.5 353t236.5 237t352 85q201 0 353 -85t236.5 -237t84.5 -353v-2q0 -191 -79 -346.5t-221 -244.5v-17h300v-193h-544v244q161 100 238.5 233t77.5 313v2q0 226 -119.5 357
t-326.5 131q-206 0 -325.5 -131t-119.5 -357v-2q0 -180 77.5 -313t238.5 -233v-244h-544z" />
    <glyph glyph-name="iotadieresistonos" unicode="&#x390;" horiz-adv-x="646" 
d="M479 -10q-177 0 -250 70.5t-73 223.5v802h217v-751q0 -86 34 -126t116 -40q23 0 64 4v-172q-51 -11 -108 -11zM344 1236h-165l49 344h213zM-56 1237q-54 0 -92 37.5t-38 91.5t38 92t92 38t92 -38t38 -92t-38 -91.5t-92 -37.5zM639 1237q-54 0 -92.5 37.5t-38.5 91.5
t38.5 92t92.5 38t92 -38t38 -92t-38 -91.5t-92 -37.5z" />
    <glyph glyph-name="Alpha" unicode="&#x391;" horiz-adv-x="1423" 
d="M70 0l521 1443h242l521 -1443h-236l-130 390h-552l-131 -390h-235zM703 1190l-207 -620h432l-208 620h-17z" />
    <glyph glyph-name="Beta" unicode="&#x392;" horiz-adv-x="1373" 
d="M181 0v1443h580q203 0 318.5 -96.5t115.5 -262.5v-2q0 -75 -33.5 -141t-91 -111t-128.5 -57v-17q146 -16 235.5 -111t89.5 -236v-2q0 -190 -131 -298.5t-362 -108.5h-593zM709 1260h-304v-431h266q301 0 301 214v2q0 102 -69 158.5t-194 56.5zM716 658h-311v-475h324
q309 0 309 238v2q0 235 -322 235z" />
    <glyph glyph-name="Gamma" unicode="&#x393;" horiz-adv-x="1173" 
d="M405 0h-224v1443h882v-193h-658v-1250z" />
    <glyph glyph-name="Delta" unicode="&#x2206;" horiz-adv-x="1434" 
d="M107 0v143l489 1300h242l490 -1300v-143h-1221zM351 193h724v17l-353 988h-16l-355 -988v-17z" />
    <glyph glyph-name="Delta" unicode="&#x394;" horiz-adv-x="1434" 
d="M107 0v143l489 1300h242l490 -1300v-143h-1221zM351 193h724v17l-353 988h-16l-355 -988v-17z" />
    <glyph glyph-name="Epsilon" unicode="&#x395;" horiz-adv-x="1239" 
d="M181 0v1443h916v-193h-692v-422h655v-186h-655v-449h692v-193h-916z" />
    <glyph glyph-name="Zeta" unicode="&#x396;" horiz-adv-x="1365" 
d="M141 0v153l784 1080v17h-760v193h1041v-153l-780 -1080v-17h799v-193h-1084z" />
    <glyph glyph-name="Eta" unicode="&#x397;" horiz-adv-x="1550" 
d="M181 0v1443h224v-610h741v610h223v-1443h-223v639h-741v-639h-224z" />
    <glyph glyph-name="Theta" unicode="&#x398;" horiz-adv-x="1607" 
d="M803 -35q-212 0 -364.5 92.5t-234.5 262.5t-82 401v2q0 232 83 401.5t236 261.5t362 92q211 0 363.5 -92t235.5 -261.5t83 -401.5v-2q0 -231 -82.5 -401t-235.5 -262.5t-364 -92.5zM804 163q142 0 245.5 69t160 194.5t56.5 294.5v2q0 170 -56.5 295t-160 193.5
t-245.5 68.5t-245.5 -68.5t-160 -193.5t-56.5 -295v-2q0 -169 55 -294.5t158.5 -194.5t248.5 -69zM542 628v186h522v-186h-522z" />
    <glyph glyph-name="Iota" unicode="&#x399;" horiz-adv-x="585" 
d="M181 0v1443h224v-1443h-224z" />
    <glyph glyph-name="Kappa" unicode="&#x39a;" horiz-adv-x="1386" 
d="M181 0v1443h224v-682h16l597 682h265l-558 -626l606 -817h-280l-484 665l-162 -184v-481h-224z" />
    <glyph glyph-name="Lambda" unicode="&#x39b;" horiz-adv-x="1406" 
d="M81 0l501 1443h242l501 -1443h-241l-375 1176h-17l-379 -1176h-232z" />
    <glyph glyph-name="Mu" unicode="&#x39c;" horiz-adv-x="1814" 
d="M181 0v1443h258l460 -1151h16l460 1151h258v-1443h-204v1059h-15l-424 -1059h-166l-423 1059h-16v-1059h-204z" />
    <glyph glyph-name="Nu" unicode="&#x39d;" horiz-adv-x="1539" 
d="M181 0v1443h202l742 -1050h15v1050h218v-1443h-202l-741 1048h-16v-1048h-218z" />
    <glyph glyph-name="Xi" unicode="&#x39e;" horiz-adv-x="1354" 
d="M142 1250v193h1069v-193h-1069zM229 642v186h895v-186h-895zM142 0v193h1069v-193h-1069z" />
    <glyph glyph-name="Omicron" unicode="&#x39f;" horiz-adv-x="1591" 
d="M796 -35q-210 0 -361 92.5t-232 262.5t-81 401v2q0 232 82 401.5t233.5 261.5t358.5 92t358 -92t233 -261.5t82 -401.5v-2q0 -231 -81.5 -401t-232.5 -262.5t-359 -92.5zM796 163q137 0 236.5 69t153.5 194.5t54 294.5v2q0 170 -54 295t-154 193.5t-236 68.5
q-137 0 -237 -68.5t-154 -193.5t-54 -295v-2q0 -169 53 -294.5t153 -194.5t239 -69z" />
    <glyph glyph-name="Pi" unicode="&#x3a0;" horiz-adv-x="1536" 
d="M1355 0h-224v1250h-726v-1250h-224v1443h1174v-1443z" />
    </font>
</defs>
</svg>
